<svg xmlns="http://www.w3.org/2000/svg" width="205.643" height="174.721" viewBox="0 0 205.643 174.721"><defs><style>.a{fill:#eaeaea;}.b{fill:#fff;}.c{fill:#212c33;}.d{fill:#f8e7cc;}.e{fill:#f3c054;}</style></defs><g transform="translate(-35.814 -42.119)"><path class="a" d="M159.667,199.99l-19.08-10.432a2.787,2.787,0,0,1-.041-4.868l22.905-13.024a1.95,1.95,0,0,1,1.9-.016l24.015,13.129a1.949,1.949,0,0,1,.028,3.4l-20.631,11.731A9.338,9.338,0,0,1,159.667,199.99Z" transform="translate(6.245 6.793)"/><path class="a" d="M78.459,181.928,45.992,164.185a4.741,4.741,0,0,1-.069-8.281L84.9,133.751a3.319,3.319,0,0,1,3.23-.027l40.863,22.333a3.314,3.314,0,0,1,.048,5.79L93.935,181.8A15.9,15.9,0,0,1,78.459,181.928Z" transform="translate(-5.91 5.98)"/><g transform="translate(35.814 125.766)"><g transform="translate(0.001 24.437)"><path class="b" d="M128.215,154.74h0l-.181-10.36H42.524l.115,10.1c-.027.259,0,0,.034.263h0c.2,1.5,1.374,3.033,3.493,4.258l31.9,18.419c4.26,2.46,10.7,2.726,14.391.6l33.294-19.223C127.607,157.722,128.411,156.251,128.215,154.74Z" transform="translate(-41.778 -143.642)"/><path class="c" d="M86.249,180.212a17.484,17.484,0,0,1-8.512-2.119l-31.9-18.419c-2.227-1.286-3.591-2.968-3.847-4.742a.966.966,0,0,1-.045-.495l-.126-10.758,87.078,1.44.1,9.607c.222,1.849-.807,3.577-2.828,4.743L92.867,178.69A13.5,13.5,0,0,1,86.249,180.212ZM43.414,154.53c.011.046.02.1.027.15.171,1.311,1.313,2.665,3.131,3.715l31.9,18.419c4.048,2.339,10.173,2.607,13.654.6l33.293-19.223c1.517-.875,2.261-2.053,2.1-3.318l-.005-.082-.168-9.635H43.309Z" transform="translate(-41.815 -143.679)"/></g><path class="d" d="M125.628,149.911,92.334,169.133c-3.688,2.129-10.132,1.863-14.391-.6l-31.9-18.419c-4.26-2.46-4.723-6.179-1.034-8.309L78.3,122.586c3.688-2.129,10.132-1.862,14.391.6l31.9,18.419C128.854,144.062,129.317,147.782,125.628,149.911Z" transform="translate(-41.777 -120.425)"/><path class="b" d="M124.557,146.107l-31.9-18.419c-4.26-2.46-10.7-2.726-14.391-.6L44.968,146.313a5.708,5.708,0,0,0-1.737,1.485l.008,4.387A8.212,8.212,0,0,0,46,154.622l31.9,18.419c4.26,2.459,10.7,2.726,14.391.6l33.294-19.223C129.279,152.287,128.816,148.567,124.557,146.107Z" transform="translate(-41.74 -120.189)"/><path class="c" d="M86.122,171.331a17.5,17.5,0,0,1-8.512-2.119l-31.9-18.421c-2.473-1.428-3.892-3.374-3.892-5.34a5,5,0,0,1,2.859-4.247l33.294-19.223c3.888-2.242,10.674-1.976,15.13.6L125,141c2.473,1.429,3.892,3.374,3.892,5.34a5,5,0,0,1-2.859,4.248L92.74,169.808A13.5,13.5,0,0,1,86.122,171.331Zm-1.537-49.418a11.984,11.984,0,0,0-5.879,1.348l-33.3,19.222a3.607,3.607,0,0,0-2.121,2.969c0,1.423,1.15,2.9,3.154,4.062l31.9,18.419c4.05,2.338,10.176,2.605,13.655.6L125.3,149.308a3.605,3.605,0,0,0,2.121-2.969c0-1.423-1.15-2.9-3.154-4.061l-31.9-18.421A16,16,0,0,0,84.585,121.913Z" transform="translate(-41.814 -120.461)"/><g transform="translate(16.401 9.888)"><g transform="translate(0 0.224)"><path class="e" d="M80.778,147.216l1.754-12.393c-.044.024-.094.041-.137.066L59.478,148.12a4.16,4.16,0,0,0-.542.378Z" transform="translate(-57.315 -129.819)"/><path class="c" d="M57.4,145.792l1.746-1.439a4.772,4.772,0,0,1,.642-.447l23.06-13.3,1.214-.535-.12,1.282L82.1,144.341Zm24.871-13.163L62.555,144.011l18.253-1.072Z" transform="translate(-57.396 -130.069)"/></g><g transform="translate(0.282)"><path class="e" d="M85.51,149.91l-26.581,1.56a3.023,3.023,0,0,0,.325.233l18.47,10.664a6.827,6.827,0,0,0,6.169-.131l22.917-13.23c1.766-1.02,1.866-2.615.225-3.562l-18.47-10.663a4.49,4.49,0,0,0-.863-.366Z" transform="translate(-57.598 -129.616)"/><path class="c" d="M81.265,160.2a6.608,6.608,0,0,1-3.249-.775L59.545,148.756a2.955,2.955,0,0,1-.332-.229l-1.549-1.205,1.882-.174,25.978-1.524,2.231-15.768.836.272a5.256,5.256,0,0,1,1,.428l18.47,10.663a2.7,2.7,0,0,1,1.538,2.3,3.073,3.073,0,0,1-1.762,2.539L84.923,159.291A7.471,7.471,0,0,1,81.265,160.2ZM62.019,148.482l16.734,9.661a6.113,6.113,0,0,0,5.43-.131l22.918-13.23c.641-.37,1.023-.842,1.023-1.261,0-.362-.283-.725-.8-1.023L88.957,131.893l-2.14,15.134Z" transform="translate(-57.664 -129.856)"/></g></g><path class="c" d="M83.7,169.249v10.418l3.555-.315,4.428-1.991,33.654-19.506.709-3.214.425-8.362L88.6,168.522l-4.2.729Z" transform="translate(-39.613 -119.105)"/></g><g transform="translate(91.59 42.119)"><g transform="translate(0)"><g transform="translate(24.299 6.648)"><g transform="translate(1.173)"><g transform="translate(0.733 0.508)"><path class="b" d="M229.44,110.955,121.655,49.486a2.982,2.982,0,0,0-3.444-.049L112.926,52.6l3.913,5.566v83.566c0,3.5,2.156,7.572,4.815,9.09l100.648,57.4,5.183,7.373,4.988-2.992c1.087-.543,1.783-1.919,1.783-3.907v-88.65C234.257,116.542,232.1,112.473,229.44,110.955Z" transform="translate(-112.926 -48.917)"/></g><g transform="translate(0.733 1.805)"><path class="d" d="M203.937,106.456l-89.58-50.123-1.431-3.28,3.981-2.383a2.982,2.982,0,0,1,3.444.049l107.786,61.468a9.833,9.833,0,0,1,3.684,4.362l.132.544-6.386,3.829Z" transform="translate(-112.926 -50.15)"/></g><g transform="translate(114.669 71.982)"><path class="b" d="M226.973,116.824l-5.8,3.446.511,2.17,5.287-3.255Z" transform="translate(-221.175 -116.824)"/></g><path class="c" d="M117.933,49.059a3.5,3.5,0,0,1,4.012.009L229.73,110.537c2.8,1.6,5.073,5.872,5.073,9.533v88.65c0,2.118-.753,3.708-2.03,4.346l-5.4,3.236-5.39-7.669L121.438,151.292c-2.8-1.6-5.072-5.872-5.072-9.533v-83.4l-4.135-5.884Zm-.546,8.973v83.727c0,3.334,2.045,7.212,4.559,8.646l100.648,57.4,5.073,7.135,1.074-.643.2-1.591,3.941-2.43a1.843,1.843,0,0,0,.9-1.541V120.07c0-3.334-2.044-7.213-4.558-8.647L121.438,49.955a2.523,2.523,0,0,0-2.928-.055L113.7,52.782Z" transform="translate(-112.23 -48.435)"/></g><g transform="translate(30.143 122.621)"><g transform="translate(0.005 2.217)"><path class="c" d="M146.4,180.27l21.855-12.407a8.969,8.969,0,0,1,8.1.312l13.3,7.586,6.318,2.823v2.887h-.041a2.875,2.875,0,0,1-1.527,1.9l-26.928,15.3a7.3,7.3,0,0,1-3.555.821,9.389,9.389,0,0,1-4.54-1.133l-17.5-9.981a3.67,3.67,0,0,1-2.108-2.783c0-.091,0-.181,0-.235v-2.345Z" transform="translate(-139.759 -167.041)"/></g><g transform="translate(0.511 0.517)"><path class="b" d="M194.117,180.794l-26.929,15.3c-1.944,1.109-5.342.97-7.588-.311L142.1,185.8c-2.246-1.281-2.489-3.219-.544-4.328l26.928-15.3c1.946-1.109,5.343-.97,7.589.311l17.5,9.981C195.818,177.748,196.062,179.685,194.117,180.794Z" transform="translate(-140.239 -165.426)"/></g><g transform="translate(3.464 13.395)"><path class="d" d="M144.359,183.073l7.315-4.333a7.729,7.729,0,0,1,7.767-.064l18.332,10.482-11.078,6.294c-1.945,1.109-5.343.97-7.589-.311L144.9,187.4C142.658,186.12,142.413,184.183,144.359,183.073Z" transform="translate(-143.046 -177.661)"/></g><path class="c" d="M163.91,197.387a7.292,7.292,0,0,0,3.557-.823l26.929-15.3a2.723,2.723,0,0,0,1.57-2.323,3.585,3.585,0,0,0-2.116-2.892l-17.5-9.981a8.972,8.972,0,0,0-8.1-.311l-26.928,15.3a2.723,2.723,0,0,0-1.571,2.323,3.581,3.581,0,0,0,2.116,2.891l17.5,9.982A9.388,9.388,0,0,0,163.91,197.387Zm29.98-17.01-26.928,15.3a7.972,7.972,0,0,1-7.084-.311l-17.5-9.981c-1.017-.579-1.6-1.309-1.6-2a1.788,1.788,0,0,1,1.056-1.436l26.927-15.3a7.976,7.976,0,0,1,7.084.312l17.5,9.98c1.017.581,1.6,1.31,1.6,2.005a1.788,1.788,0,0,1-1.056,1.436Z" transform="translate(-139.754 -164.935)"/></g><g transform="translate(0 3.181)"><path class="c" d="M113.019,51.855a3.613,3.613,0,0,1,3.677.24l107.786,61.468c2.8,1.595,5.073,5.872,5.073,9.533v88.651c0,1.983-.8,2.865-1.473,3.254a3.006,3.006,0,0,1-1.529.379,6.366,6.366,0,0,1-3.065-.942l-107.3-60.121c-2.8-1.6-5.073-5.872-5.073-9.533V56.134C111.116,54.117,111.81,52.557,113.019,51.855Z" transform="translate(-111.116 -51.457)"/></g><g transform="translate(0 85.324)"><g transform="translate(0.512 0.88)"><path class="d" d="M111.6,130.336v10.745a11.271,11.271,0,0,0,5.174,8.853l107.068,61.059c2.858,1.63,5.174.308,5.174-2.951V197.3Z" transform="translate(-111.602 -130.336)"/></g><path class="c" d="M226.182,212.249a3.182,3.182,0,0,0,1.62-.421,4.068,4.068,0,0,0,1.752-3.742V197.045l-.257-.147L111.116,129.5v11.625a11.853,11.853,0,0,0,5.432,9.3l107.067,61.059A5.257,5.257,0,0,0,226.182,212.249Zm2.35-14.611v10.449a3.113,3.113,0,0,1-1.245,2.859,3.176,3.176,0,0,1-3.165-.352L117.055,149.535a10.725,10.725,0,0,1-4.917-8.41v-9.867Z" transform="translate(-111.116 -129.5)"/></g><g transform="translate(5.308 10.605)"><g transform="translate(0.51 0.512)"><path class="b" d="M221.748,190.355l-103.4-58.971a4,4,0,0,1-1.7-3.205V60.467c0-1.236.76-1.8,1.7-1.268l103.4,58.971a4,4,0,0,1,1.7,3.2v67.712C223.446,190.323,222.685,190.891,221.748,190.355Z" transform="translate(-116.644 -58.997)"/></g><path class="c" d="M222.449,191.094a1.382,1.382,0,0,0,.7-.186,1.979,1.979,0,0,0,.835-1.8V121.4a4.5,4.5,0,0,0-1.956-3.648L118.621,58.782a1.583,1.583,0,0,0-1.626-.084,1.977,1.977,0,0,0-.836,1.8v67.712a4.5,4.5,0,0,0,1.956,3.648l103.406,58.972A1.879,1.879,0,0,0,222.449,191.094ZM117.695,59.534a.913.913,0,0,1,.42.134l103.406,58.971a3.5,3.5,0,0,1,1.441,2.762v67.712a1.068,1.068,0,0,1-.327.913.663.663,0,0,1-.607-.087L118.621,130.967a3.5,3.5,0,0,1-1.441-2.762V60.493a1.066,1.066,0,0,1,.327-.913A.367.367,0,0,1,117.695,59.534Z" transform="translate(-116.159 -58.511)"/></g><g transform="translate(96.536 116.843)"><g transform="translate(1.14 0.979)"><path class="e" d="M231.235,187.68v-15L210,160.375v15s.3,7.54-2.891,9.327l-3.194,1.786,21.234,12.3,3.194-1.785C231.539,195.22,231.235,187.68,231.235,187.68Z" transform="translate(-203.916 -160.375)"/></g><g transform="translate(3.822 5.591)"><path class="b" d="M230.442,188.723V175.556l-18.637-10.8v13.168s.266,6.618-2.538,8.186l-2.8,1.568,18.638,10.8,2.8-1.568C230.709,195.342,230.442,188.723,230.442,188.723Z" transform="translate(-206.464 -164.757)"/></g><path class="c" d="M225.2,199.49l-22.369-12.961,4.06-2.27c2.372-1.325,2.683-6.809,2.6-8.811v-16L231.856,172.4v15.316c.018.458.244,7.916-3.179,9.83Zm-20.088-12.943,20.1,11.645,2.912-1.629c2.373-1.326,2.684-6.81,2.6-8.811v-14.7l-20.1-11.65v14.022c.013.3.277,7.888-3.18,9.819Z" transform="translate(-202.833 -159.445)"/><g transform="translate(10.558 13.222)"><g transform="translate(1.99 2.215)"><path class="e" d="M220.644,181.717l1.435-5.762a9.41,9.41,0,0,0-1.435-1.039c-3.252-1.878-5.889-.356-5.889,3.4a13.017,13.017,0,0,0,5.889,10.2c3.253,1.878,5.89.356,5.89-3.4a9.235,9.235,0,0,0-.146-1.574Z" transform="translate(-214.755 -174.112)"/></g><g transform="translate(7.879 0.323)"><g transform="translate(1.712 3.012)"><path class="e" d="M221.977,180.938l5.743,1.827a13.707,13.707,0,0,0-4.309-7.589Z" transform="translate(-221.977 -175.176)"/></g><path class="c" d="M227.348,181.568l-7-2.226,1.75-7.028.626.542a14.132,14.132,0,0,1,4.478,7.885Zm-5.78-2.906,4.45,1.415a13.556,13.556,0,0,0-3.342-5.87Z" transform="translate(-220.35 -172.314)"/></g><path class="c" d="M221.894,188.241a5.855,5.855,0,0,1-2.886-.876,13.6,13.6,0,0,1-6.144-10.641c0-2.006.7-3.517,1.979-4.253s2.938-.592,4.674.413a9.875,9.875,0,0,1,1.513,1.095l.236.205-1.394,5.6,5.582,1.775.053.3a9.692,9.692,0,0,1,.154,1.661c0,2.006-.7,3.518-1.979,4.254A3.527,3.527,0,0,1,221.894,188.241Zm-5.26-15.215a2.537,2.537,0,0,0-1.282.324c-.948.548-1.47,1.746-1.47,3.373a12.474,12.474,0,0,0,5.635,9.76c1.409.813,2.707.96,3.656.413s1.469-1.745,1.469-3.373a8.155,8.155,0,0,0-.09-1.183l-5.9-1.877,1.472-5.915a8.515,8.515,0,0,0-1.118-.785A4.858,4.858,0,0,0,216.634,173.027Z" transform="translate(-212.864 -172.007)"/></g></g></g><g transform="translate(12.1)"><g transform="translate(0 2.59)"><path class="d" d="M99.9,63.011v50.3l80.35,46.39a.029.029,0,0,0,.041-.039L159.24,118.111l-9.877,4.426L131.206,86.052l-7.824,2.75L99.938,45.025a.021.021,0,0,0-.04.011Z" transform="translate(-99.506 -44.557)"/><path class="c" d="M180.368,160.2l-.292-.139-80.55-46.507v-68.8l.6-.174.173.276,23.289,43.487,7.834-2.753.154.311,17.99,36.147,9.874-4.425,21.348,42.141Zm-80.056-47.1,79.1,45.667-20.328-40.125-9.879,4.427L131.029,86.561l-7.813,2.746-22.9-42.768Z" transform="translate(-99.526 -44.58)"/></g><g transform="translate(0.009)"><path class="b" d="M99.9,45.076l4.713-2.455L128.1,86.472l-4.713,2.455Z" transform="translate(-99.515 -42.093)"/><path class="e" d="M100.406,49.626l4.713-2.455L128.6,91.022l-4.713,2.455Z" transform="translate(-99.489 -41.854)"/><path class="c" d="M123.239,89.481,99.584,45.311a.419.419,0,0,1,.176-.57l5.033-2.622,23.856,44.545ZM100.452,45.267l23.113,43.158,4.016-2.091L104.468,43.175Z" transform="translate(-99.535 -42.119)"/></g><g transform="translate(23.695 41.26)"><path class="c" d="M122.35,87.264l-.312-.719,4.765-2.477,7.823-2.749.312.719-4.713,2.455Z" transform="translate(-122.038 -81.319)"/></g><g transform="translate(31.176 41.098)"><path class="b" d="M134.357,81.671l18.157,36.485-4.713,2.455L129.643,84.126Z" transform="translate(-129.12 -81.138)"/><path class="e" d="M134.357,86.114,152.514,122.6l-4.713,2.455L129.643,88.569Z" transform="translate(-129.12 -80.905)"/><path class="c" d="M147.654,121.171,129.146,83.983l5.41-2.818,18.508,37.188ZM130.192,84.323,148,120.1l4.017-2.092L134.21,82.231Z" transform="translate(-129.146 -81.165)"/></g><g transform="translate(49.676 73.331)"><path class="c" d="M147.064,119.387l-.342-.706,4.713-2.455,9.9-4.436.342.707-4.713,2.455Z" transform="translate(-146.722 -111.79)"/></g><g transform="translate(59.208 73.158)"><path class="b" d="M177.372,156.222l4.713-2.455L160.991,112.13l-4.713,2.455Z" transform="translate(-155.752 -111.598)"/><path class="e" d="M174.042,153.077l4.713-2.455-17.264-33.795-4.713,2.455Z" transform="translate(-155.725 -111.352)"/><path class="c" d="M177.228,156.78l-21.45-42.337,5.41-2.818,21.45,42.337Zm-20.4-42,20.739,40.937,4.015-2.091-20.739-40.938Z" transform="translate(-155.778 -111.625)"/></g></g><path class="b" d="M153.15,125.828l-9.871,4.423L125.149,93.82l-7.843,2.756L92.18,49.458l2.763-1.473-6.648-4.142-.264,7.829L90.793,50.2l25.761,48.308,7.806-2.743L142.544,132.3l9.882-4.428,20.756,40.969,1.4-.711Z" transform="translate(-88.03 -42.028)"/><path class="e" d="M153.852,124.607l-9.871,4.423L125.85,92.6l-7.843,2.756L92.882,48.237l2.763-1.473L89,42.621l-.264,7.829,2.763-1.473,25.761,48.308,7.806-2.743,18.184,36.539,9.882-4.428,20.756,40.969,1.4-.71Z" transform="translate(-87.994 -42.093)"/></g></g><g transform="translate(186.572 113.292)"><path class="b" d="M211.432,154.387c-1.057-4.5-3.359-11.466-7.838-14.123-.858-.509-2.006-1.2-2.663-1.585l-.287-2.987a7.719,7.719,0,0,0,.76-.433l.032-.017.1-.071a2.708,2.708,0,0,0,1.283-1.815l.357-1.559,1.226-5.47c.045-.171.086-.345.119-.527l.032-.139-.009-.005a8.72,8.72,0,0,0,.119-1.318,16.634,16.634,0,0,0-7.374-13.124c-1.89-1.122-3.443-1.387-4.774-.823l-.186.061-.1.056a3.431,3.431,0,0,0-.447.247l-3.492,1.927-.187.385,1.7,1.282a8.937,8.937,0,0,0-.088,1.122,9.314,9.314,0,0,0,.045,1.275l.026.109.035.295c.033.26.068.4.118.667l1.384,8.719h0a13.753,13.753,0,0,0,2.11,5.2l-.353,2.361c-.65-.385-1.817-1.15-2.664-1.653-1.75-1.038-3.034-1.1-4.206-.528l-.157.064-.406.225-.012.007-3.053,1.7.685,1.1a15.857,15.857,0,0,0-.93,2.109c-.528,1.465.573,3.953,2.173,4.9L196.6,149.2l.525.312,9.344,5.542c.123,1.12.318,2.629.421,3.417a.363.363,0,0,0,.539.268l3.4-1.9h0C211.436,156.5,211.719,155.605,211.432,154.387Z" transform="translate(-178.065 -109.72)"/><path class="d" d="M211.43,155.981c-1.057-4.5-3.36-11.466-7.838-14.123-.858-.508-2.007-1.2-2.663-1.585l-.288-2.987c.248-.124-.159-.57.094-.736l-.376-.172.4-1.264c.625-.416,1.2-.137,1.381-1.026l1.027-.7,1.227-5.47c.045-.171.085-.345.119-.527l.031-.139-.008-.005a8.722,8.722,0,0,0,.119-1.318,16.638,16.638,0,0,0-7.375-13.124c-1.89-1.122-3.442-1.387-4.774-.823l-.186.061-.1.056a3.493,3.493,0,0,0-.447.247l-3.491,1.927-.188.385,1.7,1.282a9.125,9.125,0,0,0-.088,1.122,9.479,9.479,0,0,0,.046,1.275l.026.109.034.295c.033.26.069.4.119.667l1.384,8.72h0a13.756,13.756,0,0,0,2.111,5.2l-.353,2.362c-.65-.386-1.818-1.15-2.665-1.654-1.749-1.038-3.033-1.1-4.206-.528l-.157.064-.405.225-.013.007-3.052,1.7.684,1.1a16.133,16.133,0,0,0-.93,2.109c-.527,1.466.573,3.953,2.175,4.9l12.093,7.172.525.312,9.346,5.542c.122,1.12-.741.833-.638,1.621a.364.364,0,0,0,.54.267l3.4-1.9h0C210.376,156.3,211.717,157.2,211.43,155.981Z" transform="translate(-178.065 -109.636)"/><path class="c" d="M207.266,159.185a.744.744,0,0,1-.738-.647c-.1-.745-.277-2.137-.4-3.236l-21.8-12.926c-1.775-1.053-2.933-3.708-2.338-5.362a16.175,16.175,0,0,1,.85-1.964l-.782-1.259,4.018-2.21c1.345-.658,2.8-.484,4.546.554.457.27,1.006.617,1.517.939.233.146.457.288.661.416l.246-1.644a14.156,14.156,0,0,1-2.089-5.233l-1.423-8.912c-.031-.158-.058-.29-.081-.483l-.054-.364a9.646,9.646,0,0,1-.056-1.366,8.57,8.57,0,0,1,.063-.946l-1.774-1.339.379-.776,3.6-1.986a3.747,3.747,0,0,1,.47-.259l.329-.134c1.419-.6,3.094-.326,5.089.857a17.085,17.085,0,0,1,7.561,13.458,8.914,8.914,0,0,1-.085,1.12l.019.012-.085.412c-.031.175-.074.359-.121.539l-1.581,7.017a3.1,3.1,0,0,1-1.443,2.047l-.082.061c-.221.142-.422.259-.613.361l.245,2.538,2.5,1.486c4.456,2.643,6.819,9.27,8.015,14.364h0c.312,1.327.009,2.429-.788,2.877l-3.4,1.9A.757.757,0,0,1,207.266,159.185ZM183.13,134.07l.59.952-.105.195a15.581,15.581,0,0,0-.907,2.058c-.469,1.3.564,3.588,2.009,4.445l22.128,13.122.021.189c.121,1.118.317,2.624.42,3.409l3.377-1.911c.48-.268.645-1.067.418-2.035h0c-.951-4.052-3.213-11.244-7.661-13.882l-2.829-1.684-.333-3.442.235-.117a7.019,7.019,0,0,0,.722-.409l.113-.077a2.34,2.34,0,0,0,1.134-1.583l1.584-7.036c.046-.174.085-.338.116-.51l.022-.138a8.223,8.223,0,0,0,.113-1.261,16.233,16.233,0,0,0-7.187-12.792c-1.77-1.05-3.223-1.31-4.431-.8l-.253.1a3.487,3.487,0,0,0-.422.232l-3.4,1.881,1.624,1.224-.032.222a8.545,8.545,0,0,0-.084,1.075,8.834,8.834,0,0,0,.045,1.227l.018.065.04.338c.022.167.045.285.073.425l.043.217,1.386,8.73a13.327,13.327,0,0,0,2.049,5.043l.084.123-.459,3.07-.488-.289c-.3-.18-.721-.443-1.166-.724-.505-.319-1.047-.661-1.5-.928-1.528-.908-2.716-1.065-3.844-.514l-.178.074Z" transform="translate(-178.084 -109.739)"/><path class="e" d="M207.872,156.372c-1.057-4.5-3.36-11.466-7.838-14.123-.859-.509-2.007-1.2-2.663-1.585l-.288-2.987a3.528,3.528,0,0,0,2.17-2.335l.357-1.559,1.227-5.47c.044-.171.085-.345.119-.527l.031-.139-.008-.005a8.72,8.72,0,0,0,.119-1.318,16.638,16.638,0,0,0-7.375-13.124c-4.129-2.449-7.521-.543-7.577,4.258a9.483,9.483,0,0,0,.046,1.275l.026.109.034.295c.033.26.069.4.119.667l1.384,8.719h0a13.77,13.77,0,0,0,2.11,5.2l-.352,2.361c-.652-.385-1.818-1.15-2.665-1.652-4.49-2.663-6.929,1.489-8.079,4.681-.528,1.465.573,3.953,2.175,4.9l12.093,7.172.525.312,12.053,7.147C207.215,159.593,208.358,158.438,207.872,156.372Z" transform="translate(-178.252 -109.613)"/><path class="b" d="M201.31,144.834c-.859-.508-2.007-1.2-2.663-1.585l-.183-1.891-1.164-.694-.288-2.987a3.529,3.529,0,0,0,2.17-2.333l.357-1.56,1.227-5.47c.045-.171.085-.344.119-.526l.031-.139-.008-.005a8.726,8.726,0,0,0,.119-1.318,14.26,14.26,0,0,0-1.213-5.6A14.947,14.947,0,0,0,195,115.785c-4.129-2.449-7.521-.543-7.577,4.258a9.478,9.478,0,0,0,.046,1.275l.026.109.034.295c.033.26.069.4.119.667l1.384,8.72h0a11.746,11.746,0,0,0,.729,2.559c.012.018.022.037.035.055l0,.023a13.9,13.9,0,0,0,1.351,2.561l-.353,2.362c-.652-.386-1.818-1.15-2.665-1.654-4.49-2.663-6.929,1.49-8.079,4.682a3,3,0,0,0-.053,1.595,4.047,4.047,0,0,0,.88.723l12.093,7.171.525.312,12.053,7.148c1.6.949,2.744-.206,2.259-2.272a40.021,40.021,0,0,0-2.36-7.149A12.583,12.583,0,0,0,201.31,144.834Z" transform="translate(-178.185 -109.477)"/><path class="c" d="M206.7,159.381a2.52,2.52,0,0,1-1.264-.388l-24.672-14.63c-1.776-1.054-2.933-3.709-2.338-5.362.753-2.088,2.117-4.746,4.341-5.544a4.95,4.95,0,0,1,4.292.663c.455.27,1,.615,1.509.936.235.148.461.292.668.42l.245-1.644A14.172,14.172,0,0,1,187.4,128.6l-1.422-8.912c-.032-.158-.058-.291-.082-.483l-.053-.361a9.687,9.687,0,0,1-.057-1.369c.029-2.464.9-4.3,2.457-5.176s3.578-.663,5.7.594a17.082,17.082,0,0,1,7.561,13.458,8.655,8.655,0,0,1-.085,1.12l.016.011-.08.411c-.032.177-.075.361-.122.541l-1.581,7.017a3.682,3.682,0,0,1-2.138,2.47l.245,2.537,2.5,1.486c4.456,2.644,6.818,9.271,8.015,14.364h0a2.606,2.606,0,0,1-.63,2.781A1.551,1.551,0,0,1,206.7,159.381Zm-22.557-25.4a3.289,3.289,0,0,0-1.118.193c-1.944.7-3.183,3.151-3.881,5.085-.469,1.3.563,3.588,2.01,4.445l24.671,14.63a1.219,1.219,0,0,0,1.353.135,1.941,1.941,0,0,0,.339-1.99h0c-.952-4.052-3.212-11.243-7.66-13.882l-2.83-1.685-.332-3.44.235-.118a3.145,3.145,0,0,0,1.967-2.069l1.585-7.036c.045-.174.084-.338.115-.51l.021-.138a8.3,8.3,0,0,0,.115-1.261,16.234,16.234,0,0,0-7.188-12.792c-1.876-1.113-3.626-1.318-4.934-.585s-2.042,2.34-2.066,4.519a9.138,9.138,0,0,0,.043,1.227l.018.062.042.341c.022.167.045.285.073.425l.043.217,1.384,8.73a13.366,13.366,0,0,0,2.05,5.043l.085.123-.46,3.07-.488-.289c-.306-.181-.725-.446-1.173-.728-.5-.318-1.043-.658-1.491-.924A5,5,0,0,0,184.145,133.982Z" transform="translate(-178.271 -109.632)"/><path class="c" d="M200.268,125.491l3.648-2.336.144.948-1.95,8.841-1.208,1.476-.907.531.294,3.052-3.828,2.138-.294-3.052,2.043-1.219.41-2.193,1.648-8.184Z" transform="translate(-177.331 -109.034)"/><path class="c" d="M205.462,151.848l3.995-2.234.866,3.115-.053,1.083-.709,1.1-3.468,1.679.244-1.629-.407-2.438Z" transform="translate(-176.842 -107.644)"/></g></g></svg>