<svg xmlns="http://www.w3.org/2000/svg" width="198.669" height="158.909" viewBox="0 0 198.669 158.909"><defs><style>.a,.f{fill:#eaeaea;}.b{fill:#fff;}.c{fill:#f9e8cc;}.d{fill:#212c33;}.e{fill:#f3c054;}.f{mix-blend-mode:multiply;isolation:isolate;}.g{fill:#499dd1;}.h{fill:#0d1755;}.i{fill:#0d1754;}</style></defs><g transform="translate(-40.127 -57.686)"><g transform="translate(40.459 80.244)"><path class="a" d="M146.392,94.614c-.216-.975-9.718-9.719-9.718-9.719l-21.489-4.86L93.942,87.811l-3.377,6.328,3.672,6.092.056.024c.8-2.7,3-5.284,6.61-7.37,9.278-5.358,24.326-5.358,33.606,0,3.87,2.235,6.12,5.048,6.762,7.958l1.99.467S146.607,95.585,146.392,94.614Z" transform="translate(-37.921 -79.119)"/><path class="a" d="M93.941,87.663l-3.377,6.328,3.672,6.092.056.024c.8-2.7,3-5.284,6.61-7.373,7.323-4.228,18.229-5.1,27.067-2.659a33.686,33.686,0,0,0-8.4-9.2l-4.386-.992Z" transform="translate(-37.921 -79.126)"/><path class="a" d="M143.43,101.682l-2.407-.565-.043-.193c-.651-2.949-2.938-5.633-6.613-7.755-9.179-5.3-24.113-5.3-33.292,0-3.42,1.975-5.653,4.46-6.466,7.189l-.1.339-.416-.181-.108-.11-3.762-6.244,3.516-6.589,21.443-7.849.09.021,21.57,4.878.061.057c2.246,2.067,9.592,8.89,9.813,9.881h0c.225,1.014-2.367,5.554-3.167,6.921Zm-1.884-1.085,1.574.369c1.536-2.652,3.086-5.74,2.98-6.267-.246-.737-5.969-6.192-9.563-9.5L115.22,80.375l-21.041,7.7-3.236,6.062,3.27,5.427c.989-2.642,3.24-5.032,6.549-6.943,9.352-5.4,24.568-5.4,33.917,0C138.433,94.793,140.8,97.545,141.546,100.6Z" transform="translate(-37.938 -79.134)"/><path class="a" d="M145.623,97.865l-4.367,4.192-4.879,5.718-14.182,3.5-10.15.647-15.55-5.543L94.282,102.6,90.1,96.388l-2.234-.46v5.856c0,4.429,2.926,8.858,8.78,12.238,11.707,6.759,30.687,6.759,42.4,0,5.853-3.38,8.78-7.809,8.78-12.238V95.928Z" transform="translate(-38.057 -78.319)"/><path class="a" d="M144.9,97.679l-4.367,4.192-4.876,5.718-14.183,3.5-.85.055q-.476.3-.979.594a41.272,41.272,0,0,1-17.31,4.92c11.437,3.749,26.23,2.813,35.981-2.817,5.853-3.38,8.78-7.809,8.78-12.238V95.742Z" transform="translate(-37.329 -78.328)"/><path class="a" d="M117.854,119.426c-7.734,0-15.465-1.7-21.353-5.1-5.763-3.326-8.937-7.769-8.937-12.508V95.576l2.737.563,4.254,6.324,2.168,3.687,15.382,5.483,10.085-.644,14.029-3.463,4.814-5.641,4.4-4.224,2.715-2.4v6.551c0,4.739-3.174,9.182-8.937,12.508C133.323,117.725,125.587,119.425,117.854,119.426ZM88.191,96.346v5.469c0,4.506,3.063,8.756,8.624,11.966,11.6,6.7,30.476,6.7,42.079,0,5.561-3.211,8.624-7.46,8.624-11.966V96.654l-1.668,1.475-4.362,4.189-4.923,5.772-14.28,3.52-10.271.661-.061-.021L96.3,106.666,94.022,102.8l-4.1-6.1Z" transform="translate(-38.072 -78.352)"/><path class="a" d="M139.037,84.519c-11.707-6.759-30.687-6.759-42.4,0s-11.707,17.718,0,24.477,30.687,6.759,42.4,0S150.744,91.278,139.037,84.519Zm-4.395,21.939c-9.278,5.358-24.326,5.358-33.605,0s-9.279-14.044,0-19.4,24.326-5.359,33.606,0S143.923,101.1,134.643,106.458Z" transform="translate(-38.057 -79.148)"/><path class="a" d="M139.034,86.591c-11.707-6.759-30.687-6.759-42.4,0-5.407,3.123-8.313,7.143-8.725,11.231.411,4.088,3.315,8.111,8.725,11.231,11.707,6.759,30.688,6.759,42.4,0,5.407-3.123,8.313-7.142,8.725-11.23C147.348,93.734,144.444,89.713,139.034,86.591ZM134.64,108.53c-9.278,5.358-24.327,5.358-33.606,0-5.084-2.936-7.373-6.869-6.889-10.708-.486-3.839,1.806-7.772,6.89-10.708,9.278-5.358,24.326-5.359,33.605,0,5.085,2.935,7.376,6.869,6.89,10.708.486,3.838-1.807,7.772-6.89,10.708Z" transform="translate(-38.054 -79.044)"/><path class="a" d="M117.854,114.38c-7.732,0-15.466-1.7-21.353-5.1-5.763-3.327-8.937-7.769-8.937-12.509s3.174-9.183,8.937-12.51c11.775-6.8,30.934-6.8,42.707,0h0c5.763,3.327,8.937,7.77,8.937,12.51s-3.174,9.182-8.937,12.509C133.323,112.681,125.588,114.38,117.854,114.38Zm0-34.6c-7.619,0-15.238,1.675-21.039,5.024-5.561,3.211-8.624,7.46-8.624,11.966s3.063,8.757,8.624,11.966c11.6,6.7,30.479,6.7,42.079,0,5.561-3.21,8.624-7.46,8.624-11.966s-3.063-8.756-8.624-11.966h0C133.095,81.455,125.474,79.782,117.854,79.782Zm0,31.013c-6.144,0-12.284-1.352-16.959-4.05-4.589-2.65-7.116-6.192-7.116-9.973s2.527-7.323,7.116-9.973c9.352-5.4,24.568-5.4,33.917,0,4.59,2.65,7.117,6.192,7.117,9.973s-2.527,7.323-7.117,9.973h0c-4.674,2.7-10.816,4.05-16.959,4.05Zm0-27.427c-6.029,0-12.056,1.324-16.646,3.974-4.387,2.533-6.8,5.882-6.8,9.43s2.417,6.9,6.8,9.43c9.179,5.3,24.113,5.3,33.292,0h0c4.387-2.532,6.8-5.881,6.8-9.429s-2.416-6.9-6.8-9.43c-4.589-2.65-10.618-3.975-16.647-3.975Z" transform="translate(-38.072 -79.163)"/><path class="a" d="M96.885,110.621a4.018,4.018,0,0,0-1.092-1.953c-.693-.686-1.337-.86-1.8-.689l-.229.113-4.014,2.2a.092.092,0,0,0-.036.123l2.447,4.332a.091.091,0,0,0,.123.035l4.116-2.262C96.873,112.279,97.112,111.612,96.885,110.621Z" transform="translate(-37.964 -77.716)"/><path class="a" d="M96.471,111.928a4.027,4.027,0,0,0-1.093-1.954c-.692-.685-1.336-.86-1.8-.688l-.228.113-3.242,1.778,1.954,3.458a.09.09,0,0,0,.123.036h0l4.116-2.263a.909.909,0,0,0,.228-.176C96.513,112.133,96.5,112.034,96.471,111.928Z" transform="translate(-37.944 -77.65)"/><path class="a" d="M96.731,111.044l-4.116,2.263a.091.091,0,0,1-.123-.035h0l-1.971-3.491-.774.424a.091.091,0,0,0-.035.123l2.446,4.332a.091.091,0,0,0,.123.035l4.117-2.262c.417-.216.651-.756.549-1.554A.854.854,0,0,1,96.731,111.044Z" transform="translate(-37.964 -77.622)"/><path class="a" d="M92.256,115.127a.415.415,0,0,1-.357-.207l-2.446-4.332a.4.4,0,0,1-.038-.307.4.4,0,0,1,.193-.246l4.255-2.323a2.106,2.106,0,0,1,2.163.747,4.32,4.32,0,0,1,1.178,2.106h0c.246,1.073,0,1.914-.65,2.252l-4.107,2.259A.418.418,0,0,1,92.256,115.127Zm-2.144-4.651,2.228,3.945,3.922-2.157c.383-.2.508-.794.333-1.558a3.734,3.734,0,0,0-1.007-1.8c-.543-.537-1.078-.763-1.475-.618l-.2.1Z" transform="translate(-37.98 -77.73)"/><path class="a" d="M94.888,112.315a5.79,5.79,0,0,0-1.573-2.814c-1-.986-1.926-1.239-2.6-.992l-.33.164-5.782,3.172a.132.132,0,0,0-.05.18h0l3.524,6.24a.132.132,0,0,0,.179.05l5.927-3.26C94.869,114.7,95.212,113.741,94.888,112.315Z" transform="translate(-38.224 -77.69)"/><path class="a" d="M94.317,114.261a5.794,5.794,0,0,0-1.574-2.813c-1-.987-1.926-1.239-2.6-.992l-.33.163-4.655,2.555,2.8,4.959a.132.132,0,0,0,.179.05l5.926-3.26a1.292,1.292,0,0,0,.324-.246C94.37,114.539,94.349,114.4,94.317,114.261Z" transform="translate(-38.193 -77.592)"/><path class="a" d="M95.064,112.131a5.716,5.716,0,0,0-.591-1.524,1.888,1.888,0,0,1-.817,1.9l-5.926,3.26a.131.131,0,0,1-.179-.05h0l-2.4-4.253-.369.2a.131.131,0,0,0-.051.177v0l3.524,6.24a.13.13,0,0,0,.178.049l5.927-3.259C95.047,114.521,95.391,113.559,95.064,112.131Z" transform="translate(-38.215 -77.58)"/><path class="a" d="M88.21,118.66a.446.446,0,0,1-.389-.226l-3.525-6.24a.445.445,0,0,1,.17-.606l0,0,6.122-3.342c.886-.329,1.953.061,2.957,1.05a6.07,6.07,0,0,1,1.658,2.966h0c.338,1.48.016,2.635-.863,3.089l-5.92,3.256A.425.425,0,0,1,88.21,118.66Zm-3.276-6.614,3.345,5.923,5.768-3.174c.607-.313.814-1.229.547-2.4h0a5.439,5.439,0,0,0-1.488-2.66c-.822-.814-1.649-1.149-2.267-.922l-.3.15Z" transform="translate(-38.239 -77.705)"/><path class="a" d="M89.691,116.444a5.819,5.819,0,0,0-2.633-4.561,1.844,1.844,0,0,0-1.867-.181L72.237,116.8a.093.093,0,0,0-.053.12l.005.013,5.685,10.082a.093.093,0,0,0,.126.036l.014-.009,10.853-8.87A1.809,1.809,0,0,0,89.691,116.444Z" transform="translate(-38.846 -77.534)"/><path class="a" d="M85.637,114.382a1.844,1.844,0,0,0-1.867-.181l-10.638,4.182,4.689,8.316a.094.094,0,0,0,.127.035l.013-.008,10.261-8.385A5.9,5.9,0,0,0,85.637,114.382Z" transform="translate(-38.798 -77.408)"/><path class="a" d="M75.7,123.228h0l2,3.548a.093.093,0,0,0,.126.035l.014-.009,10.853-8.869a1.81,1.81,0,0,0,.823-1.724,4.652,4.652,0,0,0-.26-1.447Z" transform="translate(-38.669 -77.371)"/><path class="a" d="M77.971,127.387a.405.405,0,0,1-.354-.208L71.931,117.1a.409.409,0,0,1,.208-.579l12.952-5.092a2.124,2.124,0,0,1,2.138.2,6.172,6.172,0,0,1,2.791,4.832,2.146,2.146,0,0,1-.962,1.986l-10.83,8.848A.409.409,0,0,1,77.971,127.387ZM72.6,117.011l5.432,9.631,10.7-8.737a1.52,1.52,0,0,0,.654-1.446,5.482,5.482,0,0,0-2.477-4.29,1.556,1.556,0,0,0-1.551-.181Z" transform="translate(-38.861 -77.549)"/><path class="a" d="M79.723,122.762a9.242,9.242,0,0,0-2.9-4.867c-1.656-1.452-3.19-1.687-4.188-1.028L50.4,131.589a.368.368,0,0,0-.123.48l3.577,6.8a.37.37,0,0,0,.492.16l24.182-11.852C79.668,126.641,80.258,125.1,79.723,122.762Z" transform="translate(-39.95 -77.283)"/><path class="a" d="M79.515,125.764c-.018-.088-.025-.169-.046-.258a9.237,9.237,0,0,0-2.9-4.867c-1.658-1.452-3.189-1.687-4.188-1.028L51.13,133.68l2.62,4.973a.369.369,0,0,0,.492.16l24.183-11.852A2.258,2.258,0,0,0,79.515,125.764Z" transform="translate(-39.905 -77.145)"/><path class="a" d="M79.484,121.456c-.062.038-.319-.013-.5.1l-26.07,15.08.983,1.869a.368.368,0,0,0,.492.16l24.182-11.851c1.142-.535,1.732-2.076,1.2-4.411A9,9,0,0,0,79.484,121.456Z" transform="translate(-39.816 -77.034)"/><path class="a" d="M54.194,139.392a.678.678,0,0,1-.6-.369l-3.578-6.795a.68.68,0,0,1,.227-.888l22.235-14.723c1.2-.794,2.908-.4,4.568,1.055a9.578,9.578,0,0,1,3,5.033h0c.534,2.335.022,4.116-1.369,4.765L54.5,139.32A.672.672,0,0,1,54.194,139.392Zm19.668-22.549a1.857,1.857,0,0,0-1.041.3L50.587,131.864a.055.055,0,0,0-.019.072l3.578,6.8a.054.054,0,0,0,.071.025h0L78.4,126.905c1.106-.52,1.491-2.035,1.028-4.059h0a8.949,8.949,0,0,0-2.8-4.7,4.469,4.469,0,0,0-2.768-1.3Z" transform="translate(-39.966 -77.298)"/><path class="a" d="M55.2,136.426c0,1.895-1.33,2.663-2.97,1.715A6.569,6.569,0,0,1,49.261,133c0-1.895,1.331-2.663,2.971-1.715A6.568,6.568,0,0,1,55.2,136.426Z" transform="translate(-39.999 -76.56)"/><path class="a" d="M53.575,138.877a3,3,0,0,1-1.483-.451,6.922,6.922,0,0,1-3.128-5.417,2.116,2.116,0,0,1,3.441-1.986,6.925,6.925,0,0,1,3.128,5.417,2.384,2.384,0,0,1-1.027,2.2A1.84,1.84,0,0,1,53.575,138.877ZM50.923,131.2a1.227,1.227,0,0,0-.619.158,1.8,1.8,0,0,0-.713,1.651,6.232,6.232,0,0,0,2.814,4.875,1.507,1.507,0,0,0,2.5-1.444,6.231,6.231,0,0,0-2.813-4.875A2.4,2.4,0,0,0,50.923,131.2Z" transform="translate(-40.016 -76.578)"/><path class="a" d="M53.241,135.513a4.448,4.448,0,0,0-1.1-1.841c-.922-.964-1.81-1.194-2.387-.881l-.246.142-6.97,3.923a.165.165,0,0,0-.062.226v0l2.949,4.944a.164.164,0,0,0,.226.058l6.866-3.86.255-.149h0l.085-.061C53.437,137.678,53.612,136.794,53.241,135.513Z" transform="translate(-40.342 -76.471)"/><path class="a" d="M51.915,138.061Z" transform="translate(-39.87 -76.199)"/><path class="a" d="M52.786,137.237a4.447,4.447,0,0,0-1.1-1.84c-.921-.964-1.809-1.2-2.386-.881l-.246.141-6.132,3.451,2.352,3.941a.167.167,0,0,0,.227.061l6.865-3.86.255-.149h0l.084-.061a.957.957,0,0,0,.216-.179A5.087,5.087,0,0,0,52.786,137.237Z" transform="translate(-40.319 -76.384)"/><path class="a" d="M52.07,137.931Z" transform="translate(-39.862 -76.205)"/><path class="a" d="M53.256,135.325a1,1,0,0,1-.337.336l-.086.061h0l-.256.15h0l-6.865,3.859a.165.165,0,0,1-.226-.058l-2.067-3.462-.854.481a.166.166,0,0,0-.063.226v0l2.949,4.944a.167.167,0,0,0,.227.062l6.864-3.859.256-.15h0l.084-.062c.571-.335.747-1.22.376-2.5A.027.027,0,0,0,53.256,135.325Z" transform="translate(-40.341 -76.336)"/><path class="a" d="M45.592,142.435a.486.486,0,0,1-.415-.234l-2.949-4.945a.48.48,0,0,1,.165-.656l.005,0,7.217-4.066c.777-.421,1.811-.067,2.771.938a4.712,4.712,0,0,1,1.176,1.97h0c.4,1.387.212,2.429-.518,2.859l-.672.4,0,0-6.545,3.678A.463.463,0,0,1,45.592,142.435Zm-2.75-5.37,2.8,4.691,7.061-3.986c.477-.281.564-1.083.253-2.157a4.112,4.112,0,0,0-1.027-1.71c-.743-.777-1.512-1.093-2.011-.823l-.238.138Z" transform="translate(-40.357 -76.486)"/><ellipse class="a" cx="1.759" cy="3.048" rx="1.759" ry="3.048" transform="translate(0.546 61.335) rotate(-30)"/><path class="a" d="M44.949,142.484a2.275,2.275,0,0,1-1.12-.339,5.036,5.036,0,0,1-2.312-4,1.619,1.619,0,0,1,2.626-1.516,5.043,5.043,0,0,1,2.312,4,1.811,1.811,0,0,1-.788,1.667A1.422,1.422,0,0,1,44.949,142.484Zm-1.924-5.568a.8.8,0,0,0-.405.1,1.223,1.223,0,0,0-.475,1.123,4.424,4.424,0,0,0,2,3.461,1.01,1.01,0,0,0,1.684-.973,4.422,4.422,0,0,0-2-3.461,1.66,1.66,0,0,0-.808-.255Z" transform="translate(-40.39 -76.289)"/><path class="a" d="M44.777,139.708a3.064,3.064,0,0,0-.726-1.26c-.614-.643-1.2-.8-1.59-.588l-.164.095-1.06.609a.11.11,0,0,0-.04.15v0l1.966,3.292a.11.11,0,0,0,.15.039l.992-.567.17-.1h0l.056-.039C44.915,141.117,45.027,140.565,44.777,139.708Z" transform="translate(-40.406 -76.213)"/><path class="a" d="M44.552,141.173l.057-.039c.38-.224.492-.777.246-1.631-.025-.087-.061-.172-.091-.257-.526-.451-1.018-.544-1.352-.362l-.164.095-1.06.609a.11.11,0,0,0-.04.15h0l1.252,2.1.983-.561.173-.1Z" transform="translate(-40.358 -76.162)"/><path class="a" d="M44.274,141.155h0C44.226,141.183,44.2,141.2,44.274,141.155Z" transform="translate(-40.253 -76.043)"/><path class="a" d="M44.2,141.24Z" transform="translate(-40.257 -76.039)"/><path class="a" d="M44.814,139.619c-.024-.079-.055-.156-.084-.234a.732.732,0,0,1-.316.463l-.057.04h0l-.171.1h0l-.989.566a.109.109,0,0,1-.15-.038h0l-1.36-2.279-.41.235a.111.111,0,0,0-.04.151h0l1.966,3.293a.112.112,0,0,0,.151.039l.989-.567.171-.1h0l.057-.039C44.952,141.028,45.06,140.474,44.814,139.619Z" transform="translate(-40.404 -76.19)"/><path class="a" d="M43.276,142.391a.425.425,0,0,1-.369-.208l-1.966-3.293a.423.423,0,0,1,.146-.58l0,0,1.229-.7c.563-.308,1.3-.062,1.973.642a3.37,3.37,0,0,1,.8,1.392h0c.379,1.31-.078,1.808-.384,1.987l-.038.027a.9.9,0,0,1-.279.163l-.906.519A.417.417,0,0,1,43.276,142.391Zm-1.687-3.645,1.757,2.944,1.025-.594c.274-.163.31-.626.123-1.286a2.745,2.745,0,0,0-.651-1.131c-.454-.475-.931-.681-1.214-.528Z" transform="translate(-40.421 -76.228)"/><path class="a" d="M43.626,141.16c0,.916-.643,1.287-1.436.829a3.173,3.173,0,0,1-1.435-2.485c0-.915.643-1.287,1.435-.829A3.172,3.172,0,0,1,43.626,141.16Z" transform="translate(-40.428 -76.178)"/><path class="a" d="M42.847,142.517a1.614,1.614,0,0,1-.8-.239,3.468,3.468,0,0,1-1.592-2.757,1.181,1.181,0,0,1,1.9-1.1,3.47,3.47,0,0,1,1.592,2.756,1.305,1.305,0,0,1-.578,1.2A1.045,1.045,0,0,1,42.847,142.517Zm-1.282-3.708a.433.433,0,0,0-.216.054.73.73,0,0,0-.264.658,2.874,2.874,0,0,0,1.278,2.212.573.573,0,0,0,.964-.558,2.873,2.873,0,0,0-1.278-2.212,1.012,1.012,0,0,0-.484-.153Z" transform="translate(-40.443 -76.194)"/><path class="a" d="M78.117,126.082l-.409-.213a5.014,5.014,0,0,0,.169-3.959l.423-.184A5.415,5.415,0,0,1,78.117,126.082Z" transform="translate(-38.568 -77.021)"/><path class="a" d="M88.7,117.68l-.184-.123a.276.276,0,0,1-.062-.333,3.331,3.331,0,0,0,.026-1.975l.442-.129a4.356,4.356,0,0,1,.111,1.811l1-.614.243.393Z" transform="translate(-38.028 -77.353)"/><path class="a" d="M94.748,113.33l-.457-.061a6.223,6.223,0,0,0,0-1.028l.459-.038A6.511,6.511,0,0,1,94.748,113.33Z" transform="translate(-37.733 -77.5)"/></g><g transform="translate(43.782 104.797)"><path class="b" d="M196.817,98.544,80.729,165.294l54.239,31.314.467,3.476,6.252,4.959a7.229,7.229,0,0,0,6.817-.619l116.084-66.753Z" transform="translate(-70.647 -97.923)"/><path class="a" d="M196.955,102.444,78.472,170.56a.938.938,0,0,0,0,1.625l63.349,36.761a7.229,7.229,0,0,0,6.817-.619l116.086-66.757Z" transform="translate(-70.784 -97.727)"/><path class="c" d="M134.8,196.373l.467,3.476,6.25,4.959a7.231,7.231,0,0,0,6.818-.619l112.535-64.709L196.652,102.4,84.113,167.113Z" transform="translate(-70.477 -97.729)"/><path class="d" d="M144.407,206.174a6.554,6.554,0,0,1-2.93-.63l-6.5-5.147-.462-3.427L79.706,165.324,196.871,97.953l.267.155L265.713,137.7l-116.9,67.221A8.745,8.745,0,0,1,144.407,206.174Zm-8.423-6.347,6.08,4.825a6.762,6.762,0,0,0,6.217-.663L263.564,137.7l-66.7-38.506L81.855,165.324l53.655,30.985Z" transform="translate(-70.698 -97.953)"/><path class="b" d="M226.972,151.366l-.21.123a3.432,3.432,0,0,1-3.089-.128l-45.689-26.378c-.914-.525-1.014-1.327-.222-1.786l.21-.123a3.432,3.432,0,0,1,3.089.128l45.689,26.378C227.665,150.112,227.764,150.91,226.972,151.366Z" transform="translate(-65.791 -96.704)"/><path class="d" d="M225.44,150.731a4.1,4.1,0,0,1-2.011-.507l-45.689-26.378a1.784,1.784,0,0,1-1.024-1.47,1.432,1.432,0,0,1,.8-1.238l.21-.124a3.977,3.977,0,0,1,3.625.127l45.689,26.379a1.788,1.788,0,0,1,1.024,1.47,1.451,1.451,0,0,1-.8,1.237l-.21.124A3.276,3.276,0,0,1,225.44,150.731ZM179.33,121.705a2.193,2.193,0,0,0-1.066.234l-.21.123c-.08.047-.266.17-.266.315,0,.121.127.336.487.545L223.965,149.3a2.943,2.943,0,0,0,2.552.127l.21-.124c.081-.046.266-.168.266-.309,0-.122-.127-.337-.487-.545l-45.689-26.379a3.1,3.1,0,0,0-1.483-.366Z" transform="translate(-65.817 -96.811)"/><path class="b" d="M232.71,148.055l-.21.123a3.432,3.432,0,0,1-3.089-.128l-45.689-26.378c-.914-.525-1.014-1.327-.222-1.786l.21-.123a3.43,3.43,0,0,1,3.088.128l45.689,26.378C233.4,146.8,233.5,147.6,232.71,148.055Z" transform="translate(-65.502 -96.871)"/><path class="d" d="M231.178,147.418a4.1,4.1,0,0,1-2.011-.506l-45.689-26.379a1.784,1.784,0,0,1-1.024-1.47,1.433,1.433,0,0,1,.8-1.238l.21-.124a3.965,3.965,0,0,1,3.625.128l45.689,26.378a1.788,1.788,0,0,1,1.024,1.47,1.456,1.456,0,0,1-.8,1.238l-.21.123A3.282,3.282,0,0,1,231.178,147.418Zm-46.109-29.027a2.194,2.194,0,0,0-1.066.235l-.21.123c-.079.047-.266.17-.266.315,0,.121.128.336.488.545L229.7,145.987a2.946,2.946,0,0,0,2.552.127l.21-.124c.08-.046.266-.168.266-.309,0-.122-.128-.337-.488-.545l-45.689-26.379a3.08,3.08,0,0,0-1.482-.367Z" transform="translate(-65.528 -96.978)"/><path class="b" d="M238.452,144.742l-.21.123a3.43,3.43,0,0,1-3.088-.128l-45.689-26.378c-.914-.525-1.013-1.327-.222-1.786l.21-.123a3.43,3.43,0,0,1,3.088.128l45.689,26.378C239.141,143.486,239.24,144.285,238.452,144.742Z" transform="translate(-65.213 -97.038)"/><path class="d" d="M236.915,144.1a4.1,4.1,0,0,1-2.01-.506L189.218,117.22a1.784,1.784,0,0,1-1.024-1.47,1.453,1.453,0,0,1,.8-1.239l.21-.123a3.963,3.963,0,0,1,3.624.128l45.689,26.378a1.788,1.788,0,0,1,1.024,1.47,1.438,1.438,0,0,1-.8,1.24l-.21.123A3.281,3.281,0,0,1,236.915,144.1Zm-46.109-29.026a2.194,2.194,0,0,0-1.066.235l-.21.122c-.081.047-.267.17-.267.315,0,.122.127.336.487.545l45.689,26.378a2.943,2.943,0,0,0,2.552.127l.21-.123c.08-.047.267-.169.267-.315,0-.121-.127-.336-.487-.544l-45.689-26.379a3.092,3.092,0,0,0-1.482-.361Z" transform="translate(-65.239 -97.145)"/><path class="b" d="M206.748,163.4l-.21.123a3.432,3.432,0,0,1-3.089-.128l-55.043-31.779c-.914-.525-1.013-1.327-.222-1.786l.21-.123a3.424,3.424,0,0,1,3.088.128l55.043,31.779C207.44,162.139,207.538,162.937,206.748,163.4Z" transform="translate(-67.279 -96.371)"/><path class="d" d="M205.216,162.758a4.122,4.122,0,0,1-2.013-.507l-55.037-31.779a1.784,1.784,0,0,1-1.024-1.47,1.433,1.433,0,0,1,.8-1.239l.21-.124a3.969,3.969,0,0,1,3.624.129l55.042,31.775a1.788,1.788,0,0,1,1.024,1.47,1.435,1.435,0,0,1-.8,1.239l-.21.123A3.278,3.278,0,0,1,205.216,162.758Zm-55.463-34.426a2.185,2.185,0,0,0-1.064.234l-.21.123c-.08.047-.267.169-.267.315,0,.122.127.336.487.544l55.043,31.779a2.939,2.939,0,0,0,2.552.128l.21-.123c.08-.046.266-.169.266-.315,0-.12-.128-.336-.488-.544l-55.037-31.779a3.093,3.093,0,0,0-1.493-.362Z" transform="translate(-67.305 -96.478)"/><path class="b" d="M212.485,160.082l-.21.123a3.432,3.432,0,0,1-3.089-.128L154.149,128.3c-.915-.525-1.014-1.327-.222-1.786l.21-.123a3.43,3.43,0,0,1,3.088.128L212.269,158.3C213.177,158.826,213.277,159.624,212.485,160.082Z" transform="translate(-66.99 -96.537)"/><path class="d" d="M210.952,159.445a4.118,4.118,0,0,1-2.012-.507L153.9,127.159a1.784,1.784,0,0,1-1.024-1.47,1.432,1.432,0,0,1,.8-1.238l.21-.124a3.973,3.973,0,0,1,3.626.129l55.037,31.779a1.78,1.78,0,0,1,1.024,1.47,1.437,1.437,0,0,1-.8,1.239h0l-.21.123A3.257,3.257,0,0,1,210.952,159.445Zm-55.457-34.426a2.189,2.189,0,0,0-1.065.234l-.21.123c-.079.047-.266.169-.266.315,0,.121.128.336.488.544l55.039,31.774a2.94,2.94,0,0,0,2.552.128l.21-.124c.081-.045.266-.168.266-.31,0-.12-.128-.336-.488-.544l-55.043-31.779a3.1,3.1,0,0,0-1.483-.362Z" transform="translate(-67.016 -96.645)"/><path class="b" d="M218.224,156.769l-.21.123a3.43,3.43,0,0,1-3.088-.128l-55.043-31.779c-.914-.525-1.014-1.327-.222-1.786l.21-.123a3.433,3.433,0,0,1,3.089.128L218,154.983C218.917,155.513,219.015,156.312,218.224,156.769Z" transform="translate(-66.702 -96.704)"/><path class="d" d="M216.693,156.13a4.106,4.106,0,0,1-2.012-.506L159.637,123.85a1.784,1.784,0,0,1-1.024-1.47,1.432,1.432,0,0,1,.8-1.238l.21-.124a3.971,3.971,0,0,1,3.625.127l55.043,31.781a1.784,1.784,0,0,1,1.023,1.47,1.435,1.435,0,0,1-.8,1.239l-.21.123A3.264,3.264,0,0,1,216.693,156.13Zm-55.457-34.425a2.193,2.193,0,0,0-1.066.234l-.21.123c-.08.047-.266.17-.266.315,0,.121.127.336.487.545L215.224,154.7a2.941,2.941,0,0,0,2.551.127l.21-.122c.08-.047.266-.17.266-.315,0-.121-.127-.336-.486-.544l-55.048-31.783a3.1,3.1,0,0,0-1.487-.359Z" transform="translate(-66.728 -96.811)"/><path class="b" d="M178.169,166.773l-.21.124a3.439,3.439,0,0,1-3.089-.128L131.191,141.55c-.915-.525-1.014-1.327-.222-1.786l.21-.123a3.429,3.429,0,0,1,3.089.127l43.679,25.218C178.861,165.518,178.961,166.316,178.169,166.773Z" transform="translate(-68.146 -95.871)"/><path class="d" d="M176.637,166.136a4.119,4.119,0,0,1-2.012-.508l-43.68-25.218a1.784,1.784,0,0,1-1.024-1.47,1.434,1.434,0,0,1,.8-1.24l.21-.123a3.968,3.968,0,0,1,3.625.128l43.679,25.218a1.788,1.788,0,0,1,1.024,1.47,1.433,1.433,0,0,1-.8,1.238h0l-.21.123A3.278,3.278,0,0,1,176.637,166.136Zm-44.1-27.866a2.169,2.169,0,0,0-1.063.234l-.21.123c-.08.047-.267.169-.267.315,0,.121.128.336.488.544L175.165,164.7a2.942,2.942,0,0,0,2.553.128l.21-.124c.081-.047.265-.169.265-.31,0-.121-.127-.336-.487-.544l-43.68-25.218A3.08,3.08,0,0,0,132.537,138.27Z" transform="translate(-68.171 -95.978)"/><path class="b" d="M183.907,163.46l-.21.124a3.439,3.439,0,0,1-3.089-.128l-43.679-25.218c-.914-.525-1.014-1.327-.222-1.786l.21-.123a3.429,3.429,0,0,1,3.089.127l43.679,25.218C184.6,162.2,184.694,163,183.907,163.46Z" transform="translate(-67.857 -96.037)"/><path class="d" d="M182.375,162.823a4.118,4.118,0,0,1-2.012-.507L136.684,137.1a1.784,1.784,0,0,1-1.024-1.47,1.434,1.434,0,0,1,.8-1.239l.21-.123a3.968,3.968,0,0,1,3.625.128l43.68,25.218a1.788,1.788,0,0,1,1.024,1.47,1.435,1.435,0,0,1-.8,1.239h0l-.21.122A3.276,3.276,0,0,1,182.375,162.823Zm-44.1-27.866a2.189,2.189,0,0,0-1.065.234l-.21.123c-.08.047-.267.169-.267.315,0,.12.128.336.488.544l43.68,25.218a2.93,2.93,0,0,0,2.551.128l.216-.124c.08-.047.265-.169.265-.31,0-.121-.128-.336-.488-.544L139.766,135.32A3.08,3.08,0,0,0,138.276,134.957Z" transform="translate(-67.883 -96.145)"/><path class="b" d="M201.01,166.708l-.21.123a3.43,3.43,0,0,1-3.088-.128l-55.043-31.779c-.914-.525-1.014-1.327-.222-1.786l.21-.123a3.427,3.427,0,0,1,3.088.127l55.045,31.782C201.7,165.452,201.8,166.25,201.01,166.708Z" transform="translate(-67.568 -96.204)"/><path class="d" d="M199.478,166.07a4.106,4.106,0,0,1-2.012-.506l-55.048-31.779a1.784,1.784,0,0,1-1.024-1.47,1.435,1.435,0,0,1,.8-1.239l.21-.123a3.97,3.97,0,0,1,3.626.128l55.042,31.779a1.785,1.785,0,0,1,1.023,1.47,1.437,1.437,0,0,1-.8,1.239l-.21.123A3.27,3.27,0,0,1,199.478,166.07Zm-55.457-34.425a2.189,2.189,0,0,0-1.065.234l-.21.123c-.079.047-.266.169-.266.315,0,.121.128.336.488.544l55.037,31.779a2.939,2.939,0,0,0,2.552.128l.21-.123c.08-.047.266-.169.266-.315,0-.121-.127-.336-.486-.544L145.5,132.007a3.076,3.076,0,0,0-1.488-.359Z" transform="translate(-67.594 -96.311)"/><path class="b" d="M172.431,170.086l-.21.124a3.437,3.437,0,0,1-3.088-.128l-43.68-25.218c-.914-.525-1.012-1.327-.222-1.786l.21-.124a3.43,3.43,0,0,1,3.088.128l43.68,25.218C173.123,168.831,173.223,169.629,172.431,170.086Z" transform="translate(-68.434 -95.704)"/><path class="d" d="M170.9,169.448a4.119,4.119,0,0,1-2.012-.507l-43.679-25.218a1.778,1.778,0,0,1-1.024-1.47,1.434,1.434,0,0,1,.8-1.239l.21-.123a3.971,3.971,0,0,1,3.625.128l43.68,25.218a1.785,1.785,0,0,1,1.023,1.47,1.433,1.433,0,0,1-.8,1.238h0l-.21.123A3.284,3.284,0,0,1,170.9,169.448Zm-44.1-27.865a2.175,2.175,0,0,0-1.065.234l-.21.123c-.08.046-.267.169-.267.315,0,.12.128.336.488.544l43.679,25.218a2.939,2.939,0,0,0,2.552.128l.21-.124c.081-.047.266-.169.266-.31,0-.122-.128-.336-.487-.544L128.288,141.95a3.074,3.074,0,0,0-1.487-.367Z" transform="translate(-68.46 -95.811)"/><path class="d" d="M166.879,178.219a18.923,18.923,0,0,1-9.243-2.206c-2.57-1.484-3.991-3.489-3.991-5.647s1.416-4.163,3.991-5.648c5.1-2.941,13.394-2.941,18.492,0h0c2.57,1.484,3.985,3.489,3.985,5.648s-1.415,4.162-3.985,5.647A18.913,18.913,0,0,1,166.879,178.219Zm0-14.653a17.8,17.8,0,0,0-8.71,2.08c-2.226,1.285-3.45,2.961-3.45,4.719s1.225,3.434,3.45,4.718c4.8,2.773,12.616,2.774,17.419,0,2.225-1.285,3.449-2.96,3.449-4.718s-1.225-3.435-3.449-4.719h0a17.8,17.8,0,0,0-8.708-2.08Z" transform="translate(-66.978 -94.704)"/><path class="d" d="M166.726,176.3a14.314,14.314,0,0,1-7.006-1.674c-1.971-1.138-3.059-2.684-3.059-4.353s1.087-3.216,3.059-4.354a15.494,15.494,0,0,1,14.01,0c1.974,1.137,3.059,2.684,3.059,4.354s-1.085,3.215-3.059,4.353A14.325,14.325,0,0,1,166.726,176.3Zm0-11a13.231,13.231,0,0,0-6.47,1.545c-1.626.939-2.521,2.156-2.521,3.426s.9,2.486,2.521,3.425a14.326,14.326,0,0,0,12.939,0c1.627-.939,2.521-2.156,2.521-3.425s-.9-2.487-2.521-3.426h0a13.233,13.233,0,0,0-6.469-1.545Z" transform="translate(-66.826 -94.617)"/><rect class="d" width="1.071" height="23.019" transform="translate(48.918 50.867) rotate(-60.001)"/><rect class="d" width="1.071" height="23.019" transform="translate(46.51 52.257) rotate(-60.001)"/><rect class="d" width="1.071" height="2.605" transform="translate(71.519 63.915) rotate(-59.999)"/><rect class="d" width="1.071" height="2.606" transform="translate(69.111 65.305) rotate(-60.004)"/><path class="e" d="M87.1,140.334l-.191-.049c-1.626-.546-3.488-.2-5.722,1.09-5.271,3.046-9.543,10.442-9.543,16.528,0,2.863.954,4.912,2.5,5.976l.724.433,67.268,38.642c-1.657-1.026-2.681-3.127-2.681-6.1,0-6.086,4.273-13.486,9.542-16.529,2.559-1.477,4.877-1.646,6.591-.743v-.006Z" transform="translate(-71.104 -95.835)"/><path class="b" d="M148.88,180l-61.473-35.22-.19-.049c-1.626-.546-3.489-.2-5.723,1.09-4.6,2.655-8.436,8.628-9.339,14.15a5.705,5.705,0,0,0,2.187,3.384l.723.433,64.716,37.176a14.787,14.787,0,0,1,.189-2.043,10.209,10.209,0,0,1-.315-2.59C139.65,190.363,143.756,183.149,148.88,180Z" transform="translate(-71.078 -95.612)"/><path class="d" d="M141.9,203.445,74.63,164.807l-.735-.438c-1.793-1.23-2.764-3.508-2.764-6.436,0-6.246,4.4-13.87,9.811-16.992,2.361-1.365,4.377-1.731,6.161-1.134l.287.093,68.992,39.527-.586.88-.433-.22c-1.62-.854-3.781-.591-6.071.735-5.115,2.954-9.275,10.16-9.275,16.065,0,2.67.862,4.674,2.427,5.643ZM85.389,140.6a7.965,7.965,0,0,0-3.907,1.26c-5.114,2.952-9.274,10.16-9.274,16.065,0,2.564.807,4.529,2.271,5.534l.7.42,64.583,37.1a9.64,9.64,0,0,1-.81-4.1c0-6.246,4.4-13.864,9.81-16.992a9.622,9.622,0,0,1,3.935-1.345L86.92,140.86l-.122-.033a4.381,4.381,0,0,0-1.411-.225Z" transform="translate(-71.13 -95.861)"/></g><path class="f" d="M185.712,109.691l-30.1-16.45a4.4,4.4,0,0,1-.064-7.678l36.135-20.538a3.074,3.074,0,0,1,3-.025l31.833,16.346a6.917,6.917,0,0,1,.1,12.084L200.06,109.572A14.737,14.737,0,0,1,185.712,109.691Z" transform="translate(5.697 0.349)"/><g transform="translate(159.823 57.685)"><g transform="translate(0 20.783)"><path class="g" d="M154.564,86.734h0l.153-8.81h72.647l-.1,8.585c.023.221,0,0-.028.224h0c-.165,1.273-1.166,2.58-2.967,3.62l-27.1,15.663c-3.618,2.091-9.093,2.318-12.227.507L156.654,90.179C155.08,89.27,154.4,88.019,154.564,86.734Z" transform="translate(-154.066 -77.45)"/><path class="b" d="M154.564,86.737h0l.153-8.81h72.647l-.1,8.585c.023.22,0,0-.028.224h0c-.165,1.273-1.166,2.579-2.967,3.619l-27.1,15.663c-3.618,2.091-9.093,2.319-12.227.508L156.654,90.182C155.08,89.273,154.4,88.022,154.564,86.737Z" transform="translate(-154.066 -77.45)"/><path class="d" d="M190.271,108.235a11.307,11.307,0,0,1-5.546-1.276L156.44,90.614a4,4,0,0,1-2.326-3.89l.082-8.556,73.672-.694-.1,9.064a.507.507,0,0,1-.037.308,5.843,5.843,0,0,1-3.2,3.943l-27.106,15.663A14.691,14.691,0,0,1,190.271,108.235ZM155.207,78.421l-.149,8.4a3.059,3.059,0,0,0,1.856,2.973L185.2,106.137c3,1.732,8.268,1.505,11.752-.507l27.1-15.663c1.609-.931,2.581-2.092,2.734-3.271a.971.971,0,0,1,.029-.139l0-.03.09-8.105Z" transform="translate(-154.088 -77.473)"/></g><g transform="translate(0.107)"><path class="b" d="M156.757,82.586l28.285,16.346c3.134,1.811,8.608,1.584,12.227-.507l27.1-15.663c3.618-2.091,4.012-5.255.878-7.066L196.967,59.35c-3.134-1.811-8.608-1.584-12.227.507l-27.1,15.663C154.016,77.612,153.623,80.775,156.757,82.586Z" transform="translate(-154.167 -57.663)"/><path class="e" d="M156.485,85.706l28.285,16.346c3.134,1.811,8.607,1.584,12.227-.507l27.1-15.663c3.618-2.092,4.012-5.255.878-7.066L196.695,62.47c-3.134-1.811-8.608-1.584-12.227.507L157.362,78.64C153.744,80.732,153.351,83.9,156.485,85.706Z" transform="translate(-154.181 -57.506)"/><path class="d" d="M190.374,100.641a11.3,11.3,0,0,1-5.546-1.276L156.543,83.019a4.106,4.106,0,0,1-2.353-3.479c0-1.615,1.176-3.221,3.23-4.408l27.106-15.663c3.744-2.163,9.443-2.389,12.7-.507l28.286,16.346a4.105,4.105,0,0,1,2.353,3.479c0,1.615-1.177,3.221-3.231,4.408l-27.1,15.663A14.7,14.7,0,0,1,190.374,100.641Zm1.307-42.022A13.72,13.72,0,0,0,185,60.291L157.894,75.953c-1.751,1.013-2.756,2.32-2.756,3.587a3.208,3.208,0,0,0,1.879,2.657L185.3,98.543c3,1.733,8.269,1.506,11.752-.507l27.1-15.662c1.752-1.013,2.757-2.32,2.757-3.587a3.211,3.211,0,0,0-1.879-2.657L196.751,59.784A10.32,10.32,0,0,0,191.68,58.619Z" transform="translate(-154.19 -57.686)"/></g><path class="d" d="M188.687,99.158v8.583l4.275-.671,5.377-2.53,25.7-15.182,1.609-1.977V77.924l-1.055,2.736L219.056,83.9,193.041,98.53Z" transform="translate(-152.347 -56.667)"/><path class="d" d="M184.784,97.559v8.627l-3.146-1.455V96.121Z" transform="translate(-152.702 -55.751)"/><path class="d" d="M156.271,81.428v8.167l-1.237-.926-.889-5.589.415-4.7,1.711,3.052Z" transform="translate(-154.086 -56.644)"/><g transform="translate(19.49 11.4)"><path class="b" d="M212,77.629c-3.629-1.053-9.514-2.21-13.2-.086l-1.86,1.07-2.242-.994a2.869,2.869,0,0,0-1.129-2.293h0l-4.371-3.949c-.1-.1-.211-.2-.328-.3L188.78,71l-.007,0a7.193,7.193,0,0,0-.891-.613,13.6,13.6,0,0,0-12.307-.016c-3.4,1.958-3.405,5.138-.008,7.1a8.948,8.948,0,0,0,1.022.5l-.007.005.138.05q.3.121.608.227l6.766,2.513h0a10.767,10.767,0,0,0,3.968.659l1.715,1.3-1.841,1.06c-3.7,2.129-1.72,5.533.091,7.633.831.964,3.045,1.178,4.364.419l9.96-5.734.433-.249,9.928-5.715C214.03,79.39,213.665,78.112,212,77.629Z" transform="translate(-172.626 -68.521)"/><path class="d" d="M175.568,72.724a13.6,13.6,0,0,1,12.307.016,7,7,0,0,1,.891.613l.007,0,.086.078c.118.1.225.2.328.3l4.371,3.949h0a2.869,2.869,0,0,1,1.129,2.293l2.242.994,1.86-1.07c3.69-2.124,9.575-.967,13.2.086a3.265,3.265,0,0,1,.6.237l.118-.067c1.318-.759.954-2.038-.712-2.521-3.629-1.053-9.514-2.21-13.2-.086l-1.86,1.071-2.242-.994a2.874,2.874,0,0,0-1.129-2.294h0l-4.371-3.949c-.1-.1-.211-.2-.328-.3L188.776,71l-.007,0a7.232,7.232,0,0,0-.891-.613,13.6,13.6,0,0,0-12.307-.016c-2.223,1.279-2.984,3.081-2.3,4.725A5.159,5.159,0,0,1,175.568,72.724Z" transform="translate(-172.626 -68.521)"/><path class="d" d="M187.314,85.477l1.841-1.06.007-2.345c-.036,0-1.792,1.045-1.828,1.045l-.018.01c-2.09,1.2-2.366,2.814-1.884,4.366A4,4,0,0,1,187.314,85.477Z" transform="translate(-172.012 -67.859)"/><path class="d" d="M212.125,77.262c-4.123-1.2-9.813-2.178-13.511-.049l-1.686.97-1.82-.807a3.058,3.058,0,0,0-.738-1.794,4.323,4.323,0,0,0-.523-.537L189.485,71.1c-.111-.106-.226-.211-.338-.3l-.2-.171-.108-.095h0l-.005,0-.019.012a7.186,7.186,0,0,0-.721-.478,14.059,14.059,0,0,0-12.7-.016c-.121.069-.222.147-.335.221s-.234.148-.342.226-.2.152-.294.23c-.133.107-.259.216-.378.33-.061.058-.123.114-.18.173A4.6,4.6,0,0,0,173,72.439l-.012.028a3.6,3.6,0,0,0-.222.616c-.009.035-.018.069-.026.1a3.376,3.376,0,0,0-.086.614c0,.019,0,.037,0,.055s-.007.06-.007.09a3.439,3.439,0,0,0,.273,1.317v.005l.413.769h0a6.256,6.256,0,0,0,2.054,1.808c.119.068.243.135.375.2h0l.828.377c.206.084.416.162.62.23l6.761,2.513a11.04,11.04,0,0,0,3.98.685l1.126.852-.385.224c-.348.2-.7.406-.834.482l-.1.054c-.085.049-.154.1-.234.155-.1.064-.2.128-.3.2s-.179.131-.263.2q-.187.151-.351.311c-.069.068-.133.137-.2.207a3.937,3.937,0,0,0-.269.331c-.042.058-.084.117-.123.176a3.6,3.6,0,0,0-.257.471c-.022.05-.038.1-.057.153a3.293,3.293,0,0,0-.127.4c-.016.063-.033.126-.045.19,0,.022-.012.043-.016.066-.008.055,0,.109-.011.164a3.645,3.645,0,0,0-.033.495c0,.083.011.166.017.249a4.331,4.331,0,0,0,.058.48c.017.084.039.168.059.253.027.11.042.218.078.331l.394.965h0a11.767,11.767,0,0,0,1.665,2.447c.96,1.114,3.368,1.364,4.862.505l20.321-11.7a2.485,2.485,0,0,0,.49-.362,1.468,1.468,0,0,0,.5-1.246,1.591,1.591,0,0,0-.541-.978A3.121,3.121,0,0,0,212.125,77.262Zm-38.679-3.225a2.634,2.634,0,0,1,.016-.353c0-.038,0-.076.009-.113a2.6,2.6,0,0,1,.068-.3c.014-.051.024-.1.041-.154.027-.083.065-.165.1-.247.029-.066.055-.133.089-.2s.07-.119.106-.177c.053-.086.1-.172.163-.257.02-.027.045-.054.066-.081a5.65,5.65,0,0,1,1.688-1.414,13.177,13.177,0,0,1,11.91.016,6.817,6.817,0,0,1,.841.58l.088.069c.108.09.209.183.315.285l4.377,3.954a3.715,3.715,0,0,1,.445.459,2.22,2.22,0,0,1,.543,1.51l-.013.239a4.47,4.47,0,0,0-.457-.458l-4.36-3.938c-.11-.107-.226-.213-.338-.308l-.313-.269-.019.012a7.564,7.564,0,0,0-.719-.479,14.068,14.068,0,0,0-12.7-.016,6.392,6.392,0,0,0-1.943,1.654Zm20.9,3.874,2.63,1.166,2.033-1.172c3.637-2.093,9.641-.821,12.9.123a2.518,2.518,0,0,1,.857.415.869.869,0,0,1,.359.55c.034.276-.155.554-.535.789a3.6,3.6,0,0,0-.468-.17c-4.123-1.2-9.814-2.177-13.511-.048l-1.686.969-1.823-.807A3.069,3.069,0,0,0,194.349,77.911Zm-8.05,8.567c0-.024.009-.047.014-.071a2.655,2.655,0,0,1,.093-.359l.019-.053a2.678,2.678,0,0,1,.167-.368l.014-.024a3.009,3.009,0,0,1,.247-.369l.008-.01a3.461,3.461,0,0,1,.321-.354l.008-.008a4.971,4.971,0,0,1,.961-.706l1.245-.715,0,1.427-1.643.946a5.639,5.639,0,0,0-1.1.813,4.24,4.24,0,0,0-.38.415A2.971,2.971,0,0,1,186.3,86.479Zm2.046,4.708a9.63,9.63,0,0,1-1.848-2.992,3.736,3.736,0,0,1,1.647-1.692l2.04-1.173.007-2.345h0v-.426l-.266-.2h0l-1.715-1.3-.138,0a10.288,10.288,0,0,1-3.824-.633l-6.776-2.518c-.18-.061-.356-.125-.536-.2l-.176-.074a8.8,8.8,0,0,1-.978-.479,4.953,4.953,0,0,1-2.059-2.024,4.9,4.9,0,0,1,2.059-2.048A13.183,13.183,0,0,1,187.7,73.1a6.73,6.73,0,0,1,.841.581l.088.068c.108.09.208.182.315.286l4.377,3.954a2.483,2.483,0,0,1,.993,1.974l-.014.273,2.676,1.185L199,80.25c3.562-2.049,9.381-.874,12.678.062L192.211,91.521C191.072,92.176,189.049,92,188.345,91.186Z" transform="translate(-172.645 -68.54)"/></g></g><g transform="translate(40.127 78.326)"><path class="e" d="M146.076,92.789c-.216-.975-9.718-9.719-9.718-9.719L114.87,78.21,93.626,85.985l-3.377,6.329,3.672,6.092.056.024c.8-2.7,3-5.284,6.61-7.37,9.278-5.358,24.326-5.358,33.606,0,3.87,2.235,6.119,5.048,6.762,7.958l1.99.467S146.291,93.759,146.076,92.789Z" transform="translate(-37.605 -77.293)"/><path class="e" d="M93.625,85.836l-3.377,6.329,3.671,6.092.057.024c.8-2.7,3-5.284,6.609-7.373,7.324-4.228,18.23-5.1,27.068-2.659a33.686,33.686,0,0,0-8.4-9.2l-4.387-.992Z" transform="translate(-37.605 -77.301)"/><path class="d" d="M143.114,99.857l-2.407-.565-.043-.193c-.651-2.949-2.938-5.633-6.613-7.755-9.179-5.3-24.113-5.3-33.292,0-3.42,1.975-5.653,4.46-6.466,7.189l-.1.339-.417-.181-.107-.11L89.9,92.338l3.516-6.589L114.865,77.9l.09.021L136.526,82.8l.061.057c2.246,2.067,9.592,8.89,9.813,9.881h0c.225,1.013-2.367,5.554-3.168,6.921Zm-1.885-1.085,1.576.369c1.536-2.652,3.086-5.74,2.98-6.267-.246-.737-5.969-6.192-9.564-9.5L114.9,78.55l-21.041,7.7-3.237,6.064L93.9,97.744c.989-2.643,3.24-5.032,6.549-6.944,9.351-5.4,24.568-5.4,33.917,0C138.117,92.968,140.487,95.72,141.229,98.772Z" transform="translate(-37.622 -77.309)"/><path class="c" d="M145.307,96.039l-4.367,4.193-4.88,5.718-14.181,3.5-10.15.647-15.55-5.543-2.212-3.771-4.182-6.217-2.235-.46v5.856c0,4.429,2.927,8.858,8.78,12.238,11.707,6.759,30.688,6.759,42.4,0,5.853-3.38,8.78-7.809,8.78-12.238V94.1Z" transform="translate(-37.741 -76.494)"/><path class="d" d="M144.579,95.853l-4.367,4.193-4.877,5.718-14.181,3.5-.85.054c-.318.2-.643.4-.98.6a41.262,41.262,0,0,1-17.309,4.92c11.436,3.748,26.23,2.812,35.981-2.817,5.853-3.38,8.78-7.809,8.78-12.238V93.916Z" transform="translate(-37.013 -76.503)"/><path class="d" d="M117.538,117.6c-7.735,0-15.466-1.7-21.354-5.1-5.762-3.326-8.937-7.769-8.937-12.508V93.751l2.738.563,4.254,6.323,2.168,3.687,15.381,5.484,10.086-.644L135.9,105.7l4.815-5.641,4.4-4.224,2.714-2.4V99.99c0,4.739-3.173,9.182-8.936,12.508C133.006,115.9,125.271,117.6,117.538,117.6ZM87.875,94.521V99.99c0,4.506,3.062,8.756,8.623,11.966,11.6,6.7,30.476,6.7,42.08,0,5.561-3.211,8.624-7.46,8.624-11.966V94.829L145.535,96.3l-4.363,4.189-4.923,5.772-14.28,3.52-10.27.661-.061-.021L95.98,104.84l-2.274-3.867-4.1-6.1Z" transform="translate(-37.756 -76.527)"/><path class="c" d="M138.721,82.694c-11.707-6.759-30.687-6.759-42.4,0s-11.707,17.718,0,24.477,30.687,6.759,42.4,0S150.427,89.453,138.721,82.694Zm-4.395,21.939c-9.279,5.358-24.326,5.358-33.606,0s-9.278-14.044,0-19.4,24.327-5.359,33.607,0S143.607,99.277,134.327,104.633Z" transform="translate(-37.741 -77.323)"/><path class="b" d="M138.717,84.766c-11.706-6.759-30.686-6.759-42.4,0C90.914,87.888,88.008,91.909,87.6,96c.411,4.088,3.315,8.111,8.725,11.231,11.707,6.759,30.687,6.759,42.4,0,5.407-3.124,8.314-7.143,8.725-11.231C147.032,91.909,144.128,87.888,138.717,84.766Zm-4.394,21.939c-9.279,5.358-24.327,5.358-33.606,0-5.084-2.936-7.373-6.869-6.889-10.708-.487-3.839,1.806-7.772,6.889-10.709,9.279-5.357,24.327-5.358,33.606,0,5.085,2.936,7.376,6.87,6.89,10.709.486,3.838-1.807,7.772-6.89,10.708Z" transform="translate(-37.738 -77.219)"/><path class="d" d="M117.538,112.555c-7.732,0-15.466-1.7-21.354-5.1-5.762-3.327-8.937-7.769-8.937-12.509s3.175-9.183,8.937-12.51c11.776-6.8,30.935-6.8,42.708,0h0c5.763,3.327,8.936,7.77,8.936,12.51s-3.173,9.182-8.936,12.509C133.006,110.855,125.272,112.555,117.538,112.555Zm0-34.6c-7.619,0-15.238,1.674-21.04,5.024-5.561,3.211-8.623,7.46-8.623,11.966s3.062,8.756,8.623,11.966c11.6,6.7,30.479,6.7,42.08,0,5.561-3.211,8.624-7.46,8.624-11.966s-3.063-8.756-8.624-11.966h0C132.779,79.63,125.158,77.957,117.538,77.957Zm0,31.012c-6.144,0-12.284-1.352-16.959-4.049-4.59-2.65-7.117-6.192-7.117-9.973s2.527-7.324,7.117-9.973c9.352-5.4,24.568-5.4,33.917,0,4.59,2.649,7.117,6.191,7.117,9.973s-2.527,7.323-7.117,9.973h0c-4.674,2.7-10.816,4.049-16.959,4.049Zm0-27.426c-6.029,0-12.056,1.324-16.646,3.974-4.387,2.532-6.8,5.882-6.8,9.43s2.417,6.9,6.8,9.43c9.178,5.3,24.112,5.3,33.292,0h0c4.387-2.532,6.8-5.882,6.8-9.429s-2.416-6.9-6.8-9.43c-4.589-2.65-10.619-3.975-16.647-3.975Z" transform="translate(-37.756 -77.337)"/><path class="e" d="M96.569,108.8a4.021,4.021,0,0,0-1.092-1.953c-.693-.686-1.337-.86-1.8-.689l-.23.113-4.013,2.2a.092.092,0,0,0-.036.123l2.447,4.332a.091.091,0,0,0,.123.035l4.116-2.262C96.557,110.453,96.8,109.787,96.569,108.8Z" transform="translate(-37.648 -75.89)"/><path class="b" d="M96.155,110.1a4.023,4.023,0,0,0-1.093-1.954c-.692-.685-1.336-.86-1.8-.688l-.229.113-3.241,1.778,1.954,3.458a.09.09,0,0,0,.123.036h0l4.116-2.262a.908.908,0,0,0,.228-.176C96.2,110.307,96.179,110.209,96.155,110.1Z" transform="translate(-37.628 -75.825)"/><path class="d" d="M96.415,109.219,92.3,111.482a.09.09,0,0,1-.123-.036h0L90.2,107.955l-.773.425a.092.092,0,0,0-.036.123l2.447,4.332a.091.091,0,0,0,.123.035l4.116-2.262c.418-.216.652-.756.55-1.554A.854.854,0,0,1,96.415,109.219Z" transform="translate(-37.648 -75.797)"/><path class="d" d="M91.94,113.3a.415.415,0,0,1-.358-.207l-2.445-4.332a.4.4,0,0,1,.155-.552l4.255-2.323a2.107,2.107,0,0,1,2.163.747,4.31,4.31,0,0,1,1.177,2.106h0c.246,1.072,0,1.914-.65,2.251l-4.106,2.26A.418.418,0,0,1,91.94,113.3ZM89.8,108.652l2.227,3.945,3.923-2.158c.383-.2.507-.793.333-1.558a3.744,3.744,0,0,0-1.007-1.8c-.543-.537-1.078-.763-1.475-.618l-.2.1Z" transform="translate(-37.663 -75.905)"/><path class="e" d="M94.572,110.49A5.784,5.784,0,0,0,93,107.676c-1-.986-1.925-1.239-2.6-.993l-.329.165-5.782,3.172a.131.131,0,0,0-.05.179h0l3.524,6.24a.133.133,0,0,0,.179.05l5.927-3.26C94.552,112.874,94.9,111.916,94.572,110.49Z" transform="translate(-37.908 -75.865)"/><path class="b" d="M94,112.436a5.792,5.792,0,0,0-1.573-2.813c-1-.987-1.926-1.239-2.6-.993l-.33.164-4.656,2.554,2.8,4.96a.132.132,0,0,0,.179.05l5.926-3.26a1.292,1.292,0,0,0,.324-.246C94.054,112.714,94.032,112.579,94,112.436Z" transform="translate(-37.877 -75.767)"/><path class="d" d="M94.748,110.306a5.684,5.684,0,0,0-.592-1.524,1.888,1.888,0,0,1-.816,1.9l-5.926,3.26a.131.131,0,0,1-.179-.05h0l-2.4-4.253-.369.2a.129.129,0,0,0-.051.178v0l3.524,6.24a.13.13,0,0,0,.178.049l5.927-3.259C94.73,112.7,95.074,111.734,94.748,110.306Z" transform="translate(-37.899 -75.755)"/><path class="d" d="M87.894,116.835a.447.447,0,0,1-.39-.227l-3.524-6.239a.445.445,0,0,1,.17-.606l0,0,6.122-3.342c.886-.329,1.951.061,2.956,1.049a6.071,6.071,0,0,1,1.66,2.967h0c.338,1.48.015,2.634-.864,3.089l-5.919,3.256A.428.428,0,0,1,87.894,116.835Zm-3.276-6.614,3.344,5.923,5.768-3.174c.607-.313.815-1.229.548-2.4h0a5.442,5.442,0,0,0-1.488-2.662c-.822-.813-1.649-1.149-2.267-.921l-.3.15Z" transform="translate(-37.923 -75.88)"/><path class="e" d="M89.375,114.618a5.82,5.82,0,0,0-2.634-4.561,1.845,1.845,0,0,0-1.866-.18l-12.954,5.093a.092.092,0,0,0-.053.12l.005.012,5.685,10.083a.094.094,0,0,0,.126.036l.013-.009,10.854-8.87A1.81,1.81,0,0,0,89.375,114.618Z" transform="translate(-38.53 -75.709)"/><path class="b" d="M85.321,112.556a1.849,1.849,0,0,0-1.867-.181l-10.639,4.183,4.69,8.316a.094.094,0,0,0,.127.035l.012-.008,10.262-8.385A5.908,5.908,0,0,0,85.321,112.556Z" transform="translate(-38.482 -75.583)"/><path class="d" d="M75.381,121.4h0l2,3.548a.092.092,0,0,0,.126.035l.013-.009,10.854-8.869a1.81,1.81,0,0,0,.823-1.724,4.683,4.683,0,0,0-.26-1.447Z" transform="translate(-38.353 -75.546)"/><path class="d" d="M77.655,125.562a.405.405,0,0,1-.354-.208l-5.686-10.082a.406.406,0,0,1,.154-.554.482.482,0,0,1,.053-.025L84.774,109.6a2.126,2.126,0,0,1,2.138.2,6.174,6.174,0,0,1,2.79,4.832,2.144,2.144,0,0,1-.961,1.987l-10.83,8.848A.409.409,0,0,1,77.655,125.562Zm-5.368-10.376,5.432,9.631,10.7-8.738a1.518,1.518,0,0,0,.654-1.446,5.482,5.482,0,0,0-2.477-4.288,1.556,1.556,0,0,0-1.551-.182Z" transform="translate(-38.545 -75.724)"/><path class="e" d="M79.407,120.937a9.242,9.242,0,0,0-2.9-4.867c-1.656-1.452-3.19-1.688-4.188-1.028L50.083,129.764a.37.37,0,0,0-.123.48l3.578,6.8a.368.368,0,0,0,.492.16l24.182-11.851C79.351,124.816,79.942,123.272,79.407,120.937Z" transform="translate(-39.634 -75.458)"/><path class="b" d="M79.2,123.938c-.017-.087-.025-.168-.046-.257a9.235,9.235,0,0,0-2.9-4.867c-1.658-1.452-3.19-1.688-4.188-1.028l-21.249,14.07,2.618,4.973a.37.37,0,0,0,.492.16l24.183-11.852A2.253,2.253,0,0,0,79.2,123.938Z" transform="translate(-39.589 -75.32)"/><path class="d" d="M79.167,119.631c-.061.038-.318-.013-.5.1l-26.07,15.079.983,1.869a.368.368,0,0,0,.492.16L78.25,124.991c1.142-.535,1.732-2.076,1.2-4.412A8.821,8.821,0,0,0,79.167,119.631Z" transform="translate(-39.5 -75.209)"/><path class="d" d="M53.878,137.567a.679.679,0,0,1-.6-.369L49.7,130.4a.682.682,0,0,1,.227-.889L72.16,114.793c1.2-.794,2.908-.4,4.568,1.055a9.578,9.578,0,0,1,3,5.033h0c.534,2.335.022,4.116-1.37,4.764l-24.177,11.85A.686.686,0,0,1,53.878,137.567Zm19.668-22.549a1.857,1.857,0,0,0-1.041.3L50.271,130.039a.055.055,0,0,0-.019.072l3.578,6.8a.054.054,0,0,0,.071.025h0L78.087,125.08c1.106-.52,1.493-2.036,1.029-4.059h0a8.945,8.945,0,0,0-2.8-4.7,4.481,4.481,0,0,0-2.768-1.3Z" transform="translate(-39.65 -75.473)"/><path class="c" d="M54.887,134.6c0,1.894-1.33,2.663-2.97,1.715a6.569,6.569,0,0,1-2.971-5.146c0-1.895,1.331-2.663,2.971-1.715A6.566,6.566,0,0,1,54.887,134.6Z" transform="translate(-39.683 -74.735)"/><path class="d" d="M53.259,137.051a3,3,0,0,1-1.484-.45,6.924,6.924,0,0,1-3.127-5.417,2.116,2.116,0,0,1,3.441-1.986,6.924,6.924,0,0,1,3.127,5.417,2.384,2.384,0,0,1-1.026,2.2A1.839,1.839,0,0,1,53.259,137.051Zm-2.652-7.675a1.224,1.224,0,0,0-.619.157,1.8,1.8,0,0,0-.714,1.652,6.233,6.233,0,0,0,2.815,4.875,1.507,1.507,0,0,0,2.5-1.444,6.232,6.232,0,0,0-2.814-4.875A2.4,2.4,0,0,0,50.607,129.376Z" transform="translate(-39.7 -74.752)"/><path class="e" d="M52.925,133.687a4.442,4.442,0,0,0-1.1-1.84c-.921-.964-1.809-1.2-2.386-.881l-.246.141-6.97,3.924a.166.166,0,0,0-.063.226v0l2.949,4.944a.167.167,0,0,0,.227.058L52.2,136.4l.254-.149h0l.085-.062C53.12,135.854,53.3,134.969,52.925,133.687Z" transform="translate(-40.026 -74.645)"/><path class="b" d="M51.6,136.236Z" transform="translate(-39.554 -74.373)"/><path class="b" d="M52.469,135.412a4.445,4.445,0,0,0-1.1-1.84c-.921-.965-1.809-1.2-2.387-.882l-.246.141L42.6,136.282l2.352,3.941a.166.166,0,0,0,.226.061l6.866-3.86.255-.149h0l.085-.062a.952.952,0,0,0,.216-.177A5.29,5.29,0,0,0,52.469,135.412Z" transform="translate(-40.003 -74.558)"/><path class="h" d="M51.754,136.106h0C51.675,136.15,51.638,136.174,51.754,136.106Z" transform="translate(-39.546 -74.38)"/><path class="d" d="M52.94,133.5a.993.993,0,0,1-.338.335l-.085.062h0l-.255.15h0l-6.865,3.859a.164.164,0,0,1-.226-.058L43.1,134.386l-.854.481a.166.166,0,0,0-.063.226v0l2.949,4.944a.165.165,0,0,0,.226.062l6.865-3.86.256-.149h0l.085-.062c.571-.335.747-1.22.376-2.5A.027.027,0,0,0,52.94,133.5Z" transform="translate(-40.025 -74.511)"/><path class="d" d="M45.276,140.609a.485.485,0,0,1-.415-.233l-2.949-4.945a.479.479,0,0,1,.165-.656l.005,0,7.217-4.066c.777-.421,1.811-.068,2.771.937a4.733,4.733,0,0,1,1.176,1.971h0c.4,1.387.212,2.429-.519,2.859l-.671.4,0-.005-6.545,3.679A.454.454,0,0,1,45.276,140.609Zm-2.75-5.369,2.8,4.691,7.061-3.986c.476-.281.563-1.083.252-2.157a4.12,4.12,0,0,0-1.026-1.711c-.743-.777-1.512-1.092-2.011-.822l-.238.138Z" transform="translate(-40.041 -74.66)"/><ellipse class="e" cx="1.759" cy="3.048" rx="1.759" ry="3.048" transform="translate(0.546 61.336) rotate(-30)"/><path class="d" d="M44.633,140.658a2.259,2.259,0,0,1-1.12-.338,5.036,5.036,0,0,1-2.312-4,1.619,1.619,0,0,1,2.626-1.516,5.039,5.039,0,0,1,2.311,4,1.81,1.81,0,0,1-.788,1.668A1.417,1.417,0,0,1,44.633,140.658Zm-1.924-5.567a.792.792,0,0,0-.405.1,1.226,1.226,0,0,0-.475,1.124,4.421,4.421,0,0,0,2,3.46,1.01,1.01,0,0,0,1.684-.973,4.424,4.424,0,0,0-2-3.46,1.65,1.65,0,0,0-.808-.255Z" transform="translate(-40.074 -74.464)"/><path class="e" d="M44.461,137.883a3.074,3.074,0,0,0-.726-1.261c-.614-.642-1.2-.8-1.59-.587l-.164.095-1.06.609a.11.11,0,0,0-.04.15v0l1.966,3.292a.111.111,0,0,0,.151.039l.99-.567.17-.1h0l.057-.039C44.6,139.292,44.711,138.739,44.461,137.883Z" transform="translate(-40.09 -74.388)"/><path class="e" d="M44.236,139.348l.057-.039c.38-.224.492-.777.246-1.631-.025-.087-.062-.172-.091-.257-.527-.451-1.018-.544-1.352-.362l-.164.093-1.061.61a.11.11,0,0,0-.039.15h0l1.253,2.1.983-.561.173-.1Z" transform="translate(-40.042 -74.336)"/><path class="b" d="M43.958,139.33h0C43.909,139.358,43.889,139.371,43.958,139.33Z" transform="translate(-39.937 -74.218)"/><path class="i" d="M43.879,139.415Z" transform="translate(-39.941 -74.213)"/><path class="b" d="M44.5,137.794c-.023-.08-.054-.157-.083-.234a.739.739,0,0,1-.316.463l-.057.04h0l-.171.1h0l-.989.566a.11.11,0,0,1-.15-.038h0l-1.36-2.278-.411.235a.11.11,0,0,0-.039.151h0l1.966,3.293a.111.111,0,0,0,.15.039l.99-.567.171-.1h0l.057-.039C44.635,139.2,44.744,138.649,44.5,137.794Z" transform="translate(-40.088 -74.364)"/><path class="d" d="M42.96,140.565a.421.421,0,0,1-.369-.207l-1.966-3.293a.423.423,0,0,1,.146-.581h0l1.229-.7c.563-.308,1.3-.062,1.973.641a3.383,3.383,0,0,1,.8,1.392h0c.379,1.311-.079,1.808-.384,1.988l-.038.027a.912.912,0,0,1-.279.163l-.906.519A.4.4,0,0,1,42.96,140.565Zm-1.687-3.644,1.757,2.944,1.025-.594c.274-.163.31-.626.123-1.286a2.755,2.755,0,0,0-.651-1.132c-.454-.474-.932-.68-1.214-.527Z" transform="translate(-40.105 -74.403)"/><path class="c" d="M43.31,139.335c0,.915-.643,1.287-1.436.829a3.171,3.171,0,0,1-1.435-2.485c0-.915.642-1.287,1.435-.829A3.174,3.174,0,0,1,43.31,139.335Z" transform="translate(-40.111 -74.352)"/><path class="d" d="M42.531,140.692a1.609,1.609,0,0,1-.8-.241,3.468,3.468,0,0,1-1.591-2.756,1.182,1.182,0,0,1,1.9-1.1,3.477,3.477,0,0,1,1.592,2.757,1.3,1.3,0,0,1-.578,1.2A1.049,1.049,0,0,1,42.531,140.692Zm-1.282-3.708a.439.439,0,0,0-.217.054.735.735,0,0,0-.264.658,2.88,2.88,0,0,0,1.278,2.212.574.574,0,0,0,.965-.558,2.874,2.874,0,0,0-1.278-2.212,1.015,1.015,0,0,0-.484-.153Z" transform="translate(-40.127 -74.368)"/><path class="d" d="M77.8,124.257l-.41-.213a5.014,5.014,0,0,0,.17-3.959l.422-.184A5.415,5.415,0,0,1,77.8,124.257Z" transform="translate(-38.252 -75.195)"/><path class="d" d="M88.388,115.855l-.185-.123a.277.277,0,0,1-.061-.333,3.323,3.323,0,0,0,.025-1.975l.443-.129a4.338,4.338,0,0,1,.11,1.811l1-.614.243.393Z" transform="translate(-37.712 -75.528)"/><path class="d" d="M94.432,111.5l-.457-.061a6.228,6.228,0,0,0,0-1.028l.459-.038A6.619,6.619,0,0,1,94.432,111.5Z" transform="translate(-37.417 -75.675)"/></g></g></svg>