<svg xmlns="http://www.w3.org/2000/svg" width="184.572" height="162.139" viewBox="0 0 184.572 162.139"><defs><style>.a{fill:#eaeaea;mix-blend-mode:multiply;isolation:isolate;}.b{fill:#212c33;}.c{fill:#499dd1;}.d{fill:#fff;}.e{fill:#f9e8cc;}.f{fill:#f3c054;}.g{fill:#459cd1;}.h{fill:#0d1757;}</style></defs><g transform="translate(-69.4 -54.555)"><path class="a" d="M131.41,145.922l-16.786-9.89a1.745,1.745,0,0,1-.026-3.058l20.1-11.306a1.713,1.713,0,0,1,1.648-.013l17.512,8.877a3.732,3.732,0,0,1,.055,6.561L139.3,145.857A8.2,8.2,0,0,1,131.41,145.922Z" transform="translate(5.218 8.156)"/><path class="a" d="M91.908,161.927l-9.766-5.21a1.377,1.377,0,0,1-.02-2.432l11.724-6.5a1.016,1.016,0,0,1,.972-.008l10.328,5.177a2.165,2.165,0,0,1,.033,3.827l-8.614,5.113A4.886,4.886,0,0,1,91.908,161.927Z" transform="translate(-12 4.711)"/><path class="a" d="M206.77,167.415l-22.8-12.4a3.3,3.3,0,0,1-.049-5.786l27.369-15.476a2.34,2.34,0,0,1,2.269-.018l24.111,12.316a5.2,5.2,0,0,1,.076,9.106l-20.111,12.163A11.214,11.214,0,0,1,206.77,167.415Z" transform="translate(13.574 9.62)"/><path class="a" d="M156.6,201.551l-23.235-12.4a3.274,3.274,0,0,1-.049-5.786L161.2,167.9a2.426,2.426,0,0,1,2.312-.019l24.572,12.318a5.152,5.152,0,0,1,.077,9.1l-20.494,12.163A11.62,11.62,0,0,1,156.6,201.551Z" transform="translate(7.399 13.782)"/><path class="a" d="M107.1,171.526l-9.766-5.21a1.377,1.377,0,0,1-.021-2.432l11.724-6.5a1.022,1.022,0,0,1,.972-.008l10.33,5.178a2.166,2.166,0,0,1,.033,3.827l-8.615,5.113A4.884,4.884,0,0,1,107.1,171.526Z" transform="translate(-10.148 5.882)"/><g transform="translate(124.939 134.214)"><g transform="translate(36.615 22.262)"><g transform="translate(3.385 1.954)"><path class="b" d="M160.634,150.556c1.351-.781,1.352-2.05,0-2.831a5.425,5.425,0,0,0-4.9,0c-1.351.78-1.351,2.049,0,2.829A5.426,5.426,0,0,0,160.634,150.556Z" transform="translate(-154.72 -147.141)"/></g><path class="b" d="M153.707,146.556c-2.671,1.543-2.672,4.052,0,5.6a10.723,10.723,0,0,0,9.69,0c2.671-1.543,2.671-4.052,0-5.6A10.73,10.73,0,0,0,153.707,146.556Zm.96.555a8.6,8.6,0,0,1,7.768,0c2.142,1.236,2.142,3.248,0,4.484a8.6,8.6,0,0,1-7.768,0C152.527,150.359,152.527,148.347,154.667,147.111Z" transform="translate(-151.703 -145.4)"/></g><path class="b" d="M163.085,196.677h-1.11V151.594l-42.908-25.482.572-.555,43.446,25.4Z" transform="translate(-119.067 -125.557)"/><g transform="translate(43.463 25.164)"><rect class="b" width="66.203" height="1.11"/></g></g><g transform="translate(197.406 136.782)"><g transform="translate(0 0)"><g transform="translate(0 15.937)"><path class="c" d="M184,149.127h0l.118-6.754h55.7l-.074,6.581c.017.169,0,0-.022.172h0a4.1,4.1,0,0,1-2.275,2.776l-20.78,12.009c-2.775,1.6-6.972,1.777-9.375.389L185.6,151.769A2.684,2.684,0,0,1,184,149.127Z" transform="translate(-183.619 -142.012)"/><path class="d" d="M184,149.129h0l.118-6.754h55.7l-.074,6.581c.017.169,0,0-.022.172h0a4.1,4.1,0,0,1-2.275,2.776l-20.78,12.009c-2.775,1.6-6.972,1.777-9.375.388L185.6,151.77A2.682,2.682,0,0,1,184,149.129Z" transform="translate(-183.619 -142.012)"/><path class="b" d="M224.119,142.413h-2.633a8.318,8.318,0,0,0-1.756.362h6.837A18.952,18.952,0,0,0,224.119,142.413Zm-9.374,0a1.859,1.859,0,0,1,.258.362h.338l-.2-.362Zm25.1-.362-.362.008-2.118.017-7.448.072-.435.008h-.7l-10.348.1-.62.008h-.008l-1.28.016h-.009l-.74.008h-.733l-.4.008-11.363.105-.862.008-.708.008h-.121l-15.807.153-1.289.009-.338.008h-.418v.289l-.033,3.512-.025,2.753a3.07,3.07,0,0,0,1.781,2.988l21.686,12.53a8.611,8.611,0,0,0,4.251.983,11.277,11.277,0,0,0,5.484-1.369l20.785-12.015a4.456,4.456,0,0,0,2.448-3.02.364.364,0,0,0,.031-.233l.073-6.474c.008-.081.008-.154.008-.234v-.241Zm-55.33.725h54.968l-.008.6v.218l-.009.379s.009,0,0,.008v.266l-.016,1.457v.008l-.033,3.277v.025c-.008.031-.016.064-.024.1a3.764,3.764,0,0,1-2.094,2.5l-20.785,12.007a10.439,10.439,0,0,1-5,1.28,8.611,8.611,0,0,1-3.261-.532,5.28,5.28,0,0,1-.748-.353l-1.667-.967L185.821,151.5a3.676,3.676,0,0,1-.491-.338,2.1,2.1,0,0,1-.935-1.949l.04-2.359.048-2.15.008-.588.008-.387v-.089l.009-.411Zm30.624-.362h-.395a1.859,1.859,0,0,1,.258.362h.338Zm8.979,0h-2.633a8.318,8.318,0,0,0-1.756.362h6.837A18.952,18.952,0,0,0,224.119,142.413Z" transform="translate(-183.658 -142.051)"/></g><g transform="translate(0.077)"><path class="d" d="M185.675,146.916l21.686,12.532c2.4,1.388,6.6,1.214,9.374-.389l20.781-12.009c2.775-1.6,3.076-4.029.673-5.417L216.5,129.1c-2.4-1.389-6.6-1.215-9.375.388L186.348,141.5C183.574,143.1,183.272,145.527,185.675,146.916Z" transform="translate(-183.687 -127.807)"/><path class="e" d="M185.48,149.155l21.686,12.532c2.4,1.389,6.6,1.214,9.374-.389l20.781-12.009c2.775-1.6,3.075-4.028.673-5.417L216.307,131.34c-2.4-1.389-6.6-1.214-9.374.389l-20.781,12.008C183.379,145.342,183.077,147.766,185.48,149.155Z" transform="translate(-183.711 -127.534)"/><path class="b" d="M240.2,143.783a3.231,3.231,0,0,0-1.788-2.423l-21.686-12.539c-2.5-1.442-6.868-1.264-9.735.395l-10.1,5.839-.7.394-.1.065-.692.4-9.189,5.307a4.42,4.42,0,0,0-2.464,3.092c-.008.1-.016.193-.016.289a2.377,2.377,0,0,0,.193.942,1.628,1.628,0,0,0,.193.395v.008c.008.024.025.033.033.056a3.26,3.26,0,0,0,.33.427,3.924,3.924,0,0,0,.846.7,1.92,1.92,0,0,0,.209.137L205.831,159l1.386.8a6.34,6.34,0,0,0,1.03.476,9.84,9.84,0,0,0,3.221.507h.04a11.364,11.364,0,0,0,5.451-1.369l20.776-12.007a5.953,5.953,0,0,0,1.723-1.425.689.689,0,0,0,.073-.1,3.2,3.2,0,0,0,.3-.459c.008-.008.016-.016.016-.024a3.07,3.07,0,0,0,.362-1.143,2.342,2.342,0,0,0,.008-.234v-.031A1.756,1.756,0,0,0,240.2,143.783Zm-.773.725a2.435,2.435,0,0,1-.283.652v.009a4.768,4.768,0,0,1-1.772,1.6l-20.784,12.015c-2.666,1.538-6.708,1.715-9,.386L185.9,146.642a2.869,2.869,0,0,1-1.289-1.336,1.158,1.158,0,0,1-.112-.347,1.319,1.319,0,0,1-.04-.355,1.9,1.9,0,0,1,.024-.3,1.148,1.148,0,0,1,.033-.162,4.026,4.026,0,0,1,2.053-2.294l9.551-5.517.692-.4.1-.056.693-.4,9.744-5.629a10.52,10.52,0,0,1,5.12-1.28,7.891,7.891,0,0,1,3.89.893l21.686,12.531a2.587,2.587,0,0,1,1.426,1.8c.008.081.016.154.016.233a.627.627,0,0,1-.008.121A1.45,1.45,0,0,1,239.427,144.508Z" transform="translate(-183.727 -127.846)"/></g><path class="b" d="M208.49,158.652v6.581l3.277-.515,4.122-1.94,19.7-11.64,1.234-1.516v-7.25l-.809,2.1-4.244,2.486-19.945,11.215Z" transform="translate(-180.631 -126.074)"/><path class="b" d="M205.842,156.536v6.615l-2.412-1.115v-6.6Z" transform="translate(-181.248 -124.482)"/><path class="b" d="M185.327,145.037V151.3l-.948-.71L183.7,146.3l.318-3.606,1.312,2.34Z" transform="translate(-183.654 -126.035)"/></g><g transform="translate(14.941 8.744)"><path class="d" d="M227.13,142.587c-2.782-.808-7.295-1.694-10.123-.066l-1.426.821-1.72-.762a2.2,2.2,0,0,0-.865-1.759h0l-3.351-3.027c-.079-.077-.162-.153-.251-.228l-.066-.059-.006,0a5.382,5.382,0,0,0-.682-.47,10.426,10.426,0,0,0-9.435-.012c-2.607,1.5-2.611,3.94-.007,5.447a6.847,6.847,0,0,0,.783.384l-.006,0,.105.039c.153.062.309.119.467.173L205.733,145h0a8.249,8.249,0,0,0,3.043.5l1.314,1-1.411.812c-2.835,1.632-1.318,4.242.07,5.852a3.035,3.035,0,0,0,3.347.321l7.637-4.4.331-.191,7.611-4.381C228.686,143.937,228.406,142.957,227.13,142.587Z" transform="translate(-196.943 -135.607)"/><path class="b" d="M199.2,138.827a10.43,10.43,0,0,1,9.435.011,5.611,5.611,0,0,1,.683.471l.006,0,.066.059c.089.074.172.15.25.227l3.351,3.028h0a2.2,2.2,0,0,1,.865,1.758l1.72.762,1.426-.82c2.828-1.629,7.341-.743,10.123.065a2.611,2.611,0,0,1,.458.183l.09-.053c1.011-.581.731-1.561-.545-1.932-2.782-.808-7.295-1.694-10.123-.066l-1.426.821-1.72-.762a2.2,2.2,0,0,0-.865-1.758h0l-3.351-3.028c-.079-.076-.162-.153-.25-.227l-.066-.059-.006,0a5.608,5.608,0,0,0-.683-.471,10.43,10.43,0,0,0-9.435-.011c-1.7.981-2.289,2.362-1.767,3.622A3.951,3.951,0,0,1,199.2,138.827Z" transform="translate(-196.943 -135.607)"/><path class="b" d="M207.606,147.961l1.411-.812.006-1.8c-.027,0-1.373.8-1.4.8l-.015.008a2.651,2.651,0,0,0-1.445,3.347A3.067,3.067,0,0,1,207.606,147.961Z" transform="translate(-195.875 -134.456)"/><path class="b" d="M213.42,143.066a3.133,3.133,0,0,0-.395-.411l-3.35-3.028c-.08-.08-.16-.153-.257-.233l-.065-.056h-.008a5.38,5.38,0,0,0-.677-.467,9.674,9.674,0,0,0-4.742-1.135c-.21,0-.42.008-.628.016a.144.144,0,0,0-.057.008c-.193.008-.386.025-.579.048-.146.017-.291.033-.435.057-.129.016-.258.039-.378.064l.411.241a9.958,9.958,0,0,1,6.257.967,4.314,4.314,0,0,1,.644.442l.064.048c.089.073.162.146.242.226l3.358,3.028a2.409,2.409,0,0,1,.193.193.669.669,0,0,1,.1.121h.395C213.484,143.155,213.453,143.114,213.42,143.066Zm6.442.129H222.5A12.519,12.519,0,0,0,219.862,143.2Zm8.745.362a.989.989,0,0,0-.121-.362,1.018,1.018,0,0,0-.193-.266,1.138,1.138,0,0,0-.089-.1,2.35,2.35,0,0,0-.958-.507c-3.165-.918-7.529-1.675-10.364-.04l-1.288.74-1.4-.611a2.326,2.326,0,0,0-.564-1.377,2.718,2.718,0,0,0-.4-.412l-3.342-3.019a1.715,1.715,0,0,0-.258-.233l-.153-.137-.081-.073h-.008l-.016.008a6.093,6.093,0,0,0-.548-.37,10.916,10.916,0,0,0-9.31-.233c-.153.073-.3.145-.434.226-.089.056-.169.112-.25.169a.008.008,0,0,0-.008.008.688.688,0,0,0-.1.064c-.057.033-.105.065-.154.1-.08.065-.153.121-.226.177s-.145.121-.209.185c-.025.025-.056.048-.081.073-.048.04-.1.089-.137.129a3.559,3.559,0,0,0-.661.933c-.008,0-.008.009-.008.017a2.632,2.632,0,0,0-.169.475c-.008.025-.016.048-.024.081a3.028,3.028,0,0,0-.064.467v.04a.2.2,0,0,0-.009.073,2.564,2.564,0,0,0,.21,1.006v.008l.314.588a4.716,4.716,0,0,0,1.579,1.386c.089.056.185.1.289.16l.6.266.033.016c.16.065.322.129.475.177l.451.169,4.736,1.764a8.6,8.6,0,0,0,3.052.524l.862.652c-.081.048-.177.1-.3.169-.265.16-.531.314-.636.37l-.08.04c-.065.04-.113.08-.177.12a1.993,1.993,0,0,0-.226.154,1.942,1.942,0,0,0-.2.153c-.1.073-.185.153-.274.233-.048.056-.1.105-.145.162a2.728,2.728,0,0,0-.209.249c-.033.048-.065.089-.1.137-.072.121-.137.242-.193.362l-.048.121c-.033.1-.064.2-.1.306-.008.048-.025.1-.033.145,0,.016-.008.033-.008.048a.713.713,0,0,0-.008.129,2.924,2.924,0,0,0-.033.378c.008.065.008.129.017.193a2.647,2.647,0,0,0,.048.362,1.7,1.7,0,0,0,.039.194c.025.089.033.168.065.257l.3.742a8.989,8.989,0,0,0,1.281,1.876,3.3,3.3,0,0,0,3.72.387l15.581-8.971a2.047,2.047,0,0,0,.379-.274,1.131,1.131,0,0,0,.378-.958A.03.03,0,0,0,228.608,143.558Zm-.6.1c.024.21-.121.418-.411.6a1.692,1.692,0,0,0-.362-.129c-.709-.21-1.49-.411-2.3-.572a18.955,18.955,0,0,0-2.448-.362,12.519,12.519,0,0,0-2.633,0,8.319,8.319,0,0,0-1.756.362,6.2,6.2,0,0,0-1.224.532l-1.3.74-1.393-.62a1.826,1.826,0,0,0-.145-.652,1.551,1.551,0,0,0-.177-.362.714.714,0,0,0-.081-.129,2.2,2.2,0,0,0-.177-.241l.54.241.3.129.821.362.362.162.274-.162.628-.362.274-.16.378-.218c2.795-1.6,7.392-.628,9.889.1.033.008.056.016.081.024a1.7,1.7,0,0,1,.54.258.132.132,0,0,0,.04.033.784.784,0,0,1,.249.33A.224.224,0,0,1,228.012,143.654Zm-19,9.349a7.368,7.368,0,0,1-1.417-2.294,2.824,2.824,0,0,1,1.263-1.3l1.563-.9v-1.8l.008-.322-.21-.153-1.313-1h-.1a7.934,7.934,0,0,1-2.93-.484l-3.205-1.191-.975-.362-.04-.016-.974-.362-.411-.145-.137-.065a5.966,5.966,0,0,1-.749-.362,3.706,3.706,0,0,1-1.577-1.554,3.788,3.788,0,0,1,1.577-1.571,5.831,5.831,0,0,1,.838-.4,6.348,6.348,0,0,1,.877-.3.788.788,0,0,1,.137-.04,8.52,8.52,0,0,1,1.023-.21,9.958,9.958,0,0,1,6.257.967,4.314,4.314,0,0,1,.644.442l.064.048c.089.073.162.146.242.226l3.358,3.028a2.409,2.409,0,0,1,.193.193.669.669,0,0,1,.1.121,1.86,1.86,0,0,1,.258.362,1.5,1.5,0,0,1,.2.838l-.008.209,2.054.91,1.562-.9c2.73-1.57,7.192-.668,9.719.048l-14.929,8.593A2.767,2.767,0,0,1,209.015,153Zm-1.571-3.615c0-.017.008-.033.008-.057a1.766,1.766,0,0,1,.073-.274c.008-.008.008-.024.016-.04a1.5,1.5,0,0,1,.129-.282.027.027,0,0,0,.008-.016,2.248,2.248,0,0,1,.194-.282v-.009a2.574,2.574,0,0,1,.249-.274l.008-.008a3.9,3.9,0,0,1,.733-.54l.959-.548-.009,1.1-1.255.725a4.114,4.114,0,0,0-.846.62,3.694,3.694,0,0,0-.289.322A1.944,1.944,0,0,1,207.445,149.388Zm-9.84-9.809a.375.375,0,0,1,.008-.089,1.266,1.266,0,0,1,.048-.226.828.828,0,0,1,.033-.12,1.834,1.834,0,0,1,.073-.193l.072-.146c.025-.048.057-.1.081-.137a1.754,1.754,0,0,1,.129-.2c.008-.016.033-.04.048-.065a4.137,4.137,0,0,1,1.216-1.022.4.4,0,0,1,.081-.056c.008,0,.008-.009.016-.009a7.406,7.406,0,0,1,.757-.37,10.217,10.217,0,0,1,8.35.387,4.752,4.752,0,0,1,.652.451l.065.048.241.218,3.358,3.036a2.709,2.709,0,0,1,.338.346,1.763,1.763,0,0,1,.42,1.16l-.009.185a3.7,3.7,0,0,0-.353-.347l-3.342-3.019c-.089-.089-.177-.169-.258-.242l-.241-.2-.016.008c-.185-.137-.362-.258-.548-.37a10.826,10.826,0,0,0-7.361-.9,8.733,8.733,0,0,0-.933.258c-.048.016-.1.031-.137.048a6.451,6.451,0,0,0-.813.33c-.169.081-.339.169-.5.258a5.055,5.055,0,0,0-1.49,1.255A1.6,1.6,0,0,1,197.6,139.579Zm22.258,3.616H222.5A12.519,12.519,0,0,0,219.862,143.2Zm-6.442-.129a3.133,3.133,0,0,0-.395-.411l-3.35-3.028c-.08-.08-.16-.153-.257-.233l-.065-.056h-.008a5.38,5.38,0,0,0-.677-.467,9.674,9.674,0,0,0-4.742-1.135c-.21,0-.42.008-.628.016a.144.144,0,0,0-.057.008c-.193.008-.386.025-.579.048-.146.017-.291.033-.435.057-.129.016-.258.039-.378.064l.411.241a9.958,9.958,0,0,1,6.257.967,4.314,4.314,0,0,1,.644.442l.064.048c.089.073.162.146.242.226l3.358,3.028a2.409,2.409,0,0,1,.193.193.669.669,0,0,1,.1.121h.395C213.484,143.155,213.453,143.114,213.42,143.066Z" transform="translate(-196.976 -135.64)"/></g></g><g transform="translate(141.161 175.094)"><g transform="translate(0 15.936)"><path class="c" d="M133.87,183.276h0l.118-6.754h55.7l-.074,6.581c.017.169,0,0-.022.172h0a4.1,4.1,0,0,1-2.275,2.776l-20.78,12.009c-2.775,1.6-6.972,1.777-9.375.388l-21.686-12.531A2.684,2.684,0,0,1,133.87,183.276Z" transform="translate(-133.487 -176.16)"/><path class="d" d="M133.87,183.278h0l.118-6.755h55.7l-.074,6.582c.017.169,0,0-.022.172h0a4.1,4.1,0,0,1-2.275,2.776l-20.78,12.009c-2.775,1.6-6.972,1.777-9.375.388l-21.686-12.532A2.682,2.682,0,0,1,133.87,183.278Z" transform="translate(-133.487 -176.16)"/><path class="b" d="M173.979,176.561h-2.625a8.321,8.321,0,0,0-1.756.362h6.829A22.412,22.412,0,0,0,173.979,176.561Zm15.735-.362-.362.009-2.118.016-7.448.072-.435.009h-.7l-10.348.1-.613.008h-.016l-1.272.016h-.008l-.742.009h-.74l-.395.008-11.371.1-.853.008-.709.008h-.145l-15.783.154h-.008l-1.289.008-.33.008h-.418v.289l-.04,3.471v.056l-.025,2.739a3.069,3.069,0,0,0,1.781,2.987l10.105,5.839.878.507.04.025,1,.58,9.663,5.58a8.665,8.665,0,0,0,4.251.982c.258,0,.524-.008.79-.031a9.855,9.855,0,0,0,1.168-.129l.176-.025h.009a9.628,9.628,0,0,0,.982-.233h.009a9.735,9.735,0,0,0,2.359-.95L187.532,186.4a4.473,4.473,0,0,0,2.456-3.019.413.413,0,0,0,.024-.233l.073-6.475a2.322,2.322,0,0,0,.008-.233V176.2Zm-55.33.725H189.36l-.008.6v.225l-.008.387s.008,0,0,.008v.25l-.017,1.465v.008l-.04,3.277v.025c-.008.033-.016.064-.024.1a3.743,3.743,0,0,1-2.094,2.5l-20.776,12.015a9.446,9.446,0,0,1-2.908,1.056,8.677,8.677,0,0,1-1.1.16h-.008a.472.472,0,0,1-.185.016h-.008a5.136,5.136,0,0,1-.8.04,3.66,3.66,0,0,1-.532-.008h-.008a8.27,8.27,0,0,1-2.722-.523,6.368,6.368,0,0,1-.74-.355l-1.667-.966-7.054-4.083h-.009l-1.248-.717-.016-.008-1.039-.6h-.009L135.7,185.646a3.786,3.786,0,0,1-.491-.339,2.094,2.094,0,0,1-.935-1.941l.04-2.367.04-2.15.008-.588.008-.379v-.112l.009-.395Zm39.6-.362h-2.625a8.321,8.321,0,0,0-1.756.362h6.829A22.412,22.412,0,0,0,173.979,176.561Z" transform="translate(-133.526 -176.199)"/></g><g transform="translate(0.085)"><path class="d" d="M135.546,181.065,157.232,193.6c2.4,1.388,6.6,1.214,9.374-.389L187.387,181.2c2.775-1.6,3.075-4.029.673-5.417L166.373,163.25c-2.4-1.389-6.6-1.215-9.374.388l-20.78,12.009C133.445,177.25,133.143,179.676,135.546,181.065Z" transform="translate(-133.563 -161.956)"/><path class="e" d="M135.351,183.3l21.686,12.532c2.4,1.389,6.6,1.214,9.374-.389l20.781-12.009c2.773-1.6,3.075-4.028.672-5.417l-21.686-12.532c-2.4-1.389-6.6-1.214-9.374.389l-20.781,12.008C133.25,179.491,132.948,181.915,135.351,183.3Z" transform="translate(-133.587 -161.683)"/><path class="b" d="M190.067,177.931a3.214,3.214,0,0,0-1.788-2.423l-21.686-12.539c-2.5-1.441-6.868-1.263-9.735.395l-20.785,12.007a4.427,4.427,0,0,0-2.456,3.092c-.008.1-.016.193-.016.289a2.3,2.3,0,0,0,.193.927v.008a1.426,1.426,0,0,0,.193.4.083.083,0,0,0,.033.056,2.711,2.711,0,0,0,.322.435,3.7,3.7,0,0,0,.854.7,1.161,1.161,0,0,0,.21.137l20.3,11.733,1.386.8a5.6,5.6,0,0,0,1.022.468,9.65,9.65,0,0,0,3.229.515h.033a11.329,11.329,0,0,0,5.451-1.369l20.785-12.007a6.264,6.264,0,0,0,1.723-1.433.7.7,0,0,0,.064-.089,3.334,3.334,0,0,0,.3-.459c.008-.009.016-.017.016-.025a3.069,3.069,0,0,0,.362-1.143,2.322,2.322,0,0,0,.008-.233v-.033A1.752,1.752,0,0,0,190.067,177.931Zm-.773.725a2.574,2.574,0,0,1-.274.653,4.892,4.892,0,0,1-1.78,1.61l-20.776,12.015c-2.674,1.538-6.716,1.715-9.01.387L135.768,180.79a2.941,2.941,0,0,1-1.289-1.328,1.491,1.491,0,0,1-.112-.355,1.727,1.727,0,0,1-.04-.355,1.9,1.9,0,0,1,.024-.3,1.209,1.209,0,0,1,.033-.162A4.054,4.054,0,0,1,136.436,176l20.784-12.007a10.527,10.527,0,0,1,5.122-1.28,7.878,7.878,0,0,1,3.89.894l21.686,12.53a2.587,2.587,0,0,1,1.426,1.8,2.3,2.3,0,0,1,.016.233.618.618,0,0,1-.008.12A1.441,1.441,0,0,1,189.294,178.656Z" transform="translate(-133.602 -161.994)"/></g><path class="b" d="M158.36,192.8v6.581l3.277-.515,4.122-1.94,19.7-11.64,1.234-1.516v-7.25l-.809,2.1-4.244,2.486L161.7,192.32Z" transform="translate(-130.498 -160.223)"/><path class="b" d="M155.713,190.685V197.3l-2.412-1.115v-6.6Z" transform="translate(-131.115 -158.631)"/><path class="b" d="M135.2,179.186v6.261l-.948-.71-.682-4.285.318-3.606,1.312,2.34Z" transform="translate(-133.521 -160.184)"/><g transform="translate(14.941 8.743)"><path class="d" d="M177,176.736c-2.782-.808-7.295-1.7-10.123-.066l-1.426.821-1.72-.763a2.2,2.2,0,0,0-.865-1.758h0l-3.351-3.027c-.079-.077-.162-.154-.251-.228l-.066-.059-.006,0a5.468,5.468,0,0,0-.682-.47,10.426,10.426,0,0,0-9.435-.012c-2.607,1.5-2.611,3.939-.008,5.447a7.16,7.16,0,0,0,.784.384l-.006,0,.105.039c.153.062.309.119.467.173l5.187,1.927h0a8.244,8.244,0,0,0,3.042.5l1.315,1-1.411.812c-2.835,1.632-1.318,4.242.07,5.852a3.035,3.035,0,0,0,3.347.321l7.636-4.4.332-.191,7.611-4.381C178.557,178.086,178.277,177.106,177,176.736Z" transform="translate(-146.811 -169.754)"/><path class="b" d="M149.069,172.975a10.433,10.433,0,0,1,9.435.012,5.509,5.509,0,0,1,.682.471l.006,0,.066.059c.09.074.173.15.251.227l3.351,3.028h0a2.2,2.2,0,0,1,.865,1.758l1.72.762,1.426-.82c2.828-1.629,7.341-.743,10.123.065a2.611,2.611,0,0,1,.458.183l.09-.053c1.011-.581.732-1.561-.545-1.932-2.782-.808-7.295-1.694-10.123-.066l-1.426.821-1.72-.762a2.2,2.2,0,0,0-.865-1.758h0l-3.351-3.028c-.079-.076-.162-.153-.251-.227l-.066-.059-.006,0a5.509,5.509,0,0,0-.682-.471,10.43,10.43,0,0,0-9.435-.012c-1.7.982-2.289,2.363-1.767,3.623A3.958,3.958,0,0,1,149.069,172.975Z" transform="translate(-146.81 -169.755)"/><path class="b" d="M157.477,182.11l1.411-.812.006-1.8c-.027,0-1.373.8-1.4.8l-.013.008a2.651,2.651,0,0,0-1.445,3.347A3.067,3.067,0,0,1,157.477,182.11Z" transform="translate(-145.743 -168.603)"/><path class="b" d="M169.73,177.343h2.625A13.684,13.684,0,0,0,169.73,177.343Zm8.753.362a.949.949,0,0,0-.121-.362.894.894,0,0,0-.2-.266,1.143,1.143,0,0,0-.089-.1,2.378,2.378,0,0,0-.958-.507c-3.157-.918-7.521-1.675-10.356-.04l-1.3.749-1.393-.62a2.324,2.324,0,0,0-.563-1.377,3.307,3.307,0,0,0-.4-.411l-3.342-3.02c-.089-.081-.177-.16-.266-.233l-.145-.137-.089-.073-.016.009a5.1,5.1,0,0,0-.556-.362,10.768,10.768,0,0,0-9.735-.017c-.1.056-.169.113-.258.169s-.177.112-.266.177c-.072.056-.145.112-.226.169-.1.088-.193.168-.289.257-.04.04-.089.089-.137.129a3.758,3.758,0,0,0-.661.935c0,.008,0,.016-.008.016a2.9,2.9,0,0,0-.169.475.3.3,0,0,0-.016.081,2.329,2.329,0,0,0-.072.468v.048c0,.016-.009.04-.009.064a2.78,2.78,0,0,0,.21,1.014l.322.588a4.773,4.773,0,0,0,1.571,1.386c.1.056.185.1.289.16l.58.266h.008l.048.025c.153.064.314.121.476.177l.434.16,4.743,1.764a8.488,8.488,0,0,0,3.052.524l.869.652c-.089.048-.185.1-.3.169-.266.16-.532.314-.645.37l-.072.04c-.065.04-.121.081-.185.121s-.154.1-.226.153a1.946,1.946,0,0,0-.2.153,2.707,2.707,0,0,0-.266.233c-.056.057-.1.105-.153.162-.073.081-.145.169-.21.25-.031.048-.064.1-.088.137a2.6,2.6,0,0,0-.2.362c-.016.039-.024.08-.04.12a1.987,1.987,0,0,0-.1.306c-.016.048-.024.1-.04.145,0,.016-.008.033-.008.048-.008.04,0,.089-.008.129a2.782,2.782,0,0,0-.025.378c0,.065.008.129.008.194.017.12.025.241.049.362l.048.193c.016.089.031.169.056.258l.3.74a9.268,9.268,0,0,0,1.281,1.876,3.309,3.309,0,0,0,3.728.387l15.581-8.971a1.941,1.941,0,0,0,.371-.274,1.129,1.129,0,0,0,.386-.958A.032.032,0,0,0,178.483,177.706Zm-.6.1c.024.21-.121.42-.411.6a1.948,1.948,0,0,0-.355-.129c-.717-.21-1.5-.411-2.311-.572a22.415,22.415,0,0,0-2.448-.362,13.684,13.684,0,0,0-2.625,0,8.321,8.321,0,0,0-1.756.362,6.2,6.2,0,0,0-1.224.532l-1.288.74-1.4-.619a2,2,0,0,0-.137-.653,1.872,1.872,0,0,0-.177-.362.451.451,0,0,0-.089-.128,2.11,2.11,0,0,0-.169-.242l.54.242.3.128.813.362.362.162.282-.162.628-.362.266-.16.386-.218c2.787-1.6,7.392-.628,9.881.1a.7.7,0,0,1,.081.025,1.8,1.8,0,0,1,.531.257.208.208,0,0,1,.049.033.729.729,0,0,1,.249.33A.224.224,0,0,1,177.88,177.8Zm-19,9.35a7.7,7.7,0,0,1-1.418-2.3,2.833,2.833,0,0,1,1.264-1.3l1.563-.9.008-1.8v-.33l-.2-.154-1.322-1h-.1a7.8,7.8,0,0,1-2.93-.482l-3.205-1.193-.975-.362-.04-.016-.974-.362c-.137-.04-.274-.1-.411-.145l-.137-.056a8.192,8.192,0,0,1-.749-.371,3.8,3.8,0,0,1-1.577-1.554,3.836,3.836,0,0,1,1.577-1.571,10.112,10.112,0,0,1,9.132.017,4.413,4.413,0,0,1,.644.443l.073.056c.08.064.153.137.241.218l3.35,3.027c.072.065.137.129.2.194a1.25,1.25,0,0,1,.1.12,1.933,1.933,0,0,1,.25.362,1.52,1.52,0,0,1,.21.838l-.009.209,2.046.91,1.562-.9c2.73-1.571,7.19-.669,9.719.048L161.846,187.4A2.771,2.771,0,0,1,158.883,187.152Zm-1.571-3.616c.008-.017.008-.033.016-.048.017-.1.04-.185.065-.282a.066.066,0,0,0,.016-.04c.04-.1.081-.185.129-.283.008,0,.008-.008.008-.016a2.245,2.245,0,0,1,.194-.282.008.008,0,0,1,.008-.008,2.493,2.493,0,0,1,.241-.274c.008,0,.008,0,.008-.008a3.848,3.848,0,0,1,.742-.54l.949-.547v1.1l-1.263.725a4.552,4.552,0,0,0-.846.628,2.733,2.733,0,0,0-.289.313A2.685,2.685,0,0,1,157.313,183.536Zm-9.84-9.808a.366.366,0,0,1,.008-.089c.009-.073.033-.154.048-.225a.608.608,0,0,0,.033-.121,1.32,1.32,0,0,1,.081-.185c.024-.056.04-.1.064-.153s.057-.1.081-.137c.04-.065.081-.137.129-.2.016-.016.033-.04.048-.056a4.314,4.314,0,0,1,1.3-1.087,10.131,10.131,0,0,1,9.131.008,5.219,5.219,0,0,1,.644.451l.065.048c.088.073.16.145.241.218l3.358,3.036a2.692,2.692,0,0,1,.338.355,1.65,1.65,0,0,1,.42,1.151l-.009.185a2.879,2.879,0,0,0-.353-.347l-3.342-3.019a2.356,2.356,0,0,0-.258-.241l-.241-.2-.008.008c-.185-.137-.37-.257-.556-.37a10.772,10.772,0,0,0-9.735-.008,4.775,4.775,0,0,0-1.49,1.264l-.008-.008C147.457,173.913,147.464,173.817,147.472,173.728Zm22.258,3.615h2.625A13.684,13.684,0,0,0,169.73,177.343Z" transform="translate(-146.844 -169.787)"/></g></g><g transform="translate(70.251 121.982)"><g transform="translate(0 6.335)"><path class="d" d="M104.759,156.728h0l.063-30.07H82.674L82.6,156.525a.878.878,0,0,0,0,.2h0a1.628,1.628,0,0,0,.9,1.1l8.264,4.772a4.143,4.143,0,0,0,3.727.154l8.623-4.978A1.065,1.065,0,0,0,104.759,156.728Z" transform="translate(-82.105 -126.165)"/><path class="b" d="M93.928,163.675a4.8,4.8,0,0,1-2.349-.592l-8.263-4.77a2.1,2.1,0,0,1-1.148-1.466,1.415,1.415,0,0,1,0-.316l.071-30.31h22.442a.692.692,0,0,1,.691.692l-.064,29.842a1.55,1.55,0,0,1-.883,1.5L95.8,163.236A3.792,3.792,0,0,1,93.928,163.675Zm-10.782-6.957a1.209,1.209,0,0,0,.662.74l8.263,4.77a3.66,3.66,0,0,0,3.235.155l8.624-4.979c.2-.114.427-.3.394-.559l0-.065.062-29.576H83.22l-.072,29.375h0Z" transform="translate(-82.158 -126.219)"/></g><g transform="translate(0.074)"><path class="d" d="M104.191,128.463l-8.623,4.979a4.146,4.146,0,0,1-3.728-.155l-8.263-4.77c-1.1-.637-1.223-1.6-.268-2.153l8.623-4.978a4.145,4.145,0,0,1,3.728.154l8.263,4.772C105.027,126.948,105.146,127.911,104.191,128.463Z" transform="translate(-82.17 -120.519)"/><path class="b" d="M94,134.36a4.807,4.807,0,0,1-2.352-.594L83.384,129a2.008,2.008,0,0,1-1.16-1.645,1.583,1.583,0,0,1,.892-1.361l8.624-4.979a4.619,4.619,0,0,1,4.221.155l8.263,4.77a2.009,2.009,0,0,1,1.159,1.645,1.583,1.583,0,0,1-.892,1.361l-8.622,4.979A3.8,3.8,0,0,1,94,134.36Zm-.4-12.8a2.81,2.81,0,0,0-1.368.306l-8.623,4.979c-.149.086-.4.267-.4.508s.256.554.666.791l8.264,4.772a3.663,3.663,0,0,0,3.235.154L104,128.089c.149-.086.4-.266.4-.507s-.255-.553-.666-.791l-8.263-4.77A3.85,3.85,0,0,0,93.6,121.558Z" transform="translate(-82.224 -120.573)"/></g><g transform="translate(4.452 2.793)"><g transform="translate(0 0.033)"><path class="f" d="M92.271,127.324l.454-3.21c-.011.006-.025.01-.036.017l-5.935,3.427a1.062,1.062,0,0,0-.14.1Z" transform="translate(-86.067 -122.966)"/><path class="b" d="M86.126,127.329l.591-.482a1.39,1.39,0,0,1,.172-.118l6.357-3.637-.018.441-.482,3.408Zm6.544-3.366-4.8,2.77,4.447-.26Z" transform="translate(-86.126 -123.091)"/></g><g transform="translate(0.099)"><path class="f" d="M93.5,128.028l-6.884.4a.857.857,0,0,0,.084.061l4.784,2.762a1.768,1.768,0,0,0,1.6-.034l5.936-3.427c.458-.264.484-.677.058-.922l-4.784-2.762a1.214,1.214,0,0,0-.223-.094Z" transform="translate(-86.165 -122.946)"/><path class="b" d="M92.474,131.05a1.764,1.764,0,0,1-.869-.208l-4.784-2.762a.889.889,0,0,1-.1-.071l-.506-.4.632-.048,6.683-.392.581-4.106.28.093a1.337,1.337,0,0,1,.272.117l4.781,2.76a.753.753,0,0,1,.426.644.852.852,0,0,1-.484.707l-5.936,3.426A1.987,1.987,0,0,1,92.474,131.05Zm-4.8-3.045,4.175,2.41a1.517,1.517,0,0,0,1.351-.034l5.936-3.426c.146-.085.238-.192.238-.279,0-.072-.065-.151-.18-.217l-4.686-2.706-.55,3.883Z" transform="translate(-86.214 -123.062)"/></g></g><path class="b" d="M92.732,133.041v30.007l1.532-.372,9.41-5.478-.279-29.879-10,5.726Z" transform="translate(-80.869 -119.75)"/></g><g transform="translate(86.441 146.38)"><g transform="translate(0.004 6.634)"><path class="d" d="M120.307,164.654h0l-.083-15.983H97.03l.074,15.77a.893.893,0,0,0,0,.212h0a1.709,1.709,0,0,0,.948,1.154l8.653,5a4.336,4.336,0,0,0,3.9.162l9.03-5.214A1.117,1.117,0,0,0,120.307,164.654Z" transform="translate(-96.54 -148.178)"/><path class="b" d="M108.962,171.9a4.994,4.994,0,0,1-2.45-.618l-8.652-5a2.17,2.17,0,0,1-1.19-1.518,1.406,1.406,0,0,1,0-.33l-.074-15.388a.816.816,0,0,1,.817-.82h22.545a.816.816,0,0,1,.816.812l.082,15.633a1.6,1.6,0,0,1-.913,1.556l-9.03,5.212A3.956,3.956,0,0,1,108.962,171.9ZM97.579,149.218l.071,15.275a.821.821,0,0,0,0,.154,1.3,1.3,0,0,0,.706.789l8.652,5a3.862,3.862,0,0,0,3.412.162l9.029-5.214c.214-.125.462-.33.425-.608l0-.061-.08-15.493Z" transform="translate(-96.593 -148.232)"/></g><path class="d" d="M119.571,150.561l-9.03,5.214a4.336,4.336,0,0,1-3.9-.162l-8.653-5c-1.156-.666-1.281-1.676-.28-2.254l9.03-5.214a4.339,4.339,0,0,1,3.9.162l8.653,5C120.446,148.974,120.572,149.983,119.571,150.561Z" transform="translate(-96.535 -142.266)"/><path class="b" d="M108.894,156.712a5,5,0,0,1-2.45-.619l-8.652-5a2.078,2.078,0,0,1-1.2-1.7,1.634,1.634,0,0,1,.922-1.4l9.03-5.214a4.805,4.805,0,0,1,4.4.162l8.653,5a2.08,2.08,0,0,1,1.2,1.7,1.635,1.635,0,0,1-.922,1.4l-9.03,5.214A3.951,3.951,0,0,1,108.894,156.712Zm-.416-13.406a2.96,2.96,0,0,0-1.444.323L98,148.843c-.16.094-.429.288-.429.552s.265.592.709.849l8.652,5a3.862,3.862,0,0,0,3.412.162l9.029-5.214c.16-.093.43-.287.43-.552s-.266-.591-.709-.848l-8.653-5A4.073,4.073,0,0,0,108.478,143.306Z" transform="translate(-96.589 -142.319)"/><g transform="translate(6.413 2.875)"><g transform="translate(0 1.96)"><path class="f" d="M104.151,147.9c-2.126,1.227-2.126,3.217,0,4.444a8.506,8.506,0,0,0,7.7,0c2.125-1.227,2.125-3.217,0-4.444L108,150.121Z" transform="translate(-102.274 -146.474)"/><path class="b" d="M107.994,152.519a8.12,8.12,0,0,1-3.973-.948,2.586,2.586,0,0,1,0-4.87l.123-.072,3.849,2.223,3.848-2.223.123.072a2.585,2.585,0,0,1,0,4.87A8.131,8.131,0,0,1,107.994,152.519Zm-3.847-5.319a2.4,2.4,0,0,0-1.35,1.935,2.473,2.473,0,0,0,1.471,2.008,8.247,8.247,0,0,0,7.451,0,2.473,2.473,0,0,0,1.471-2.008,2.4,2.4,0,0,0-1.35-1.935l-3.846,2.221Z" transform="translate(-102.305 -146.629)"/></g><g transform="translate(1.416)"><path class="f" d="M103.977,146.658l3.848,2.223,3.848-2.223A8.5,8.5,0,0,0,103.977,146.658Z" transform="translate(-103.517 -144.778)"/><path class="b" d="M107.909,148.551l-4.342-2.506.369-.214a8.8,8.8,0,0,1,7.944,0l.369.214Zm-3.338-2.5,3.338,1.926,3.337-1.926A8.444,8.444,0,0,0,104.571,146.054Z" transform="translate(-103.567 -144.882)"/></g></g><path class="b" d="M107.376,155.366v15.917l2.276-.747,9.571-5.546-.379-15.716-10.343,6.1Z" transform="translate(-95.274 -141.471)"/></g><g transform="translate(119.081 127.453)"><g transform="translate(0.003 11.428)"><path class="f" d="M154.241,132.881v-2.236l-40.213-.792v1.9a1.018,1.018,0,0,0,.585,1.212l18.244,10.79a4.122,4.122,0,0,0,3.709-.114l16.764-9.447C153.987,133.822,154.3,133.333,154.241,132.881Z" transform="translate(-113.832 -129.699)"/><path class="b" d="M134.525,144.3a3.466,3.466,0,0,1-1.729-.405l-18.244-10.788a1.176,1.176,0,0,1-.657-1.365v-2.03l.153,0,40.36.8v2.374a1.581,1.581,0,0,1-.988,1.451l-16.764,9.447A4.447,4.447,0,0,1,134.525,144.3Zm-20.332-14.282v1.77l-.008.022a.872.872,0,0,0,.518,1.037l18.244,10.79a3.965,3.965,0,0,0,3.559-.117l16.764-9.447c.573-.322.885-.756.837-1.162V130.81Z" transform="translate(-113.848 -129.716)"/></g><g transform="translate(6.177 11.555)"><path class="b" d="M153.517,132.872v-2.236l-33.593-.662,14.225,7.37v6.767a4.2,4.2,0,0,0,1.693-.481l16.764-9.447C153.262,133.813,153.571,133.325,153.517,132.872Z" transform="translate(-119.282 -129.812)"/><path class="b" d="M134.068,144.292v-6.839l-14.715-7.622,34.384.677v2.374a1.579,1.579,0,0,1-.988,1.452l-16.764,9.447a4.3,4.3,0,0,1-1.755.5Zm-13.436-14.137,13.736,7.115v6.695a3.911,3.911,0,0,0,1.469-.448L152.6,134.07c.573-.322.885-.757.837-1.162V130.8Z" transform="translate(-119.352 -129.83)"/></g><path class="e" d="M132.855,142.537l-18.244-10.79c-.945-.559-.816-1.516.288-2.137l16.765-9.447a4.122,4.122,0,0,1,3.709-.114l18.244,10.788c.945.559.816,1.516-.288,2.138l-16.765,9.447A4.122,4.122,0,0,1,132.855,142.537Z" transform="translate(-113.83 -119.514)"/><path class="d" d="M153.677,131.919,135.434,121.13a4.122,4.122,0,0,0-3.709.114l-16.765,9.447a2.148,2.148,0,0,0-.7.59,1.527,1.527,0,0,0,.407.34l18.244,10.788a4.122,4.122,0,0,0,3.709-.114l16.765-9.447a2.165,2.165,0,0,0,.7-.59A1.553,1.553,0,0,0,153.677,131.919Z" transform="translate(-113.795 -119.383)"/><path class="b" d="M134.525,143.087a3.467,3.467,0,0,1-1.73-.405l-18.244-10.788a1.254,1.254,0,0,1-.706-1.068,1.678,1.678,0,0,1,1-1.331l16.764-9.447a4.293,4.293,0,0,1,3.859-.112l18.244,10.788a1.251,1.251,0,0,1,.706,1.067,1.678,1.678,0,0,1-1,1.331l-16.764,9.447A4.458,4.458,0,0,1,134.525,143.087Zm-.789-23.262a4.138,4.138,0,0,0-1.982.486l-16.764,9.446a1.4,1.4,0,0,0-.845,1.073.967.967,0,0,0,.559.806l18.244,10.79a3.965,3.965,0,0,0,3.559-.117l16.765-9.447a1.4,1.4,0,0,0,.844-1.071.966.966,0,0,0-.558-.806l-18.244-10.79A3.163,3.163,0,0,0,133.737,119.825Z" transform="translate(-113.846 -119.53)"/><g transform="translate(7.894 4.303)"><path class="f" d="M132.58,137.516l-11.177-6.61c-.579-.342-.5-.928.176-1.309l10.271-5.788a2.526,2.526,0,0,1,2.272-.07l11.178,6.609c.578.342.5.929-.177,1.31l-10.271,5.787A2.523,2.523,0,0,1,132.58,137.516Z" transform="translate(-120.866 -123.349)"/><path class="f" d="M134.494,137.085l8.758-4.935-9.229-5.458a2.523,2.523,0,0,0-2.272.071l-8.759,4.935,9.229,5.458A2.525,2.525,0,0,0,134.494,137.085Z" transform="translate(-120.625 -122.989)"/><path class="b" d="M133.611,137.922a2.186,2.186,0,0,1-1.092-.26l-11.177-6.609a.822.822,0,0,1-.461-.706,1.081,1.081,0,0,1,.641-.865l10.27-5.787a2.653,2.653,0,0,1,2.422-.068l11.178,6.609a.82.82,0,0,1,.46.7,1.078,1.078,0,0,1-.641.865l-10.27,5.788A2.78,2.78,0,0,1,133.611,137.922Zm-.485-14.256a2.475,2.475,0,0,0-1.187.291l-10.27,5.788c-.307.173-.486.394-.488.606a.548.548,0,0,0,.314.444l11.177,6.609a2.361,2.361,0,0,0,2.123-.072l10.27-5.788c.309-.173.486-.394.488-.607a.548.548,0,0,0-.313-.443l-11.178-6.609A1.868,1.868,0,0,0,133.127,123.666Z" transform="translate(-120.882 -123.366)"/></g><g transform="translate(7.894 4.303)"><path class="e" d="M121.4,130.906l.545.323,9.913-5.587a2.528,2.528,0,0,1,2.273-.07l10.631,6.287.357-.2c.677-.381.755-.968.177-1.31l-11.178-6.609a2.526,2.526,0,0,0-2.272.07L121.579,129.6C120.9,129.978,120.824,130.563,121.4,130.906Z" transform="translate(-120.866 -123.349)"/><path class="b" d="M144.78,132.049l-10.705-6.331a2.361,2.361,0,0,0-2.123.072l-9.99,5.629-.62-.367a.82.82,0,0,1-.46-.7,1.081,1.081,0,0,1,.641-.865l10.27-5.787a2.653,2.653,0,0,1,2.422-.068l11.178,6.609a.82.82,0,0,1,.46.7,1.078,1.078,0,0,1-.641.865ZM133.136,125.2a2.174,2.174,0,0,1,1.092.26l10.557,6.244.28-.159c.309-.173.486-.394.488-.607a.548.548,0,0,0-.313-.443l-11.178-6.609a2.364,2.364,0,0,0-2.123.072l-10.27,5.788c-.307.173-.486.394-.488.606a.545.545,0,0,0,.314.443l.471.278,9.838-5.543A2.764,2.764,0,0,1,133.136,125.2Z" transform="translate(-120.882 -123.366)"/></g><g transform="translate(7.894 4.34)"><path class="b" d="M133.15,125.366v-1.833a2.647,2.647,0,0,0-1.3.3l-10.271,5.787c-.677.381-.755.968-.176,1.31l.545.322,9.913-5.586A2.636,2.636,0,0,1,133.15,125.366Z" transform="translate(-120.866 -123.382)"/><path class="b" d="M121.962,131.446l-.62-.366a.82.82,0,0,1-.46-.7,1.081,1.081,0,0,1,.641-.865l10.27-5.788a2.654,2.654,0,0,1,1.374-.322l.148,0v2.132h-.151a2.538,2.538,0,0,0-1.212.284Zm11.052-7.744a2.438,2.438,0,0,0-1.074.282l-10.271,5.788c-.307.173-.486.395-.488.607a.545.545,0,0,0,.314.442l.471.279,9.838-5.545a2.754,2.754,0,0,1,1.211-.321Z" transform="translate(-120.882 -123.399)"/></g></g><g transform="translate(134.366 104.683)"><g transform="translate(0 26.628)"><g transform="translate(0 4.553)"><g transform="translate(0.199 0.201)"><path class="e" d="M137.123,130.281h0a5.592,5.592,0,0,0-3.059-3.075h-3.232a5.592,5.592,0,0,0-3.059,3.075h0c-.365.9.057,1.89,1.277,2.594a7.508,7.508,0,0,0,6.8,0C137.066,132.172,137.487,131.184,137.123,130.281Z" transform="translate(-127.647 -127.206)"/></g><g transform="translate(1.539 0.926)"><path class="d" d="M137.01,130.2h0a5.382,5.382,0,0,0-1.816-2.35h-3.172a5.6,5.6,0,0,0-3.059,3.075h0a1.9,1.9,0,0,0,.764,2.237,7.625,7.625,0,0,0,6-.368C136.953,132.093,137.374,131.106,137.01,130.2Z" transform="translate(-128.841 -127.852)"/></g><path class="b" d="M132.469,133.906a7.155,7.155,0,0,1-3.5-.836c-1.242-.716-1.766-1.788-1.376-2.807l.007-.021a5.752,5.752,0,0,1,3.171-3.2l.08-.017,3.313.017a5.753,5.753,0,0,1,3.169,3.2l.008.025c.387,1.018-.137,2.088-1.377,2.8A7.153,7.153,0,0,1,132.469,133.906Zm-4.4-3.743-.084.215c-.341.841.1,1.719,1.19,2.346a7.305,7.305,0,0,0,6.6,0c1.086-.627,1.531-1.5,1.19-2.346l-.09-.224h0a5.565,5.565,0,0,0-2.825-2.726H130.9A5.565,5.565,0,0,0,128.066,130.163Z" transform="translate(-127.47 -127.027)"/></g><g transform="translate(3.679 4.553)"><g transform="translate(0.454 0.201)"><path class="b" d="M136.717,130.281h0a5.6,5.6,0,0,0-3.059-3.075h-2.505a10.643,10.643,0,0,1,2.257,4.647h0a4.941,4.941,0,0,1,.086,1.7,6.106,6.106,0,0,0,1.944-.681C136.659,132.172,137.081,131.184,136.717,130.281Z" transform="translate(-131.154 -127.206)"/></g><path class="b" d="M133.314,133.824l.033-.269a4.772,4.772,0,0,0-.082-1.635l-.047-.2h0a10.364,10.364,0,0,0-2.165-4.356l-.307-.335,3.039.017a5.751,5.751,0,0,1,3.169,3.2l.009.025c.387,1.018-.138,2.088-1.377,2.8a6.274,6.274,0,0,1-2.009.7Zm.352-1.936a5.113,5.113,0,0,1,.1,1.442,5.68,5.68,0,0,0,1.62-.6c1.086-.627,1.531-1.5,1.191-2.346l-.091-.224h0a5.56,5.56,0,0,0-2.825-2.726H131.64a10.969,10.969,0,0,1,2.017,4.411Z" transform="translate(-130.749 -127.027)"/></g><g transform="translate(2.514 4.163)"><g transform="translate(0.2 0.203)"><path class="g" d="M133.791,129.114a3.568,3.568,0,0,1-3.232,0,.985.985,0,0,1,0-1.866,3.568,3.568,0,0,1,3.232,0A.985.985,0,0,1,133.791,129.114Z" transform="translate(-129.889 -126.861)"/></g><path class="h" d="M132.2,129.726a3.489,3.489,0,0,1-1.715-.417,1.18,1.18,0,0,1,0-2.212,3.743,3.743,0,0,1,3.432,0,1.18,1.18,0,0,1,0,2.212h0A3.5,3.5,0,0,1,132.2,129.726Zm0-2.645a3.1,3.1,0,0,0-1.516.362.792.792,0,0,0,0,1.52,3.358,3.358,0,0,0,3.033,0h0a.792.792,0,0,0,0-1.52A3.1,3.1,0,0,0,132.2,127.081Z" transform="translate(-129.711 -126.68)"/></g><g transform="translate(2.513)"><g transform="translate(0 1.324)"><g transform="translate(0.201 0.2)"><path class="f" d="M134.406,124.327h-4.462a.055.055,0,0,0-.055.055v4.107c0,.491.47.982,1.41,1.226a3.486,3.486,0,0,0,1.749,0c.942-.246,1.413-.736,1.413-1.227h0v-4.107A.055.055,0,0,0,134.406,124.327Z" transform="translate(-129.889 -124.327)"/></g><path class="b" d="M132.2,130.05a3.694,3.694,0,0,1-.926-.119c-.977-.256-1.561-.786-1.561-1.42V124.4a.255.255,0,0,1,.256-.255h4.462a.255.255,0,0,1,.256.255v4.107c0,.635-.585,1.166-1.563,1.42A3.672,3.672,0,0,1,132.2,130.05Zm-2.086-5.5v3.963c0,.434.484.83,1.261,1.033a3.281,3.281,0,0,0,1.648,0c.78-.2,1.263-.6,1.263-1.033V124.55Z" transform="translate(-129.71 -124.149)"/></g><g transform="translate(2.773 1.342)"><g transform="translate(0.2 0.201)"><path class="b" d="M134.1,124.344H132.36v5.464a3.529,3.529,0,0,0,.388-.075c.941-.246,1.411-.736,1.411-1.226V124.4A.055.055,0,0,0,134.1,124.344Z" transform="translate(-132.36 -124.344)"/></g><path class="b" d="M132.182,130.06v-5.895h1.944a.256.256,0,0,1,.256.256v4.106c0,.635-.585,1.166-1.562,1.42a3.444,3.444,0,0,1-.411.08Zm.4-5.494v5.027c.046-.009.092-.02.138-.033.779-.2,1.262-.6,1.262-1.033v-3.962Z" transform="translate(-132.182 -124.165)"/></g><g transform="translate(0.001)"><g transform="translate(0.2 0.204)"><path class="e" d="M133.791,125.4a3.568,3.568,0,0,1-3.232,0,.985.985,0,0,1,0-1.867,3.575,3.575,0,0,1,3.232,0A.985.985,0,0,1,133.791,125.4Z" transform="translate(-129.889 -123.151)"/></g><g transform="translate(0.311 0.952)"><path class="d" d="M133.779,124.2a3.574,3.574,0,0,0-3.232,0,1.4,1.4,0,0,0-.559.546,1.4,1.4,0,0,0,.559.546,3.575,3.575,0,0,0,3.232,0,1.406,1.406,0,0,0,.559-.546A1.406,1.406,0,0,0,133.779,124.2Z" transform="translate(-129.988 -123.818)"/></g><path class="b" d="M132.2,126.016a3.489,3.489,0,0,1-1.715-.417,1.18,1.18,0,0,1,0-2.212,3.736,3.736,0,0,1,3.432,0,1.18,1.18,0,0,1,0,2.212A3.491,3.491,0,0,1,132.2,126.016Zm0-2.645a3.1,3.1,0,0,0-1.516.362.792.792,0,0,0,0,1.52,3.358,3.358,0,0,0,3.033,0h0a.792.792,0,0,0,0-1.52A3.1,3.1,0,0,0,132.2,123.371Z" transform="translate(-129.711 -122.969)"/></g></g><g transform="translate(5.838 5.676)"><path class="b" d="M132.746,129.429l-.073-.291c.011,0,1.144-.3,1.3-1.111l.3.057C134.075,129.085,132.8,129.416,132.746,129.429Z" transform="translate(-132.673 -128.028)"/></g></g><g transform="translate(3.53)"><g transform="translate(0.2 0.201)"><path class="d" d="M132.075,127.526h0a1.282,1.282,0,0,1-1.281-1.282V100.7a1.281,1.281,0,0,1,1.281-1.281h0a1.281,1.281,0,0,1,1.281,1.281v25.549A1.282,1.282,0,0,1,132.075,127.526Z" transform="translate(-130.794 -99.414)"/></g><g transform="translate(0.757 0.19)"><path class="e" d="M132.572,127.516h0a1.282,1.282,0,0,1-1.281-1.282V100.685a1.281,1.281,0,0,1,1.281-1.281h0a1.281,1.281,0,0,1,1.281,1.281v25.549A1.282,1.282,0,0,1,132.572,127.516Z" transform="translate(-131.291 -99.404)"/></g><path class="b" d="M132.1,127.748a1.483,1.483,0,0,1-1.481-1.482V100.717a1.481,1.481,0,1,1,2.963,0v25.549A1.484,1.484,0,0,1,132.1,127.748Zm0-28.112a1.083,1.083,0,0,0-1.082,1.082v25.549a1.082,1.082,0,1,0,2.163,0V100.717A1.082,1.082,0,0,0,132.1,99.636Z" transform="translate(-130.616 -99.235)"/></g><g transform="translate(3.708 0)"><g transform="translate(0.436 0.2)"><path class="b" d="M132.151,99.419a1.27,1.27,0,0,0-.987.348,1.277,1.277,0,0,1,1.092,1.262v25.548a1.266,1.266,0,0,1-.3.824l.047.125a1.281,1.281,0,0,0,1.324-1.281V100.766A1.33,1.33,0,0,0,132.151,99.419Z" transform="translate(-131.164 -99.414)"/></g><path class="b" d="M132.091,127.748h-.049l-.134,0-.136-.359.075-.09a1.065,1.065,0,0,0,.256-.694V101.05a1.072,1.072,0,0,0-.922-1.065l-.406-.061.3-.283a1.467,1.467,0,0,1,1.141-.4h0a1.53,1.53,0,0,1,1.356,1.547v25.478a1.482,1.482,0,0,1-1.48,1.482Zm-.422-28.027a1.467,1.467,0,0,1,.834,1.329V126.6a1.485,1.485,0,0,1-.192.727,1.086,1.086,0,0,0,.861-1.06V100.788a1.129,1.129,0,0,0-.991-1.149A1.071,1.071,0,0,0,131.669,99.721Z" transform="translate(-130.775 -99.235)"/></g></g><g transform="translate(109.417 54.555)"><g transform="translate(0 0)"><g transform="translate(0 0.194)"><path class="e" d="M153.865,63.285l-11.007-6.5c-.1-.058-.192-.117-.291-.172l-.174-.082c-3.892-2.078-9.171-1.7-15,1.662-11.955,6.9-21.648,23.689-21.648,37.495,0,6.4,2.1,11.006,5.528,13.45l.385.267c.255.165.512.321.779.462l10.253,6.093,5.81-9.7c9.861-6.792,17.761-20.095,19.26-32.15l.764-1.274Z" transform="translate(-105.169 -54.664)"/><path class="d" d="M127.148,58.021c-10.9,6.292-19.888,20.792-21.4,33.763.1,6.169,2.163,10.631,5.509,13.018l.386.267c.254.165.51.322.779.462l10.253,6.093,5.81-9.7c9.861-6.792,17.76-20.095,19.26-32.15l.764-1.275,3.532-6.318-9.432-5.57c-.1-.058-.191-.117-.289-.172l-.174-.082C138.254,54.281,132.975,54.657,127.148,58.021Z" transform="translate(-105.169 -54.685)"/><path class="e" d="M142.845,60.377c-.1-.058-.192-.117-.289-.171l-.175-.083c-3.892-2.078-9.171-1.7-15,1.663-7.494,4.326-14.087,12.535-17.964,21.459l26.3,16.2c6.431-7.167,11.138-16.887,12.26-25.908l.764-1.276,3.532-6.318Z" transform="translate(-104.722 -54.226)"/><path class="b" d="M153.531,62.442l-10.346-6.117-.45-.245c-4.245-2.265-9.778-1.673-15.562,1.673-12.1,6.985-21.94,24.032-21.94,38,0,6.321,2.044,11.27,5.777,13.929l.4.277c.268.173.536.339.8.473l1.1.654.671.4.1.063.671.395,8.2,4.877.024-.039.3-.5v-.008l.3-.5L129,106.732c.82-.568,1.618-1.176,2.407-1.831.008-.008.008-.008.016-.008s.008-.008.016-.008a43.361,43.361,0,0,0,3.971-3.764c.8-.853,1.577-1.752,2.32-2.684a52.5,52.5,0,0,0,8.713-15.832c.063-.181.126-.362.181-.544.088-.252.166-.5.245-.749.009-.016.009-.024.017-.039.008-.04.024-.08.031-.119.19-.616.355-1.239.521-1.855.166-.647.315-1.295.442-1.941a.319.319,0,0,0,.024-.111c.205-.963.371-1.925.489-2.881l.063-.118v-.008l.008-.008,5.7-10.118.284-.5.009-.008.26-.466Zm-.386,1.12-1.3,2.329L148.094,72.6l-.766,1.278-.079.229c-.086.687-.19,1.381-.323,2.076a6.134,6.134,0,0,1-.127.64c-.039.26-.094.521-.158.774a50.283,50.283,0,0,1-11.262,21.829c-.229.26-.458.521-.694.773a41.649,41.649,0,0,1-3.465,3.347q-.9.769-1.823,1.467l-.008.008c-.378.284-.765.56-1.152.829l-5.619,9.273-.063.1-1.776-1.057-.016-.008-1.35-.8-3.5-2.083-.671-.394-.1-.064-.671-.4-1.688-1c-.252-.134-.5-.284-.718-.426l-.379-.26c-3.157-2.249-5-6.377-5.248-11.7v-.039c-.024-.4-.031-.821-.031-1.239,0-13.6,9.573-30.2,21.348-36.99a19.037,19.037,0,0,1,9.345-2.865,10.716,10.716,0,0,1,5.114,1.223l7.245,4.262,1.278.757.024.016,1.05.616,1.191.7Z" transform="translate(-105.232 -54.728)"/></g><g transform="translate(2.922)"><g transform="translate(0)"><ellipse class="f" cx="30.614" cy="17.675" rx="30.614" ry="17.675" transform="matrix(0.5, -0.866, 0.866, 0.5, 0, 53.024)"/><path class="b" d="M153.139,62.149a9.163,9.163,0,0,0-.837-.425,10.619,10.619,0,0,0-2.462-.829h-.016l-.1-.024h-.008a11.356,11.356,0,0,0-1.491-.205,14.885,14.885,0,0,0-4.585.387,23.64,23.64,0,0,0-6.385,2.612c-8.468,4.893-15.831,14.7-19.486,24.947v.008a39.224,39.224,0,0,0-2.455,13.046,23.833,23.833,0,0,0,.71,6.021v.008c.033.118.056.229.1.339a5.8,5.8,0,0,0,.2.671.41.41,0,0,0,.031.1c.063.229.141.45.221.663a14.093,14.093,0,0,0,1.618,3.172,11.467,11.467,0,0,0,.947,1.24,10.983,10.983,0,0,0,2.62,2.186l.19.119a11.48,11.48,0,0,0,4.846,1.475c.356.031.718.047,1.082.047a1.793,1.793,0,0,0,.205-.008,1.929,1.929,0,0,0,.213,0,13.814,13.814,0,0,0,1.586-.134,22.045,22.045,0,0,0,7.954-2.9c.751-.434,1.492-.908,2.218-1.413.307-.213.616-.434.915-.663.008,0,.016,0,.016-.008.26-.19.521-.387.782-.6a48.273,48.273,0,0,0,11.728-13.968c.126-.213.245-.426.355-.639a.165.165,0,0,0,.031-.047c.119-.213.237-.426.348-.647.149-.276.292-.561.434-.837.19-.37.378-.742.552-1.113a1.566,1.566,0,0,0,.079-.165c.174-.363.348-.719.514-1.089a46.445,46.445,0,0,0,3.228-9.873c.071-.316.134-.632.174-.939a.1.1,0,0,0,.016-.08c.063-.315.118-.623.157-.931a32.821,32.821,0,0,0,.395-4.987C159.768,69.773,157.417,64.619,153.139,62.149Zm4.933,20.268c-.048.315-.111.631-.174.947-.008.031-.008.063-.016.086-.063.316-.135.639-.213.955A46.81,46.81,0,0,1,154.047,94.5c-.182.379-.371.751-.568,1.121a1.2,1.2,0,0,1-.087.174c-.055.118-.11.229-.174.339-.11.213-.229.426-.347.639l-.024.047c-.024.04-.047.088-.071.127-.1.174-.19.339-.293.513A46.325,46.325,0,0,1,140.236,111.7c-.348.26-.7.513-1.058.749-.513.356-1.033.687-1.554,1-.127.079-.245.149-.371.221a24.88,24.88,0,0,1-3.67,1.751,17.88,17.88,0,0,1-2.754.806,2.136,2.136,0,0,1-.307.063,13.938,13.938,0,0,1-1.752.229,10.827,10.827,0,0,1-6.242-1.334,1.3,1.3,0,0,1-.174-.11c-.166-.1-.331-.2-.489-.307a.008.008,0,0,1-.008-.008c-.166-.111-.307-.221-.466-.348a11.79,11.79,0,0,1-3.789-5.532c-.039-.1-.079-.205-.11-.307v-.008c-.039-.119-.079-.229-.111-.348a.507.507,0,0,1-.031-.1c-.071-.221-.134-.45-.19-.679a22.442,22.442,0,0,1-.687-5.761,38.09,38.09,0,0,1,2.3-12.431v-.008c3.521-10.07,10.741-19.746,19.059-24.552a20.915,20.915,0,0,1,7.332-2.722,13.96,13.96,0,0,1,2.044-.158,10.991,10.991,0,0,1,3.251.466,7.92,7.92,0,0,1,1.31.5,7.381,7.381,0,0,1,.671.34.938.938,0,0,1,.119.063c.126.071.252.149.378.237,3.662,2.328,5.667,7.023,5.667,13.275A32.9,32.9,0,0,1,158.072,82.416Z" transform="translate(-106.925 -53.815)"/></g><g transform="translate(15.979 20.447)"><path class="d" d="M148.011,81.277c-.019.011-.037.027-.056.039.035-.374.056-.744.056-1.107,0-5.26-3.692-7.391-8.246-4.761-3.874,2.237-7.115,7.2-8,11.867a6.9,6.9,0,0,0-1.257.57,13.394,13.394,0,0,0-6.058,10.494c0,3.863,2.713,5.429,6.058,3.5l17.5-10.1a10.044,10.044,0,0,0,4.544-7.87C152.554,81,150.52,79.829,148.011,81.277Z" transform="translate(-121.79 -72.592)"/><path class="b" d="M150.964,80.934a2.929,2.929,0,0,0-1.239-1.437,2.868,2.868,0,0,0-1.5-.378h-.008a4.276,4.276,0,0,0-1.413.284v-.15a7.964,7.964,0,0,0-.947-4.04.2.2,0,0,0-.031-.055,1.84,1.84,0,0,0-.111-.182l-.008-.008a3.3,3.3,0,0,0-.339-.466,3.907,3.907,0,0,0-.5-.522,3.267,3.267,0,0,0-.371-.3,2.7,2.7,0,0,0-.4-.268c-1.743-1.011-4.024-.806-6.416.576-3.85,2.226-7.189,7.1-8.207,11.933a7.958,7.958,0,0,0-1.042.506,13.017,13.017,0,0,0-4.609,4.948,12.86,12.86,0,0,0-1.745,6.054c0,2.083.735,3.653,2.068,4.427a3.912,3.912,0,0,0,.876.362h.008a3.976,3.976,0,0,0,.979.119c.086,0,.165,0,.252-.008h.016a6.225,6.225,0,0,0,2.731-.9l.157-.086,2.3-1.342h.008l1.879-1.082,12.469-7.205.3-.174.387-.221c.094-.055.2-.119.292-.182a10.409,10.409,0,0,0,3.7-4.507,10.8,10.8,0,0,0,.4-1.073.278.278,0,0,0,.031-.088,8.9,8.9,0,0,0,.252-.994,7.89,7.89,0,0,0,.158-1.531A4.817,4.817,0,0,0,150.964,80.934Zm-1.207,4.38a7.43,7.43,0,0,1-.45,1.113.266.266,0,0,1-.047.094,9.851,9.851,0,0,1-.742,1.279,8.647,8.647,0,0,1-2.028,2.138.437.437,0,0,1-.063.047,5.674,5.674,0,0,1-.5.323l-.221.127-.079.047-9.951,5.753-.379.213-1.058.616-.024.016-.583.331-1,.585-4.2,2.423a4.647,4.647,0,0,1-2.762.734h-.008a2.383,2.383,0,0,1-.418-.1h-.008a1.878,1.878,0,0,1-.5-.213c-.955-.552-1.483-1.767-1.483-3.416a11.575,11.575,0,0,1,1.562-5.446,11.9,11.9,0,0,1,4.2-4.546,5.9,5.9,0,0,1,1.152-.521l.323-.111.063-.339c.876-4.632,4.057-9.352,7.719-11.467a6.968,6.968,0,0,1,3.394-1.05,3.67,3.67,0,0,1,1.855.473c.047.031.094.056.141.088h.008a3.711,3.711,0,0,1,.475.378,3.086,3.086,0,0,1,.449.506,3.954,3.954,0,0,1,.434.718,6.434,6.434,0,0,1,.363.986.1.1,0,0,0,.008.047,8.616,8.616,0,0,1,.245,2.107c0,.348-.016.7-.047,1.058l-.087,1.279,1.034-.774a3.491,3.491,0,0,1,1.752-.536h.008a1.743,1.743,0,0,1,.844.229,1.607,1.607,0,0,1,.473.426,3.194,3.194,0,0,1,.569,2.012A7.338,7.338,0,0,1,149.757,85.314Z" transform="translate(-122.079 -72.78)"/></g></g></g></g></g></svg>