<svg xmlns="http://www.w3.org/2000/svg" width="945" height="1080" viewBox="0 0 945 1080"><defs><style>.a{fill:#212c33;}.a,.aa,.ab,.ac,.ad,.c,.h,.k,.l,.n,.q,.r,.t,.u,.v,.x,.y{fill-rule:evenodd;}.aa,.ab,.b,.l,.m,.n,.o,.p,.q,.s,.t,.u,.v,.w,.x,.y,.z{fill:none;}.c,.f{fill:#ef476f;}.d{fill:#f3c054;}.d,.g{font-size:36px;}.d,.f,.g{font-family:Montserrat-Bold, Montserrat;font-weight:700;}.e,.g,.i,.j,.k{fill:#fff;}.e{font-size:13.2px;font-family:Montserrat-Medium, Montserrat;font-weight:500;}.f{font-size:15px;}.h{fill:#fefefe;}.i{stroke:#262b30;stroke-width:0.8px;}.l,.m{stroke:#dd9c27;}.aa,.ab,.l,.m,.n,.o,.p,.q,.s,.t,.u,.v,.w,.x,.y,.z{stroke-linecap:round;}.aa,.l,.m,.n,.o,.p,.q,.s,.t,.u,.v,.w,.x,.y,.z{stroke-linejoin:round;}.l,.w,.x,.y,.z{stroke-width:2.71px;}.m{stroke-width:2.168px;}.n,.o{stroke:#2f93d1;stroke-width:3.28px;}.p,.q{stroke:#da6ba8;}.p,.q,.s,.t,.v{stroke-width:3.253px;}.r{fill:#da6ba8;}.s,.t,.u{stroke:#6b50a0;}.u{stroke-width:3.036px;}.v{stroke:#ef476f;}.w,.x{stroke:#f26d3a;}.y,.z{stroke:#2bb9a2;}.aa,.ab{stroke:#6fbb46;stroke-width:2.981px;}.ac{fill:#6fbb46;}.ad{fill:#dd9c27;}</style></defs><path class="a" d="M0,0H945l-1.1,1080H0Z"/><rect class="b" width="18" height="18" transform="translate(345 724)"/><path class="c" d="M9.811,4,8.794,5.017l4.067,4.067H4v1.453h8.861L8.794,14.6l1.017,1.017,5.811-5.811Z" transform="translate(344.189 723.189)"/><text class="d" transform="translate(183 264)"><tspan x="0" y="0">Hello</tspan></text><text class="e" transform="translate(183 597)"><tspan x="0" y="0">• Procurement</tspan></text><text class="e" transform="translate(183 659)"><tspan x="0" y="0">• Sourcing Insights</tspan></text><text class="f" transform="translate(183 738)"><tspan x="0" y="0">View our features</tspan></text><text class="e" transform="translate(183 628)"><tspan x="0" y="0">• Supplier Management</tspan></text><text class="e" transform="translate(183 690)"><tspan x="0" y="0">• Promote Your Business</tspan></text><text class="e" transform="translate(183 566)"><tspan x="0" y="0">Grow your business with our tools.</tspan></text><text class="g" transform="translate(183 338)"><tspan x="0" y="0">we are simplifying the way </tspan><tspan x="0" y="54">you do business?</tspan></text><g transform="translate(90)"><path class="h" d="M5.4,12.137H5.318C14.956,4.661,28.493,0,43.5,0S72.04,4.661,81.678,12.137H70.69a62.215,62.215,0,0,0-32.646-8.88A62.212,62.212,0,0,0,5.4,12.137" transform="translate(160 819)"/><path class="h" d="M3.1,4.78l1.644-3.5,1.644,3.5ZM0,7.9H1.633l.832-1.8H7l.822,1.8H9.441L5.624.042H3.871Zm10.443,0h7.235V6.542h-5.7V.042H10.443Zm8.831,0h7.181V6.585H20.809V4.51h4.747V3.189H20.809V1.362h5.515V.042H19.273Zm14.92,0h1.968L32.625,3.838l3.3-3.8H33.977L31.706,2.736,29.424.042H27.467l3.287,3.8L27.2,7.9h2l2.509-2.963Zm5.6-3.124,1.644-3.5,1.643,3.5ZM36.687,7.9H38.32l.833-1.8h4.531l.822,1.8h1.622L42.31.042H40.558Zm10.442,0H48.6V2.021L54.072,7.9h1.406V.042H54.007V5.72L48.752.042H47.129Zm11.73-1.319V1.362h1.558c2.573,0,3.633.66,3.633,2.586,0,1.837-1.016,2.637-3.633,2.637ZM57.323,7.9h3.85c2.6,0,4.413-1.3,4.413-3.979,0-2.834-1.99-3.883-4.478-3.883H57.323Zm9.815,0H74.32V6.585H68.674V4.51h4.747V3.189H68.674V1.362h5.515V.042H67.138ZM77.5,3.536V1.318h2.963c1.255,0,1.892.184,1.892,1.1s-.637,1.114-1.892,1.114ZM75.97,7.9H77.5V4.812h2.434L82.22,7.9h1.893L81.7,4.7a2.225,2.225,0,0,0,2.2-2.313C83.9.464,82.555.042,80.7.042H75.97Z" transform="translate(160 835.041)"/><path class="h" d="M85.784,23.945H87.32V20.552h4.9v-1.32h-4.9V17.4h5.7V16.084H85.784Zm12.574-1.123c-1.471,0-3.148-.607-3.148-2.833,0-1.893,1.353-2.78,3.148-2.78s3.146.887,3.146,2.78c0,2.226-1.676,2.833-3.146,2.833Zm-4.684-2.748c0,1.634.962,4.067,4.684,4.067s4.683-2.433,4.683-4.067c0-2.152-1.222-4.186-4.683-4.186s-4.684,2.033-4.684,4.186Zm12.238-.5V17.36h2.964c1.255,0,1.892.185,1.892,1.1s-.637,1.114-1.892,1.114Zm-1.536,4.368h1.536V20.853h2.434l2.283,3.092h1.892l-2.412-3.2a2.226,2.226,0,0,0,2.2-2.315c0-1.925-1.341-2.347-3.2-2.347h-4.727Zm9.6,0H119c1.914,0,3.093-.8,3.093-2.281a2.1,2.1,0,0,0-1.211-1.936,1.709,1.709,0,0,0,.908-1.632c0-1.492-1.232-2.012-3.081-2.012h-4.737Zm1.536-1.275V20.464h3.341c1.039,0,1.709.259,1.709,1.081,0,.931-.736,1.125-1.709,1.125Zm0-3.483V17.36h3.3c1.005,0,1.449.249,1.449.919s-.444.909-1.449.909Zm8.063,4.758h7.181V22.626h-5.645V20.552h4.747v-1.32h-4.747V17.4h5.515V16.084h-7.051ZM139.977,18c-.2-.54-.78-2.109-4.165-2.109-.605,0-3.666,0-3.666,2.357,0,1.2,1.016,1.991,2.833,2.239l1.882.261c1.124.141,1.709.476,1.709.985,0,.681-1.038,1.092-2.293,1.092-2.077,0-2.661-.833-2.942-1.407l-1.481.465c.183.6,1.005,2.261,4.379,2.261,2.1,0,3.872-.692,3.872-2.552,0-1.321-1.037-2-2.8-2.273l-1.86-.281c-1.569-.194-1.762-.551-1.762-.886,0-.725,1.048-.984,2.087-.984,1.87,0,2.509.6,2.757,1.308Z" transform="translate(160 819)"/><path class="i" d="M29.69,18.276q-.033-.1-.073-.2C27.3,20.749,21.6,22.481,16.471,22.1a31.921,31.921,0,0,1-11.435-3.55,25.537,25.537,0,0,0,10.42,6.263c4.693,1.407,9.7,1.313,12.524-.173,2.07-1.411,2.538-3.926,1.711-6.359" transform="translate(331 815)"/><path class="i" d="M23.234,1.444c9.243,5.511,3.742,22.856-3.613,28.428C12.776,35.056,5.5,32.667,3.92,27.889a5.657,5.657,0,0,0,6.547,2C17.223,27.152,20.7,14.791,21.151,10.5c.3-3.695-.177-6.175-1.446-7.74C18.25,1.2,16.021.45,12.759,1.485,15-.377,19.806-.6,23.234,1.444" transform="translate(331 815)"/><path class="i" d="M28.406,24.388q.057-.032.11-.069s.013-.009.019-.013a4.62,4.62,0,0,0,.554-.428c.077-.075.161-.152.24-.24,3.6-3.685,4.359-13.934-4.5-18.788C21.679,3.122,14.344.7,7.032,4.434A13.814,13.814,0,0,0,.775,11.712c.993-1.652,2.708-2.774,6.088-3.258a28.867,28.867,0,0,1,12.569,1.724,24.666,24.666,0,0,1,7.16,3.969,10.062,10.062,0,0,1,3.025,3.926c.027.068.05.134.073.2.827,2.433.36,4.948-1.709,6.359,0,0,0,0,0,0q.149-.078.294-.165l.04-.026a.885.885,0,0,0,.091-.055" transform="translate(331 815)"/><path class="i" d="M1.919,17.609a11.478,11.478,0,0,0,.8,1.029C4.5,14.42,14.23,11.679,17.1,11.71c-6.445-2.1-12.764-1.095-15.306,1.131-.923,1.038-1.209,2.6.127,4.768" transform="translate(331 815)"/><path class="i" d="M20.89,27.178c-5.176-.292-12.724-2.311-18.07-8.429q-.046-.058-.1-.111a11.266,11.266,0,0,1-.805-1.029C.583,15.436.871,13.879,1.793,12.84a4.756,4.756,0,0,0-.606.649c-1.369,1.788-1.533,4.689-.6,7.763,2.039,6.677,10.944,10.693,18.178,9.588a16.551,16.551,0,0,0,8.715-4.4,18.458,18.458,0,0,1-6.59.739" transform="translate(331 815)"/><path class="j" d="M58.5,15.478c-4.253,0-6.7,1.855-6.7,5.081,0,3.193,2.444,5.041,6.7,5.041s6.689-1.848,6.689-5.041c0-3.226-2.432-5.081-6.689-5.081m0,7.78c-2.325,0-3.5-.9-3.5-2.7,0-1.819,1.178-2.73,3.5-2.73s3.511.911,3.511,2.73c0,1.8-1.187,2.7-3.511,2.7m7.56-7.532v2.159h4.033v6.7c0,.64.962.873,1.775.873s1.78-.222,1.78-.873v-6.7h4.025V15.726Zm33.068,7.4a3.285,3.285,0,0,1-2.034-.476,1.931,1.931,0,0,1-.547-1.494V16.424c0-.63-.913-.837-1.7-.837s-1.71.207-1.71.826v4.582A3.916,3.916,0,0,0,94.8,24.64c1.364.8,3.842.772,6.224.74h2.971l.008-.434V23.124Zm-55.075-.717c0,1.709,1.418,2.872,3.827,3.07v-10.3h5.4V12.8H39.2v2.381h4.852Zm47.709,2.976-.085-.389c-.792-3.958-5.236-8.481-6.158-9.15a1.753,1.753,0,0,0-1.025-.268,1.785,1.785,0,0,0-1.042.268c-.917.669-5.367,5.192-6.148,9.15l-.088.389h3.147l.057-.279a10.114,10.114,0,0,1,.606-1.8h6.918a9.4,9.4,0,0,1,.6,1.8l.067.279Zm-9.624-4.107a17.485,17.485,0,0,1,2.355-2.893,18.218,18.218,0,0,1,2.341,2.893Z" transform="translate(331 815)"/><path class="k" d="M6.9,21.021a18.211,18.211,0,0,0,1.487,3.452,18.1,18.1,0,0,0-3.736.444,26.322,26.322,0,0,1-2.424-4,26.485,26.485,0,0,1,4.673.1" transform="translate(93 802)"/><path class="k" d="M4.426,25.521a18.092,18.092,0,0,0,2.582,2.741,18.112,18.112,0,0,0-3.365,1.692A26.318,26.318,0,0,1,0,27.025a26.623,26.623,0,0,1,4.426-1.5" transform="translate(93 802)"/><path class="k" d="M3.643,30.6A18.215,18.215,0,0,0,7.008,32.29a18.121,18.121,0,0,0-2.582,2.739A26.4,26.4,0,0,1,0,33.524,26.5,26.5,0,0,1,3.643,30.6" transform="translate(93 802)"/><path class="k" d="M4.647,35.633a17.823,17.823,0,0,0,3.736.444A18.2,18.2,0,0,0,6.9,39.531a26.552,26.552,0,0,1-4.673.1,26.427,26.427,0,0,1,2.424-4" transform="translate(93 802)"/><path class="k" d="M7.489,28.66a12.727,12.727,0,0,0,2.667,1.617,12.543,12.543,0,0,0-2.667,1.613,17.233,17.233,0,0,1-3.331-1.613A16.994,16.994,0,0,1,7.489,28.66" transform="translate(93 802)"/><path class="k" d="M8.7,25.014a12.734,12.734,0,0,0,1.956,2.434,12.66,12.66,0,0,0-3.059.6,17.157,17.157,0,0,1-2.579-2.658,17.3,17.3,0,0,1,3.682-.38" transform="translate(93 802)"/><path class="k" d="M7.6,32.5a12.609,12.609,0,0,0,3.059.605A12.754,12.754,0,0,0,8.7,35.538a17.289,17.289,0,0,1-3.682-.381A17.2,17.2,0,0,1,7.6,32.5" transform="translate(93 802)"/><path class="k" d="M12.027,12.692a26.58,26.58,0,0,1,3.516,3.081,18.142,18.142,0,0,0-1.082,3.608,18.12,18.12,0,0,0-3.148-2.069,26.484,26.484,0,0,1,.714-4.62" transform="translate(93 802)"/><path class="k" d="M6.4,15.941a26.444,26.444,0,0,1,4.357,1.693c-.011.289-.022.579-.022.863a17.588,17.588,0,0,0,.236,2.9,18.147,18.147,0,0,0-3.661-.866,26.465,26.465,0,0,1-.91-4.586" transform="translate(93 802)"/><path class="k" d="M10.97,39.159a17.637,17.637,0,0,0-.236,2.9c0,.282.011.571.022.861A26.38,26.38,0,0,1,6.4,44.609a26.508,26.508,0,0,1,.91-4.584,18.14,18.14,0,0,0,3.661-.865" transform="translate(93 802)"/><path class="k" d="M14.461,41.172a18.187,18.187,0,0,0,1.083,3.607,26.69,26.69,0,0,1-3.516,3.081,26.552,26.552,0,0,1-.714-4.62,18.249,18.249,0,0,0,3.147-2.068" transform="translate(93 802)"/><path class="k" d="M15.949,16.224a17.167,17.167,0,0,1,2.17,3,12.693,12.693,0,0,0-1.128,2.907,12.729,12.729,0,0,0-2.054-2.345,17.142,17.142,0,0,1,1.012-3.561" transform="translate(93 802)"/><path class="k" d="M11.276,18.5c0-.191.01-.386.016-.58A17.222,17.222,0,0,1,14.357,20a13.39,13.39,0,0,0-.139,1.867,11.856,11.856,0,0,0,.073,1.248,12.758,12.758,0,0,0-2.733-1.5,16.6,16.6,0,0,1-.282-3.113" transform="translate(93 802)"/><path class="k" d="M7.5,21.1a17.357,17.357,0,0,1,3.59.9,12.667,12.667,0,0,0,1,2.955,12.653,12.653,0,0,0-3.082-.48A17.187,17.187,0,0,1,7.5,21.1" transform="translate(93 802)"/><path class="k" d="M12.092,35.591a12.63,12.63,0,0,0-1.005,2.952,17.15,17.15,0,0,1-3.59.9A17.172,17.172,0,0,1,9.009,36.07a12.746,12.746,0,0,0,3.082-.479" transform="translate(93 802)"/><path class="k" d="M16.991,38.422a12.638,12.638,0,0,0,1.128,2.9,17.2,17.2,0,0,1-2.17,3,17.13,17.13,0,0,1-1.012-3.562,12.7,12.7,0,0,0,2.054-2.344" transform="translate(93 802)"/><path class="k" d="M14.291,37.437a11.981,11.981,0,0,0-.073,1.252,13.5,13.5,0,0,0,.139,1.867,17.121,17.121,0,0,1-3.065,2.077c-.006-.192-.016-.387-.016-.577a16.6,16.6,0,0,1,.282-3.114,12.678,12.678,0,0,0,2.733-1.5" transform="translate(93 802)"/><path class="k" d="M14.76,21.863a12.577,12.577,0,0,1,.091-1.416,11.759,11.759,0,0,1,1.977,2.427,10.608,10.608,0,0,0-.166,1.851c0,.268.018.536.038.8a10.668,10.668,0,0,0-1.805-1.951,11.053,11.053,0,0,1-.134-1.715" transform="translate(93 802)"/><path class="k" d="M11.7,22.264a11.743,11.743,0,0,1,2.69,1.6,10.687,10.687,0,0,0,.787,2.542,10.535,10.535,0,0,0-2.364-1.217A11.761,11.761,0,0,1,11.7,22.264" transform="translate(93 802)"/><path class="k" d="M9.369,25.047a11.771,11.771,0,0,1,3.076.586,10.661,10.661,0,0,0,1.609,2.119,10.639,10.639,0,0,0-2.644-.341,11.764,11.764,0,0,1-2.041-2.364" transform="translate(93 802)"/><path class="k" d="M11.218,27.959a10.66,10.66,0,0,0,2.23,1.437,10.657,10.657,0,0,0-2.589.591,11.712,11.712,0,0,1-2.733-1.528,11.788,11.788,0,0,1,3.091-.5" transform="translate(93 802)"/><path class="k" d="M10.86,30.563a10.683,10.683,0,0,0,2.59.593,10.631,10.631,0,0,0-2.232,1.436,11.72,11.72,0,0,1-3.091-.5,11.718,11.718,0,0,1,2.733-1.53" transform="translate(93 802)"/><path class="k" d="M14.056,32.8a10.55,10.55,0,0,0-1.611,2.117,11.712,11.712,0,0,1-3.075.588A11.733,11.733,0,0,1,11.41,33.14a10.733,10.733,0,0,0,2.646-.339" transform="translate(93 802)"/><path class="k" d="M16.7,35.021c-.021.269-.038.535-.038.8a10.6,10.6,0,0,0,.166,1.85A11.816,11.816,0,0,1,14.851,40.1a12.255,12.255,0,0,1-.091-1.415,11.036,11.036,0,0,1,.134-1.715A10.753,10.753,0,0,0,16.7,35.021" transform="translate(93 802)"/><path class="k" d="M15.181,34.142a10.691,10.691,0,0,0-.787,2.541,11.717,11.717,0,0,1-2.69,1.6,11.7,11.7,0,0,1,1.112-2.927,10.572,10.572,0,0,0,2.364-1.218" transform="translate(93 802)"/><path class="k" d="M18.426,35.325a10.8,10.8,0,0,0,1.03,2.452,11.7,11.7,0,0,1-1.03,2.957A11.824,11.824,0,0,1,17.4,37.778a10.586,10.586,0,0,0,1.029-2.452" transform="translate(93 802)"/><path class="k" d="M18.426,19.817a11.729,11.729,0,0,1,1.031,2.957,10.709,10.709,0,0,0-1.031,2.452A10.565,10.565,0,0,0,17.4,22.774a11.8,11.8,0,0,1,1.029-2.957" transform="translate(93 802)"/><path class="k" d="M28.426,5.709c0,1.068-.378,2.542-1.89,2.542-1.825,0-1.825-2.047-1.825-2.477s0-2.608,1.877-2.608C28.3,3.167,28.426,5.057,28.426,5.709ZM24.738,0H23.512V7.873l-.027,1.173h1.185l.027-.991a2.105,2.105,0,0,0,.64.665,2.584,2.584,0,0,0,1.46.418,2.768,2.768,0,0,0,2.3-1.122,3.767,3.767,0,0,0,.625-2.386,3.433,3.433,0,0,0-.769-2.463,2.677,2.677,0,0,0-2.073-.835,2.187,2.187,0,0,0-2.138,1.121V0Z" transform="translate(93 802)"/><path class="k" d="M18.426,11.563a26.457,26.457,0,0,1,2.251,4.1,18.332,18.332,0,0,0-2.251,3.021,18.157,18.157,0,0,0-2.249-3.021,26.759,26.759,0,0,1,2.249-4.1" transform="translate(93 802)"/><path class="k" d="M18.426,41.869a18.4,18.4,0,0,0,2.252,3.021,26.28,26.28,0,0,1-2.252,4.1,26.714,26.714,0,0,1-2.249-4.1,18.124,18.124,0,0,0,2.249-3.021" transform="translate(93 802)"/><path class="k" d="M22.393,41.172A18.224,18.224,0,0,0,25.54,43.24a26.447,26.447,0,0,1-.713,4.621,27.025,27.025,0,0,1-3.518-3.082,18.142,18.142,0,0,0,1.083-3.607" transform="translate(93 802)"/><path class="k" d="M24.827,12.69a26.538,26.538,0,0,1,.713,4.622,18.126,18.126,0,0,0-3.147,2.069,18.2,18.2,0,0,0-1.083-3.608,26.883,26.883,0,0,1,3.518-3.083" transform="translate(93 802)"/><path class="k" d="M19.863,38.422a12.636,12.636,0,0,0,2.055,2.344,17.305,17.305,0,0,1-1.013,3.562,17.211,17.211,0,0,1-2.17-3,12.678,12.678,0,0,0,1.128-2.9" transform="translate(93 802)"/><path class="k" d="M22.636,38.688a12.109,12.109,0,0,0-.073-1.251,12.7,12.7,0,0,0,2.734,1.5,16.71,16.71,0,0,1,.28,3.116c0,.188-.008.383-.012.575A17.127,17.127,0,0,1,22.5,40.556a13.157,13.157,0,0,0,.141-1.868" transform="translate(93 802)"/><path class="k" d="M20.9,16.223a17.261,17.261,0,0,1,1.014,3.56,12.76,12.76,0,0,0-2.055,2.347,12.716,12.716,0,0,0-1.128-2.907,17.183,17.183,0,0,1,2.17-3" transform="translate(93 802)"/><path class="k" d="M25.561,17.917c.007.194.015.388.015.578a16.71,16.71,0,0,1-.28,3.115,12.715,12.715,0,0,0-2.734,1.5,12.061,12.061,0,0,0,.073-1.25,13.192,13.192,0,0,0-.141-1.869,17.413,17.413,0,0,1,3.066-2.077" transform="translate(93 802)"/><path class="k" d="M20.193,35.826c0-.27-.019-.536-.04-.8a10.733,10.733,0,0,0,1.805,1.953,10.85,10.85,0,0,1,.135,1.714A12.587,12.587,0,0,1,22,40.1a11.778,11.778,0,0,1-1.978-2.428,10.559,10.559,0,0,0,.169-1.85" transform="translate(93 802)"/><path class="k" d="M21.672,34.142a10.579,10.579,0,0,0,2.366,1.218,11.756,11.756,0,0,1,1.113,2.927,11.662,11.662,0,0,1-2.689-1.6,10.685,10.685,0,0,0-.79-2.541" transform="translate(93 802)"/><path class="k" d="M22.8,32.8a10.661,10.661,0,0,0,2.646.34,11.7,11.7,0,0,1,2.039,2.366,11.744,11.744,0,0,1-3.076-.588A10.582,10.582,0,0,0,22.8,32.8" transform="translate(93 802)"/><path class="k" d="M25.993,30.563a11.691,11.691,0,0,1,2.733,1.53,11.726,11.726,0,0,1-3.09.5A10.688,10.688,0,0,0,23.4,31.155a10.556,10.556,0,0,0,2.589-.592" transform="translate(93 802)"/><path class="k" d="M25.636,27.959a11.776,11.776,0,0,1,3.09.5,11.667,11.667,0,0,1-2.733,1.528A10.609,10.609,0,0,0,23.4,29.4a10.605,10.605,0,0,0,2.233-1.437" transform="translate(93 802)"/><path class="k" d="M27.484,25.047a11.765,11.765,0,0,1-2.039,2.364,10.635,10.635,0,0,0-2.646.341,10.63,10.63,0,0,0,1.61-2.119,11.8,11.8,0,0,1,3.076-.586" transform="translate(93 802)"/><path class="k" d="M22,20.447a12.578,12.578,0,0,1,.091,1.416,11.037,11.037,0,0,1-.134,1.715,10.73,10.73,0,0,0-1.806,1.951c.021-.268.04-.536.04-.8a10.556,10.556,0,0,0-.169-1.851A11.76,11.76,0,0,1,22,20.447" transform="translate(93 802)"/><path class="k" d="M25.15,22.264a11.784,11.784,0,0,1-1.113,2.927,10.541,10.541,0,0,0-2.366,1.217,10.681,10.681,0,0,0,.79-2.542,11.639,11.639,0,0,1,2.689-1.6" transform="translate(93 802)"/><path class="k" d="M24.761,35.591a12.734,12.734,0,0,0,3.082.479,17.111,17.111,0,0,1,1.515,3.378,17.132,17.132,0,0,1-3.592-.9,12.551,12.551,0,0,0-1.005-2.952" transform="translate(93 802)"/><path class="k" d="M29.358,21.1a17.141,17.141,0,0,1-1.515,3.378,12.651,12.651,0,0,0-3.082.48,12.563,12.563,0,0,0,1.005-2.955,17.155,17.155,0,0,1,3.592-.9" transform="translate(93 802)"/><path class="k" d="M26.12,42.058a17.7,17.7,0,0,0-.236-2.9,18.1,18.1,0,0,0,3.661.865,26.431,26.431,0,0,1,.91,4.584A26.243,26.243,0,0,1,26.1,42.918c.012-.29.022-.579.022-.861" transform="translate(93 802)"/><path class="k" d="M30.455,15.941a26.4,26.4,0,0,1-.91,4.586,18.043,18.043,0,0,0-3.661.866,17.676,17.676,0,0,0,.236-2.9c0-.283-.01-.571-.023-.861a26.359,26.359,0,0,1,4.358-1.693" transform="translate(93 802)"/><path class="k" d="M31.829,5.97c0-.588,0-2.66,1.955-2.66,1.448,0,1.8,1.226,1.8,2.4a3.667,3.667,0,0,1-.535,2.047,1.671,1.671,0,0,1-1.382.639C31.948,8.395,31.829,6.765,31.829,5.97Zm-1.172,5.592H31.87V8.317a2.26,2.26,0,0,0,2.006.977c1.566,0,2.986-1.069,2.986-3.507S35.519,2.4,34.111,2.4a2.543,2.543,0,0,0-2.229,1.186L31.856,2.5H30.617c.026.625.04.782.04,1.068v7.992Z" transform="translate(93 802)"/><path class="k" d="M32.208,35.633a26.562,26.562,0,0,1,2.424,4,26.632,26.632,0,0,1-4.675-.1,18.222,18.222,0,0,0-1.486-3.455,17.859,17.859,0,0,0,3.737-.444" transform="translate(93 802)"/><path class="k" d="M33.211,30.6a26.557,26.557,0,0,1,3.644,2.928,26.425,26.425,0,0,1-4.428,1.5,17.986,17.986,0,0,0-2.583-2.739A18.221,18.221,0,0,0,33.211,30.6" transform="translate(93 802)"/><path class="k" d="M32.427,25.52a26.6,26.6,0,0,1,4.428,1.505,26.639,26.639,0,0,1-3.644,2.929,18.118,18.118,0,0,0-3.367-1.692,17.882,17.882,0,0,0,2.583-2.742" transform="translate(93 802)"/><path class="k" d="M34.633,20.919a26.433,26.433,0,0,1-2.424,4,18.142,18.142,0,0,0-3.737-.444,18.222,18.222,0,0,0,1.486-3.454,26.61,26.61,0,0,1,4.675-.1" transform="translate(93 802)"/><path class="k" d="M29.258,32.5a17.228,17.228,0,0,1,2.579,2.66,17.3,17.3,0,0,1-3.682.381A12.9,12.9,0,0,0,26.2,33.1a12.617,12.617,0,0,0,3.058-.605" transform="translate(93 802)"/><path class="k" d="M29.364,28.66A17.067,17.067,0,0,1,32.7,30.275a17.179,17.179,0,0,1-3.331,1.615A12.541,12.541,0,0,0,26.7,30.277a12.733,12.733,0,0,0,2.667-1.617" transform="translate(93 802)"/><path class="k" d="M31.838,25.394a17.287,17.287,0,0,1-2.579,2.658,12.655,12.655,0,0,0-3.058-.6,12.914,12.914,0,0,0,1.956-2.434,17.3,17.3,0,0,1,3.682.38" transform="translate(93 802)"/></g><g transform="translate(84.725)"><path class="l" d="M.092,7.859h23.49V.093H.092Z" transform="translate(201 466.998)"/><path class="l" d="M.092,15.615h23.49V7.849H.092Z" transform="translate(201 466.998)"/><path class="l" d="M.092,23.372h23.49V15.606H.092Z" transform="translate(201 466.998)"/><line class="m" x2="6.85" transform="translate(213.461 470.973)"/><line class="m" x2="6.85" transform="translate(213.461 478.73)"/><line class="m" x2="6.85" transform="translate(213.461 486.486)"/><path class="n" d="M28.1,14.255a13.994,13.994,0,1,1-14-14A14,14,0,0,1,28.1,14.255Z" transform="translate(252 464.658)"/><path class="n" d="M19.93,16.041v.129a5.825,5.825,0,0,1-11.649,0v-.129" transform="translate(252 464.658)"/><line class="o" x2="0.009" y2="8.993" transform="translate(266.102 470.227)"/><path class="n" d="M9.24,11.486,11.671,8.8,14.1,6.118,16.536,8.8l2.436,2.678" transform="translate(252 463.998)"/><line class="p" y1="8.025" x2="8.025" transform="translate(310.633 482.611)"/><line class="p" x1="7.134" y2="7.134" transform="translate(308.109 479.641)"/><line class="p" x2="1.294" y2="1.294" transform="translate(315.953 485.746)"/><line class="p" x2="2.184" y2="2.184" transform="translate(313.059 488.826)"/><path class="q" d="M16.54,14.951a5.613,5.613,0,0,1-5.612-5.612" transform="translate(308 463.998)"/><path class="q" d="M25.754,10.088A9.979,9.979,0,1,1,15.776.109,9.979,9.979,0,0,1,25.754,10.088Z" transform="translate(308 463.998)"/><path class="r" d="M20.366,6.7a1.9,1.9,0,1,1-1.9-1.9,1.894,1.894,0,0,1,1.9,1.9" transform="translate(308 463.998)"/><line class="s" x2="12.268" transform="translate(368.344 479.285)"/><path class="t" d="M17.508,17.093V19.94a3.88,3.88,0,0,1-3.881,3.881h-.3A3.88,3.88,0,0,1,9.448,19.94V17.093Z" transform="translate(361 462.176)"/><line class="s" x1="11.794" transform="translate(368.58 473.178)"/><path class="t" d="M9.448,11.02V8.171a3.882,3.882,0,0,1,3.881-3.881h.3a3.881,3.881,0,0,1,3.879,3.881V11.02Z" transform="translate(361 462.176)"/><line class="s" y2="1.351" transform="translate(371.281 473.893)"/><line class="s" y2="1.351" transform="translate(377.674 473.893)"/><path class="u" d="M13.478,3.594V.261h-5.9A7.579,7.579,0,0,0,0,7.839v12.34A7.579,7.579,0,0,0,7.581,27.76" transform="translate(361 462.176)"/><path class="u" d="M13.478,24.425V27.76h5.9a7.58,7.58,0,0,0,7.581-7.581V7.842A7.58,7.58,0,0,0,19.374.261" transform="translate(361 462.176)"/><path class="v" d="M3.68,19.025v8.129h7.99" transform="translate(415 460.998)"/><path class="v" d="M28.588,14.627h0C19.533,25.3,9.164,25.3.109,14.627v-.356C9.164,3.6,19.533,3.6,28.588,14.272Z" transform="translate(415 460.998)"/><path class="c" d="M7.676,1.725A1.726,1.726,0,1,1,5.95,0,1.725,1.725,0,0,1,7.676,1.725" transform="translate(415 460.998)"/><path class="c" d="M12.669,1.725A1.725,1.725,0,1,1,10.945,0a1.724,1.724,0,0,1,1.724,1.724" transform="translate(415 460.998)"/><path class="v" d="M19.95,14.449a5.6,5.6,0,1,1-5.6-5.6A5.6,5.6,0,0,1,19.95,14.449Z" transform="translate(415 460.998)"/><path class="c" d="M.641,1.891A1.726,1.726,0,1,1,2.367,3.617,1.726,1.726,0,0,1,.641,1.891" transform="translate(435.168 486.26)"/><path class="c" d="M.483,1.891A1.726,1.726,0,1,1,2.209,3.617,1.726,1.726,0,0,1,.483,1.891" transform="translate(430.33 486.26)"/><path class="v" d="M24.644,9.854V1.725h-7.99" transform="translate(415 460.998)"/><line class="w" x1="10.007" y2="0.009" transform="translate(479.066 471.73)"/><line class="w" y1="0.009" x2="10.007" transform="translate(475.996 480.299)"/><path class="x" d="M8.9,19.906,6.9,18.1,4.915,16.3,6.9,14.494l1.988-1.805" transform="translate(471 464.008)"/><path class="x" d="M20.526,23.942H2.545A2.454,2.454,0,0,1,.091,21.488V2.535A2.454,2.454,0,0,1,2.545.081H20.526A2.454,2.454,0,0,1,22.98,2.535V21.488A2.454,2.454,0,0,1,20.526,23.942Z" transform="translate(471 464.008)"/><path class="x" d="M14.174,4.128l1.991,1.8,1.989,1.8L16.169,9.538l-1.988,1.807" transform="translate(471 463.998)"/><path class="y" d="M7.961,14.8,2.688,6.092H21.354L16.119,14.8l.07,9.542L8.069,21.63Z" transform="translate(98 464.006)"/><path class="y" d="M.275,6.093h23.49V.672H.275Z" transform="translate(98 464.006)"/><line class="z" x2="4.92" transform="translate(107.734 474.182)"/><path class="aa" d="M23.671,26.191H.1V18.863H7.663l2.182,3.784a2.357,2.357,0,0,0,4.081,0l2.184-3.784h7.561Z" transform="translate(149 463.998)"/><path class="ab" d="M13.926,22.647a2.356,2.356,0,0,1-4.081,0L4.358,13.14a8.693,8.693,0,1,1,15.056,0Z" transform="translate(149 463.998)"/><path class="ac" d="M15.347,9.286a3.461,3.461,0,1,1-3.46-3.462,3.462,3.462,0,0,1,3.46,3.462" transform="translate(149 463.998)"/><path class="ad" d="M5.491,3.975A1.437,1.437,0,1,1,4.053,2.537,1.439,1.439,0,0,1,5.491,3.975" transform="translate(201 466.998)"/><path class="ad" d="M5.491,11.732a1.437,1.437,0,1,1-1.438-1.438,1.439,1.439,0,0,1,1.438,1.438" transform="translate(201 466.998)"/><path class="ad" d="M5.491,19.488a1.437,1.437,0,1,1-1.438-1.437,1.437,1.437,0,0,1,1.438,1.437" transform="translate(201 466.998)"/><path class="ad" d="M9.653,3.975A1.437,1.437,0,1,1,8.215,2.537,1.439,1.439,0,0,1,9.653,3.975" transform="translate(201 466.998)"/><path class="ad" d="M9.653,11.732a1.437,1.437,0,1,1-1.438-1.438,1.439,1.439,0,0,1,1.438,1.438" transform="translate(201 466.998)"/><path class="ad" d="M9.653,19.488a1.437,1.437,0,1,1-1.438-1.437,1.437,1.437,0,0,1,1.438,1.437" transform="translate(201 466.998)"/></g></svg>